<?xml version="1.0" standalone="no"?>
<!DOCTYPE svg PUBLIC "-//W3C//DTD SVG 1.1//EN" "http://www.w3.org/Graphics/SVG/1.1/DTD/svg11.dtd" >
<svg>
<metadata>
Created by FontForge 20120731 at Tue Jul  2 00:52:22 2019
 By www
Copyright (c) 2011 by Dieter Hofrichter. All rights reserved.
</metadata>
<defs>
<font id="EratoW01-Regular" horiz-adv-x="534" >
  <font-face 
    font-family="EratoW01-Regular"
    font-weight="400"
    font-stretch="normal"
    units-per-em="1000"
    panose-1="2 0 0 0 0 0 0 0 0 0"
    ascent="800"
    descent="-200"
    x-height="482"
    cap-height="707"
    bbox="-50 -273 1133 942"
    underline-thickness="50"
    underline-position="-125"
    unicode-range="U+0020-2122"
  />
<missing-glyph horiz-adv-x="524" 
d="M0 734h524v-734h-524v734zM440 681h-356l178 -267zM472 100v534l-179 -267zM440 52l-178 268l-178 -268h356zM52 100l179 267l-179 267v-534z" />
    <glyph glyph-name=".notdef" horiz-adv-x="524" 
d="M0 734h524v-734h-524v734zM440 681h-356l178 -267zM472 100v534l-179 -267zM440 52l-178 268l-178 -268h356zM52 100l179 267l-179 267v-534z" />
    <glyph glyph-name=".null" horiz-adv-x="0" 
 />
    <glyph glyph-name="nonmarkingreturn" horiz-adv-x="333" 
 />
    <glyph glyph-name="space" unicode=" " horiz-adv-x="224" 
 />
    <glyph glyph-name="exclam" unicode="!" horiz-adv-x="292" 
d="M145 210q-8 77 -15 152t-11.5 142.5t-7 124t-2.5 96.5h110q0 -40 -3.5 -96.5t-9 -124t-13 -142.5t-15.5 -152h-33zM161 -10q-25 0 -44 18t-19 47q0 28 18.5 46.5t44.5 18.5q27 0 44.5 -19.5t17.5 -46.5q0 -26 -17.5 -45t-44.5 -19z" />
    <glyph glyph-name="quotedbl" unicode="&#x22;" horiz-adv-x="304" 
d="M58 474q-6 44 -11 86t-8 77.5t-5 63t-2 43.5h87q0 -16 -2.5 -43.5t-6.5 -63t-9.5 -77.5t-11.5 -86h-31zM212 474q-6 44 -11 86t-8.5 77.5t-5.5 63t-2 43.5h87q0 -16 -2.5 -43.5t-6.5 -63t-9.5 -77.5t-11.5 -86h-30z" />
    <glyph glyph-name="numbersign" unicode="#" horiz-adv-x="563" 
d="M359 212l-47 -224h-44l47 224h-121l-47 -224h-45l47 224h-109v74h125l24 116h-103v74h119l43 200h46l-43 -200h120l43 200h45l-43 -200h107v-74h-123l-25 -116h102v-74h-118zM210 286h121l24 116h-120z" />
    <glyph glyph-name="dollar" unicode="$" horiz-adv-x="506" 
d="M281 669q43 -1 85 -12t76 -34l-50 -68q-23 26 -52.5 41.5t-58.5 21.5v-233q64 -36 99.5 -64.5t53 -53t21.5 -46.5t4 -45q0 -32 -13 -62t-37 -54t-56.5 -40t-71.5 -21v-89h-44v87q-78 2 -129 24t-86 56l59 62q24 -35 64 -61t92 -33v245q-48 26 -80.5 49.5t-52 47.5
t-28 50.5t-8.5 59.5q0 28 11 56t32.5 51t53 39.5t72.5 22.5v91h44v-88zM379 141q0 16 -3.5 30t-14 29t-30 30.5t-50.5 34.5v-220q28 2 46.5 11t30 22t16.5 29.5t5 33.5zM146 528q0 -33 21.5 -61.5t69.5 -57.5v212q-50 -3 -70.5 -29.5t-20.5 -63.5z" />
    <glyph glyph-name="percent" unicode="%" horiz-adv-x="796" 
d="M340 476q0 -48 -10.5 -88t-30.5 -69.5t-49.5 -46t-67.5 -16.5q-34 0 -62 15t-48.5 42t-32 66t-11.5 87q0 46 11.5 84.5t32.5 67t50 44.5t64 16q37 0 66 -15.5t48.5 -43t29.5 -64.5t10 -79zM268 458q0 97 -22.5 141t-60.5 44t-61 -39t-23 -127q0 -101 22 -143.5t63 -42.5
q18 0 33.5 8.5t26 28t16.5 51.5t6 79zM289 -2h-52l267 671h53zM768 210q0 -48 -10.5 -88t-30.5 -69.5t-49.5 -46t-67.5 -16.5q-33 0 -61.5 15t-49 42t-32 66t-11.5 87q0 46 11.5 84.5t32.5 67t50 44.5t64 16q38 0 66.5 -15.5t48 -43t29.5 -64.5t10 -79zM696 192
q0 97 -22.5 141t-60.5 44t-61 -39t-23 -127q0 -101 22 -143.5t63 -42.5q18 0 33.5 8.5t26 28t16.5 51.5t6 79z" />
    <glyph glyph-name="ampersand" unicode="&#x26;" horiz-adv-x="791" 
d="M299 434q56 30 77.5 61t21.5 72q0 17 -5 33t-15.5 28.5t-26.5 20t-38 7.5q-36 0 -61 -22.5t-25 -66.5q0 -31 15.5 -60.5t56.5 -72.5zM240 363q-26 -16 -47 -32t-35.5 -35t-22.5 -43t-8 -56t12.5 -58.5t34 -46t51.5 -30.5t66 -11q54 0 95.5 21.5t70.5 50.5q-29 32 -58 65
t-57.5 64t-54.5 59.5t-47 51.5zM548 160q32 -36 54.5 -58t40 -34t33 -16.5t32.5 -4.5q21 0 35 6t31 15l17 -23q-30 -28 -61.5 -46t-70.5 -18q-41 0 -81 24.5t-92 83.5q-17 -17 -38 -35t-49 -34t-64.5 -26t-82.5 -10q-32 0 -70 11t-70.5 35t-54.5 61t-22 90q0 42 13 73
t37 55.5t57 44t73 39.5q-10 11 -22.5 26.5t-23 34.5t-18 41.5t-7.5 48.5q0 28 11 56t32.5 49.5t54 35t75.5 13.5q69 0 108 -34.5t39 -94.5q0 -31 -12.5 -55t-32.5 -43.5t-44.5 -35t-48.5 -27.5q19 -21 46.5 -51.5t55.5 -61.5t52.5 -58.5t38.5 -41.5q28 38 49.5 80t34.5 82
q6 18 7.5 28.5t1.5 20.5q0 7 -2.5 13.5t-11 12t-23.5 9.5t-40 5v34q10 0 25.5 -0.5t32.5 -1t35 -1t34 -0.5q30 0 58 1t48 2v-34q-37 -3 -51.5 -10t-22.5 -18q-11 -16 -33 -62q-27 -57 -54 -106t-59 -90z" />
    <glyph glyph-name="quotesingle" unicode="'" horiz-adv-x="151" 
d="M58 474q-6 44 -11 86t-8 77.5t-5 63t-2 43.5h87q0 -16 -2.5 -43.5t-6.5 -63t-9.5 -77.5t-11.5 -86h-31z" />
    <glyph glyph-name="parenleft" unicode="(" horiz-adv-x="309" 
d="M54 292q0 66 14 132.5t42.5 129t71 119t98.5 103.5l25 -24q-43 -54 -74 -105.5t-51 -106t-29.5 -115t-9.5 -133.5q0 -128 42 -242.5t122 -214.5l-22 -24q-53 42 -95 96t-72 116t-46 130t-16 139z" />
    <glyph glyph-name="parenright" unicode=")" horiz-adv-x="309" 
d="M255 295q0 -66 -14 -132.5t-42.5 -129t-71 -119.5t-98.5 -103l-24 24q42 54 73 105.5t51 106t29.5 115t9.5 133.5q0 128 -42 242.5t-121 214.5l22 24q52 -42 94 -96t72 -116t46 -130.5t16 -138.5z" />
    <glyph glyph-name="asterisk" unicode="*" horiz-adv-x="437" 
d="M406 567q-35 -11 -79.5 -18.5t-82.5 -13.5q30 -24 61.5 -56.5t54.5 -64.5l-63 -41q-24 33 -44.5 71.5t-35.5 71.5q-17 -35 -36.5 -73t-42.5 -70l-62 42q23 33 54.5 64t60.5 56q-39 7 -81 14.5t-79 19.5l22 69q39 -13 76.5 -32t72.5 -38q-7 38 -13.5 80.5t-7.5 81.5h74
q0 -39 -5.5 -80.5t-12.5 -81.5q32 17 71 36.5t77 33.5z" />
    <glyph glyph-name="plus" unicode="+" horiz-adv-x="729" 
d="M331 35v238h-237v64h236v238h68v-238h237v-64h-237v-238h-67z" />
    <glyph glyph-name="comma" unicode="," horiz-adv-x="245" 
d="M38 -202q45 45 60.5 81t15.5 64q0 22 -14.5 45.5t-41.5 50.5l77 63q21 -21 33 -39t18 -33.5t8 -28.5t2 -25q0 -41 -30.5 -93t-98.5 -112z" />
    <glyph glyph-name="hyphen" unicode="-" horiz-adv-x="311" 
d="M36 219v74h239v-74h-239z" />
    <glyph glyph-name="period" unicode="." horiz-adv-x="245" 
d="M122 -10q-24 0 -43 18t-19 47q0 28 18.5 46.5t44.5 18.5q27 0 44.5 -19.5t17.5 -46.5q0 -26 -18 -45t-45 -19z" />
    <glyph glyph-name="slash" unicode="/" horiz-adv-x="350" 
d="M85 -47h-61l242 772h61z" />
    <glyph glyph-name="zero" unicode="0" 
d="M271 680q102 0 163 -88t61 -261q0 -77 -16 -140.5t-45.5 -109t-72 -70.5t-95.5 -25q-54 0 -96 25t-71 70t-44.5 108.5t-15.5 141.5q0 85 18 150t49.5 109.5t73.5 67t91 22.5zM271 639q-69 0 -101 -76t-32 -230q0 -160 30.5 -233t98.5 -73q67 0 98 73t31 232
q0 160 -30.5 233.5t-94.5 73.5z" />
    <glyph glyph-name="one" unicode="1" 
d="M322 122q0 -29 3 -45t13.5 -25t32 -12.5t57.5 -6.5v-34q-12 0 -31.5 0.5t-40.5 1t-41.5 1t-36.5 0.5q-35 0 -78 -1t-72 -2v34q36 3 57.5 7t32 13t13.5 25.5t3 45.5v362q0 32 -1 49t-6 27q-3 5 -7.5 9t-15.5 7t-29 5t-48 2v36q47 6 95.5 23t89.5 40l14 -8q0 -7 -1 -22.5
t-1.5 -36t-1 -45t-0.5 -48.5v-402z" />
    <glyph glyph-name="two" unicode="2" 
d="M52 525q36 73 96 113.5t127 40.5q87 0 132 -47t45 -125q0 -62 -28 -120t-71 -111.5t-95.5 -102.5t-101.5 -92q21 0 62.5 0.5t89.5 1t96 1.5t81 3l-20 -88q-57 1 -112.5 1.5t-116.5 0.5h-35h-44t-57 -0.5t-74 -1.5l-4 22q13 10 29 23t31 26.5t27.5 25t20.5 18.5
q64 62 107 113.5t69.5 97.5t37.5 88t11 85q0 51 -25 84.5t-80 33.5q-47 0 -87 -25.5t-72 -81.5z" />
    <glyph glyph-name="three" unicode="3" 
d="M285 390q76 0 123.5 -38t47.5 -115q0 -61 -36 -111t-91.5 -87t-123 -59.5t-129.5 -28.5l-9 65q55 0 108.5 11t95 35t67 62t25.5 93q0 67 -35 97t-88 30q-23 0 -44.5 -4.5t-54.5 -17.5l-15 38q44 14 67.5 23t40.5 19q49 27 67.5 62.5t18.5 74.5q0 40 -23.5 61t-59.5 21
q-28 0 -62.5 -15t-77.5 -59l-32 26q27 31 54.5 51.5t54 33t50.5 17.5t45 5q70 0 106.5 -36t36.5 -91q0 -58 -35 -96.5t-92 -66.5z" />
    <glyph glyph-name="four" unicode="4" 
d="M508 255v-70h-99v-207h-85v207h-134.5t-155.5 -1l-8 26q40 59 83.5 120.5t87.5 121.5t86.5 116.5t81.5 107.5l45 -3v-50.5t-0.5 -105t-0.5 -132v-130.5h99zM324 552q-11 -15 -32 -44t-48.5 -68t-60 -86.5t-67.5 -98.5h208v297z" />
    <glyph glyph-name="five" unicode="5" 
d="M442 241q0 -56 -28 -104t-77.5 -86t-116 -64t-143.5 -36l-10 65q57 1 108.5 12.5t91 36t62.5 63t23 93.5q0 60 -48.5 99t-132.5 66q-34 11 -48.5 23t-14.5 30q0 8 2 19t4 19q6 22 11 42t10 42t11 47t14 57h95.5t85 0.5t67.5 1.5t44 2l-18 -82q-57 -2 -120.5 -2.5
t-126.5 -0.5q-7 -24 -11 -39.5t-6.5 -25t-3 -14.5t-0.5 -9q0 -12 10 -16.5t28 -11.5q67 -24 112.5 -46.5t73.5 -48.5t40 -57.5t12 -74.5z" />
    <glyph glyph-name="six" unicode="6" 
d="M189 357q77 34 133 34q36 0 68 -13t55 -37t36.5 -58.5t13.5 -76.5q0 -45 -16 -85t-45.5 -69.5t-70.5 -46.5t-90 -17q-50 0 -91 18.5t-70 53t-44.5 84.5t-15.5 112q0 74 25.5 146.5t74.5 134t120.5 108.5t162.5 70l10 -35q-68 -22 -123 -62.5t-94 -95t-60 -120.5t-21 -139
q0 -60 11 -104t29.5 -72.5t44.5 -42.5t56 -14q51 0 85 37.5t34 107.5q0 29 -8.5 59t-25.5 54.5t-42 40t-59 15.5q-17 0 -34 -3t-38 -11z" />
    <glyph glyph-name="seven" unicode="7" 
d="M116 -26q25 52 53.5 110.5t57.5 118t57.5 117t54 107.5t46 90.5t34.5 66.5q-93 0 -189.5 -0.5t-188.5 -2.5l21 86q17 0 41.5 -0.5t51 -1t54 -0.5h50.5h125t111 1l10 -14q-79 -161 -159 -332t-168 -361z" />
    <glyph glyph-name="eight" unicode="8" 
d="M199 339q-34 21 -56 41.5t-35 41.5t-18 42.5t-5 44.5q0 37 14.5 68.5t40.5 54t61.5 35.5t77.5 13q82 0 130 -42t48 -111q0 -29 -10 -52.5t-27 -43t-39.5 -35.5t-47.5 -28q31 -20 57.5 -39.5t45 -42.5t29 -50.5t10.5 -61.5q0 -38 -15.5 -72t-44 -59.5t-67.5 -40.5t-87 -15
q-46 0 -83.5 12t-64.5 34t-41.5 53t-14.5 70q0 63 39.5 107.5t102.5 75.5zM229 319q-43 -24 -72.5 -63.5t-29.5 -92.5q0 -32 10.5 -57t29.5 -42.5t44 -26.5t55 -9q26 0 49 8t40.5 23t28 36.5t10.5 48.5q0 30 -11 53.5t-32 44t-52 39t-70 38.5zM298 386q36 20 63.5 55
t27.5 83q0 53 -33.5 84.5t-82.5 31.5q-46 0 -77.5 -28t-31.5 -77q0 -26 11 -47t29 -39t42.5 -33.5t51.5 -29.5z" />
    <glyph glyph-name="nine" unicode="9" 
d="M261 326q34 0 72 13l10 -27q-36 -18 -70 -26.5t-63 -8.5q-36 0 -68 13t-55.5 37t-37 58t-13.5 76q0 45 16.5 85t46 70t70.5 47t90 17q51 0 91.5 -18.5t69 -53t43.5 -84.5t15 -112q0 -74 -24.5 -146.5t-72 -134.5t-118 -108.5t-161.5 -69.5l-13 35q68 22 122.5 63
t92.5 95.5t58.5 120t20.5 138.5q0 60 -10.5 104t-28.5 72.5t-42.5 42.5t-53.5 14q-53 0 -88 -38t-35 -108q0 -30 7.5 -59.5t24 -53t42.5 -38.5t62 -15z" />
    <glyph glyph-name="colon" unicode=":" horiz-adv-x="262" 
d="M140 352q-25 0 -44 18t-19 47q0 28 18.5 46t45.5 18t44 -19t17 -46q0 -26 -17.5 -45t-44.5 -19zM140 -10q-25 0 -44 18t-19 47q0 28 18.5 46.5t45.5 18.5t44 -19.5t17 -46.5q0 -26 -17.5 -45t-44.5 -19z" />
    <glyph glyph-name="semicolon" unicode=";" horiz-adv-x="262" 
d="M140 352q-25 0 -44 18t-19 47q0 28 18.5 46t45.5 18t44 -19t17 -46q0 -26 -17.5 -45t-44.5 -19zM56 -202q44 45 59.5 81t15.5 64q0 22 -14.5 45.5t-41.5 50.5l78 63q20 -21 32 -39t18 -33.5t8 -28.5t2 -25q0 -41 -30 -93t-99 -112z" />
    <glyph glyph-name="less" unicode="&#x3c;" horiz-adv-x="729" 
d="M112 266v78l475 231v-74l-410 -194l410 -190v-77z" />
    <glyph glyph-name="equal" unicode="=" horiz-adv-x="729" 
d="M95 178v65h540v-65h-540zM95 364v65h539v-65h-539z" />
    <glyph glyph-name="greater" unicode="&#x3e;" horiz-adv-x="729" 
d="M617 349v-78l-476 -231v74l411 194l-411 190v76z" />
    <glyph glyph-name="question" unicode="?" horiz-adv-x="372" 
d="M131 208q-1 19 -2.5 41t-2.5 43t-1.5 38t-0.5 26q0 21 9 35t35 23q24 9 44 17.5t34 20.5t22 28.5t8 42.5q0 28 -10 50t-34 37.5t-63 24t-97 8.5v84q19 -1 43.5 -5t49 -12t48.5 -20t44 -28q48 -39 67.5 -83.5t19.5 -91.5q0 -59 -33.5 -96.5t-105.5 -62.5
q-20 -7 -25.5 -18.5t-7.5 -25.5q-2 -12 -3 -32t-3 -44h-35zM151 -10q-24 0 -43 18t-19 47q0 28 18.5 46.5t44.5 18.5q27 0 44.5 -19.5t17.5 -46.5q0 -26 -18 -45t-45 -19z" />
    <glyph glyph-name="at" unicode="@" horiz-adv-x="840" 
d="M606 525l46 -3l-87 -292q-11 -37 -14.5 -58.5t-3.5 -31.5q0 -14 12 -14q7 0 18.5 4t30.5 18q31 23 54.5 53.5t39.5 65.5t24.5 73.5t8.5 77.5q0 49 -17 90t-49 70.5t-78 45.5t-103 16q-78 0 -143.5 -30.5t-113 -84.5t-74 -129.5t-26.5 -165.5q0 -71 22 -126.5t62 -94.5
t96 -59.5t124 -20.5q97 0 179.5 33.5t148.5 96.5l32 -34q-78 -74 -170.5 -111.5t-197.5 -37.5q-86 0 -155 24.5t-117 71t-74 112.5t-26 149q0 90 32.5 171.5t90.5 144t138 99t175 36.5q91 0 150.5 -27.5t94 -68.5t48.5 -87.5t14 -85.5q0 -96 -46 -170t-124 -128
q-34 -23 -65 -35t-53 -12q-32 0 -32 31q0 13 7 45t29 102l-3 2q-32 -45 -64.5 -79t-63 -56.5t-58.5 -34t-49 -11.5q-56 0 -56 65q0 22 6 50t18 59t29.5 63t41.5 62q50 63 104.5 97t107.5 34q17 0 33 -2t30 -4zM556 429q0 14 -18 21t-43 7t-49.5 -16t-50.5 -51
q-17 -23 -33 -52.5t-29.5 -59.5t-21.5 -58.5t-8 -49.5q0 -15 7.5 -24t18.5 -9q21 0 48 18.5t54.5 48t52.5 65t43 70.5q14 27 21.5 51t7.5 39z" />
    <glyph glyph-name="A" unicode="A" horiz-adv-x="716" 
d="M706 -1q-87 3 -137 3q-48 0 -133 -3v33q29 1 45.5 3.5t25 7t11 11t2.5 15.5q0 11 -5.5 32t-11.5 38l-45 137h-231l-50 -139q-8 -20 -13 -39.5t-5 -28.5q0 -7 2.5 -13t11 -10.5t25 -8t45.5 -5.5v-33q-37 2 -66.5 2.5t-48.5 0.5t-51.5 -0.5t-72.5 -2.5v33q20 3 35.5 6.5
t27.5 12.5t22 24t20 41l152 389q11 29 20 53.5t17.5 47t16 45t15.5 48.5l73 21q15 -49 32 -97.5t34 -99.5l136 -399q9 -26 17 -43t19 -27t26.5 -15t38.5 -7v-33zM243 318h201l-96 286z" />
    <glyph glyph-name="B" unicode="B" horiz-adv-x="633" 
d="M393 378q87 -8 139 -51t52 -118q0 -54 -21 -93.5t-58.5 -65.5t-89 -38.5t-113.5 -12.5q-32 0 -65.5 1t-59.5 1q-34 0 -72 -0.5t-58 -1.5v34q31 2 49 6t26 17q5 9 7 24.5t2 42.5v463q0 24 -2 39.5t-7 24.5q-8 14 -26.5 17.5t-47.5 5.5v34q31 -1 65 -1.5t60 -0.5
q39 0 70.5 0.5t56.5 0.5q131 0 189 -40t58 -118q0 -59 -38 -103.5t-116 -66.5zM222 390q5 -1 15.5 -1h15.5q108 0 152.5 37t44.5 109q0 36 -11.5 61.5t-32.5 41.5t-50.5 23t-64.5 7q-19 0 -35 -0.5t-34 -2.5v-275zM222 154q0 -66 8 -82q15 -31 98 -31q81 0 117.5 35
t36.5 107q0 54 -16.5 87t-45 51t-66 24t-79.5 6h-24t-29 -1v-196z" />
    <glyph glyph-name="C" unicode="C" horiz-adv-x="741" 
d="M157 362q0 -75 20.5 -136t58 -104.5t91.5 -67.5t121 -24q38 0 69.5 7t57 25.5t45 50t31.5 79.5l40 -6q-8 -42 -17.5 -84.5t-21.5 -74.5q-17 -9 -42 -16.5t-54.5 -13t-60.5 -8.5t-59 -3q-91 0 -162 28t-120 77.5t-74.5 117t-25.5 146.5t27.5 145.5t77 115t118.5 76
t153 27.5q51 0 92 -6t85 -17q15 -4 30 -8.5t28 -8.5q4 -50 7.5 -86t8.5 -72l-40 -4q-11 43 -26 73t-39.5 49t-59.5 28t-85 9q-62 0 -112.5 -21.5t-86.5 -62t-55.5 -99t-19.5 -131.5z" />
    <glyph glyph-name="D" unicode="D" horiz-adv-x="782" 
d="M175 2q-32 0 -69 -1t-59 -2v34q38 2 54 8.5t21 14.5q4 8 6.5 23.5t2.5 39.5v468q0 24 -2.5 39.5t-6.5 23.5q-5 8 -21 14.5t-54 8.5v34q12 0 27.5 -0.5t32.5 -1t34.5 -0.5h33.5q9 0 29.5 0.5t44.5 0.5t47 0.5t38 0.5q103 0 177.5 -24.5t122.5 -69.5t71 -108t23 -140
q0 -96 -31 -165t-86 -113.5t-131.5 -65.5t-167.5 -21q-16 0 -35 0.5t-38 0.5t-36 0.5t-28 0.5zM222 144q0 -17 1.5 -37.5t6.5 -31.5q15 -32 112 -32q61 0 113 19t89.5 57.5t58.5 96.5t21 137q0 67 -13.5 124t-49 99t-96.5 65.5t-155 23.5h-42.5t-45.5 -2v-519z" />
    <glyph glyph-name="E" unicode="E" horiz-adv-x="605" 
d="M214 2q-16 0 -39.5 -0.5t-48.5 -1t-46.5 -1t-32.5 -0.5v34q39 2 54.5 8.5t20.5 14.5q4 8 6.5 23.5t2.5 39.5v468q0 24 -2.5 39.5t-6.5 23.5q-5 8 -20.5 14.5t-54.5 8.5v34q11 0 32 -0.5t44.5 -1t46.5 -1t39 -0.5h82t82.5 0.5t77.5 1t69 1.5q3 -50 6 -87.5t6 -59.5l-36 -4
q-8 36 -19 57t-25 33q-15 12 -38 17t-73 5h-63.5t-55.5 -2v-277q48 0 85 2t51 7q13 4 24 20.5t19 63.5h34q0 -8 -1 -22t-2 -31t-1.5 -35.5t-0.5 -34.5q0 -34 0.5 -61.5t1.5 -42.5h-34q-6 45 -16 61t-23 22q-14 7 -50.5 9.5t-86.5 2.5v-223q0 -14 1.5 -29.5t6.5 -24.5
q11 -19 48.5 -26t90.5 -7q54 0 83.5 11t47.5 36q11 16 22.5 37.5t20.5 44.5l34 -8q-11 -45 -22 -84.5t-23 -77.5q-31 0 -70.5 0.5t-82.5 1t-85.5 1t-79.5 0.5z" />
    <glyph glyph-name="F" unicode="F" horiz-adv-x="582" 
d="M222 126q0 -32 2.5 -45.5t7.5 -21.5q10 -19 90 -25v-35q-11 0 -30 0.5t-41.5 1t-44 1t-36.5 0.5q-32 0 -66 -1t-57 -2v35q39 2 54.5 8.5t20.5 14.5q4 8 6.5 23.5t2.5 39.5v467q0 24 -2.5 39.5t-6.5 23.5q-5 8 -20.5 14.5t-54.5 8.5v34q11 0 32 -0.5t45 -1t47 -1t39 -0.5
h82t82.5 0.5t77.5 1t69 1.5q3 -50 6.5 -91t6.5 -63l-35 -3q-16 71 -46 96q-14 12 -37.5 17t-73.5 5h-65t-55 -2v-283q47 0 87.5 2t54.5 7q13 4 24 20.5t19 63.5h35q0 -8 -1 -22t-2 -30.5t-1.5 -34.5t-0.5 -34q0 -34 0.5 -63t1.5 -44h-35q-6 45 -16 62.5t-23 23.5
q-14 7 -53.5 9.5t-89.5 2.5v-220z" />
    <glyph glyph-name="G" unicode="G" horiz-adv-x="781" 
d="M454 30q42 0 68 5.5t41 14t21 19t8 21.5q3 17 3.5 46.5t0.5 49.5q0 23 -5 36.5t-16.5 21t-30 11t-45.5 5.5v34q27 -1 63.5 -1.5t70.5 -0.5h31t34.5 0.5t33.5 1t28 0.5v-33q-26 -2 -41.5 -5t-23.5 -11.5t-11 -23.5t-3 -41v-47t1 -36.5t2.5 -31.5t4.5 -31
q-44 -15 -109 -31.5t-141 -16.5q-91 0 -162.5 27t-121 76t-75.5 117t-26 149q0 80 28 147t78.5 115t120 75t153.5 27q51 0 92 -5t84 -18q17 -5 32 -9.5t29 -9.5q4 -50 7.5 -85t8.5 -71l-40 -4q-10 42 -25 72.5t-39.5 49.5t-60 28t-86.5 9q-63 0 -114.5 -21.5t-88 -62
t-56.5 -99t-20 -131.5q0 -71 19.5 -131.5t57 -105t93 -70t127.5 -25.5z" />
    <glyph glyph-name="H" unicode="H" horiz-adv-x="809" 
d="M586 394v192q0 24 -2.5 40t-6.5 24q-5 8 -20.5 14.5t-54.5 8.5v34q22 -1 59 -2t69 -1q15 0 33.5 0.5l37 1t35 1t26.5 0.5v-34q-36 -3 -53 -8t-22 -13t-7.5 -22t-2.5 -46v-463q0 -32 2.5 -45.5t7.5 -21.5t20 -13t55 -8v-34q-10 0 -26.5 0.5t-35 1l-37 1t-33.5 0.5
q-32 0 -69 -1t-59 -2v34q38 2 54 8.5t21 14.5q4 8 6.5 23.5t2.5 39.5v231h-363v-229q0 -32 2.5 -45.5t7.5 -21.5t20 -13t54 -8v-34q-10 0 -26.5 0.5t-35 1l-37 1t-33.5 0.5q-32 0 -69 -1t-59 -2v34q38 2 54 8.5t21 14.5q4 8 6.5 23.5t2.5 39.5v467q0 24 -2.5 40t-6.5 24
q-5 8 -20.5 14.5t-54.5 8.5v34q22 -1 59 -2t69 -1q15 0 33.5 0.5l37 1t35 1t26.5 0.5v-34q-36 -3 -52.5 -8t-21.5 -13t-7.5 -22t-2.5 -46v-190h363z" />
    <glyph glyph-name="I" unicode="I" horiz-adv-x="355" 
d="M224 121q0 -32 2.5 -45.5t7.5 -21.5t20 -13t54 -8v-34q-10 0 -26.5 0.5t-35 1l-37 1t-33.5 0.5q-32 0 -69.5 -1t-59.5 -2v34q38 2 54 8.5t21 14.5q4 8 6.5 23.5t2.5 39.5v467q0 24 -2.5 40t-6.5 24q-5 8 -20.5 14.5t-54.5 8.5v34q22 -1 59.5 -2t69.5 -1q15 0 33.5 0.5
l37 1t35 1t26.5 0.5v-34q-36 -3 -52.5 -8t-21.5 -13t-7.5 -22t-2.5 -46v-463z" />
    <glyph glyph-name="J" unicode="J" horiz-adv-x="346" 
d="M144 585q0 26 -3 41.5t-7 23.5q-5 8 -24 14.5t-58 8.5v34q12 -1 28.5 -1.5t35 -1t37 -0.5h34.5q15 0 33.5 0.5l37 1t35 1t26.5 0.5v-34q-40 -3 -55 -8t-20 -13t-7 -21.5t-2 -45.5v-349q0 -36 0.5 -81t0.5 -80q0 -57 -22.5 -103.5t-54.5 -79.5t-68.5 -51t-64.5 -18
q-23 0 -41 4.5t-35 10.5l25 71q20 -10 41 -16t43 -6q16 0 31.5 4.5t27.5 21.5t19 51t7 93v528z" />
    <glyph glyph-name="K" unicode="K" horiz-adv-x="695" 
d="M222 121q0 -32 2.5 -45.5t7.5 -21.5t19.5 -13t53.5 -8v-34q-10 0 -26 0.5t-34 1t-36.5 1t-33.5 0.5q-32 0 -69 -1t-59 -2v34q38 2 54 8.5t21 14.5q4 8 6.5 23.5t2.5 39.5v468q0 24 -2.5 39.5t-6.5 23.5q-5 8 -21 14.5t-54 8.5v34q22 -1 59 -2t69 -1q15 0 33.5 0.5l37 1
t34.5 1t26 0.5v-34q-39 -3 -54 -8t-20 -13t-7.5 -21.5t-2.5 -45.5v-203q14 1 24.5 3.5t24.5 12.5q26 20 71.5 69t108.5 121q21 25 28.5 39t7.5 22q0 10 -13 16t-52 8v34q6 -1 21.5 -1.5t34.5 -1t37.5 -0.5h30.5q32 0 60.5 0.5t56.5 2.5v-33q-20 -2 -35.5 -5.5t-30 -11.5
t-30.5 -21t-37 -35q-17 -18 -36.5 -38.5t-43.5 -45.5t-53.5 -55.5t-68.5 -69.5l249 -284q20 -23 35.5 -37.5t29.5 -22.5t28.5 -11t32.5 -4v-34q-10 0 -25.5 0.5t-33.5 1t-35.5 1t-30.5 0.5h-42t-43 -0.5t-39.5 -1t-30.5 -1.5v34q38 2 52.5 6.5t14.5 15.5q0 10 -9 24t-31 38
l-154 174q-14 16 -24 27t-18.5 17.5t-15.5 9t-16 2.5v-226z" />
    <glyph glyph-name="L" unicode="L" horiz-adv-x="603" 
d="M223 126q0 -14 1.5 -29t6.5 -24q10 -19 42.5 -26t96.5 -7q54 0 85.5 11t49.5 36q11 16 23.5 41t21.5 48l34 -8q-11 -47 -23 -89t-24 -80q-31 0 -67.5 0.5t-75.5 1t-78.5 1t-76.5 0.5q-16 0 -43.5 -0.5t-57 -1t-55 -1t-36.5 -0.5v34q39 2 54.5 8.5t20.5 14.5q4 8 6.5 23.5
t2.5 39.5v468q0 48 -9 63q-5 8 -20.5 14.5t-54.5 8.5v34q22 -1 59 -2t69 -1q15 0 33.5 0.5t37.5 1t35 1t27 0.5v-34q-20 -2 -33.5 -4t-21.5 -4.5t-12.5 -5.5t-7.5 -7q-5 -8 -7.5 -21.5t-2.5 -45.5v-459z" />
    <glyph glyph-name="M" unicode="M" horiz-adv-x="922" 
d="M452 155q49 114 98 221.5t101 226.5q11 26 20 51t17 53q9 0 22 -0.5t26.5 -1t25 -0.5h19.5q29 0 49 0.5t47 1.5v-34q-28 -1 -45.5 -4t-28 -12t-14.5 -26t-4 -45q0 -8 0.5 -34t2 -79t4.5 -137.5t8 -210.5q1 -29 4 -46t12.5 -26.5t27.5 -13.5t50 -6v-34q-11 0 -27.5 0.5
t-35.5 1t-39 0.5h-38q-40 0 -79.5 -0.5t-62.5 -1.5v34q27 2 45 5.5t28.5 12.5t15 26.5t4.5 47.5q0 19 -1 59.5t-2.5 99t-3 133.5t-3.5 163q-51 -116 -99 -222t-97 -221q-14 -34 -28.5 -72t-24.5 -68h-37q-9 30 -21.5 65.5t-22.5 59.5q-29 72 -53 132t-45.5 113.5t-41 102.5
t-39.5 100q-3 -61 -7 -124t-7.5 -122.5t-6 -112.5t-2.5 -93q0 -27 5 -43t16.5 -25t31 -12.5t49.5 -4.5v-34q-39 1 -73.5 1.5t-64.5 0.5q-38 0 -65 -0.5t-50 -1.5v34q24 1 41 4.5t28.5 13t17.5 26t8 44.5q2 33 5.5 80.5t7.5 100t7.5 105.5t6.5 96.5t5 73t2 35.5q0 19 -5.5 30
t-17 17t-29.5 9t-44 5v34q18 -1 46 -1.5t51 -0.5q22 0 46 0.5t51 1.5q13 -44 25 -78.5t27 -72.5q31 -79 54 -136.5t41.5 -103.5t34 -84t31.5 -77z" />
    <glyph glyph-name="N" unicode="N" horiz-adv-x="799" 
d="M183 161q0 -43 4.5 -68t16 -37.5t32 -17t53.5 -5.5v-34q-30 1 -64.5 1.5t-64.5 0.5h-34.5t-37.5 -0.5t-32.5 -1t-19.5 -0.5v34q30 2 48 6.5t28.5 18.5t14.5 40.5t4 72.5q2 164 3 253.5t1 125.5q0 39 -5 56t-16 30q-8 10 -16 17t-18.5 10.5t-24.5 5.5t-34 4v34
q7 0 20 -0.5t27.5 -1t28 -0.5h22.5q20 0 41 0.5t35 1.5q19 -30 38.5 -56t40.5 -52t46 -55t56 -66q35 -42 65.5 -78.5t61.5 -72.5t63 -73.5t70 -80.5v21.5t0.5 43t0.5 51v46.5q0 54 -0.5 110t-2.5 111q-1 39 -5.5 62t-15.5 34.5t-30.5 15t-50.5 5.5v34q27 -1 59.5 -1.5
t70.5 -0.5q36 0 61.5 0.5t54.5 1.5v-34q-28 -2 -45 -5.5t-27 -15.5t-14.5 -34.5t-5.5 -61.5q-1 -29 -1 -78.5v-115.5q0 -106 1 -196.5t6 -171.5l-39 -9q-20 29 -41.5 58t-42.5 55q-94 114 -193 232t-193 229q-1 -44 -1 -93v-100v-102t1 -103z" />
    <glyph glyph-name="O" unicode="O" horiz-adv-x="820" 
d="M422 719q79 0 143 -27.5t108.5 -75.5t68.5 -112.5t24 -138.5q0 -82 -26 -151.5t-73.5 -120t-114 -79t-147.5 -28.5q-77 0 -141.5 26.5t-111 74t-72.5 112.5t-26 142q0 81 27.5 150t76.5 119.5t116.5 79.5t147.5 29zM420 29q52 0 97 20.5t78 60.5t51.5 97.5t18.5 132.5
q0 84 -21 147t-56.5 105t-83 63t-99.5 21t-97.5 -21t-79 -61t-52.5 -99t-19 -134t17.5 -136t51.5 -104.5t83 -67.5t111 -24z" />
    <glyph glyph-name="P" unicode="P" horiz-adv-x="608" 
d="M223 121q0 -49 12 -64q5 -7 22 -13.5t61 -10.5v-34q-11 0 -29 0.5t-39 1t-41.5 1t-35.5 0.5q-32 0 -67.5 -1t-58.5 -2v34q39 2 54.5 8.5t20.5 14.5q4 8 6.5 23.5t2.5 39.5v467q0 22 -2 38.5t-8 26.5q-8 14 -26.5 17t-47.5 5v34q7 0 21.5 -0.5t31.5 -1t35.5 -0.5h35.5
h27.5t36 0.5t35.5 0.5h28q57 0 106 -9.5t84.5 -31t55.5 -58t20 -90.5t-21.5 -93.5t-56.5 -64.5t-80.5 -37t-93.5 -12q-13 0 -28 0.5t-27 2.5l5 39q8 -2 17.5 -2.5t16.5 -0.5q34 0 64.5 6.5t53.5 24.5t36.5 49t13.5 81q0 74 -46 115.5t-139 41.5h-13t-16 -0.5t-15.5 -1
t-11.5 -0.5v-544z" />
    <glyph glyph-name="Q" unicode="Q" horiz-adv-x="820" 
d="M422 719q79 0 143 -27.5t108.5 -75.5t68.5 -112.5t24 -138.5q0 -71 -20 -132.5t-56.5 -109.5t-88 -81t-115.5 -46q55 -32 122 -65.5t133 -59.5q55 -21 100.5 -27.5t89.5 -6.5q34 0 66.5 6t54.5 11l10 -34q-28 -11 -82 -25t-122 -14q-63 0 -120.5 12.5t-115 35
t-117.5 54.5t-129 70q-24 14 -50 28t-53 28q-50 18 -90.5 50t-69 75t-44 95.5t-15.5 111.5q0 81 27.5 150t76.5 119.5t116.5 79.5t147.5 29zM420 30q52 0 97 20t78 59t51.5 97t18.5 134q0 84 -21 147t-56.5 105t-83 63t-99.5 21t-97.5 -21t-79 -61t-52.5 -99t-19 -134
t17.5 -136t51.5 -104.5t83 -67t111 -23.5z" />
    <glyph glyph-name="R" unicode="R" horiz-adv-x="684" 
d="M298 324q-20 0 -39 0.5t-36 2.5v-206q0 -32 2.5 -45t7.5 -21t22 -14t56 -8v-34q-11 0 -28 0.5t-36.5 1l-39 1t-34.5 0.5q-32 0 -67.5 -1t-58.5 -2v34q39 2 54.5 8.5t20.5 14.5q9 15 9 63v466q0 27 -2 44t-10 25q-8 10 -26 13.5t-46 5.5v34q7 0 21.5 -0.5t31.5 -1
t35.5 -0.5h35.5h26.5t34 0.5t32.5 0.5h24q56 0 105.5 -8.5t86 -30t58 -58.5t21.5 -93q0 -58 -37.5 -106.5t-113.5 -72.5q38 -66 72 -118.5t66 -90.5q38 -48 71 -73.5t68 -33.5l-3 -28q-54 0 -105 14t-84 46q-14 13 -31 34.5t-39 54.5t-49 77.5t-61 104.5h-15zM223 366
q13 -2 30 -3t37 -1q85 0 127 39.5t42 111.5q0 84 -47 119t-139 35q-11 0 -26.5 -0.5t-23.5 -1.5v-299z" />
    <glyph glyph-name="S" unicode="S" horiz-adv-x="512" 
d="M325 380q76 -50 107 -94.5t31 -98.5q0 -44 -16 -81t-45.5 -64t-71.5 -42t-94 -15q-26 0 -51.5 3.5t-49 9t-42 12.5t-29.5 15q-8 33 -14 72.5t-11 74.5l39 4q9 -35 21.5 -62t31.5 -46t46 -29t65 -10q63 0 99.5 30t36.5 84q0 24 -5.5 43t-17 35t-28.5 30t-39 28l-91 59
q-57 37 -91 82t-34 110q0 40 16 74.5t45.5 60t71.5 39.5t94 14q42 0 76.5 -6.5t57.5 -15.5q1 -12 3 -30t4 -37t4.5 -38t4.5 -34l-38 -3q-14 63 -43.5 92.5t-87.5 29.5q-62 0 -95 -33t-33 -81q0 -70 87 -125z" />
    <glyph glyph-name="T" unicode="T" horiz-adv-x="671" 
d="M379 123q0 -32 3 -46.5t8 -22.5q7 -10 27 -14t61 -7v-34q-11 0 -29.5 0.5t-39.5 1l-42 1t-36 0.5h-35t-38.5 -0.5t-37 -1t-29.5 -1.5v34q44 2 62 7.5t25 14.5q10 15 10 66v538q-14 2 -29 2h-32q-45 0 -79 -2.5t-52 -18.5q-15 -14 -26 -35.5t-22 -59.5l-33 5
q7 41 12.5 89.5t8.5 93.5h33q4 -13 12 -18q3 -3 12.5 -5t36 -3.5t75 -2t129.5 -0.5q87 0 136 0.5t74.5 1t34 1.5t13.5 3q8 2 15.5 9t11.5 15l32 -3q-2 -12 -3.5 -34t-3.5 -47.5t-4 -53t-3 -49.5h-35q-3 43 -12.5 68.5t-37.5 36.5q-19 7 -46.5 8.5t-74.5 1.5
q-13 0 -26.5 -0.5t-25.5 -1.5v-537z" />
    <glyph glyph-name="U" unicode="U" horiz-adv-x="766" 
d="M660 552v-55t0.5 -83.5t0.5 -86.5v-65q0 -132 -65.5 -204.5t-212.5 -72.5q-77 0 -141.5 26t-100.5 78q-20 28 -29 68t-9 100v330q0 48 -9 63q-5 8 -20.5 14.5t-53.5 8.5v34q12 -1 27.5 -1.5t33 -1t35 -0.5h33.5q15 0 33.5 0.5l37 1t34.5 1t27 0.5v-34q-39 -3 -55 -8
t-21 -13q-6 -8 -8.5 -22t-2.5 -45t-0.5 -68.5t-0.5 -76v-76v-69.5q0 -56 6.5 -97.5t22.5 -68.5q25 -42 70 -63t105 -21q76 0 119.5 21t65 58.5t26.5 89t5 111.5v59t-0.5 67.5t-1.5 62t-2 42.5q-3 38 -8.5 60.5t-16.5 34.5t-29.5 16t-47.5 6v34q27 -1 59 -1.5t70 -0.5
q36 0 61 0.5t54 1.5v-34q-27 -2 -44.5 -6t-28 -16.5t-14.5 -36t-4 -62.5z" />
    <glyph glyph-name="V" unicode="V" horiz-adv-x="724" 
d="M387 126q31 79 55 139t43.5 110.5t36 94.5t32.5 92q11 32 13.5 49t2.5 24q0 20 -18 28.5t-69 9.5v34q7 0 22.5 -0.5t34 -1t38 -1t35.5 -0.5q12 0 27 0.5t29.5 1t26.5 1t17 0.5v-34q-16 -1 -28.5 -3.5t-20.5 -9.5q-5 -4 -9.5 -8.5t-8.5 -12t-9 -18.5t-12 -27
q-22 -55 -46.5 -115.5t-48.5 -121t-47 -118t-42 -106t-33.5 -86.5t-22.5 -58h-42q-7 20 -22.5 59t-35.5 90t-44.5 111t-49.5 122t-50 123t-47 115q-5 13 -13.5 27.5t-16.5 20.5q-10 8 -22 12t-34 4v34q9 0 25.5 -0.5t35 -1t38.5 -1t37 -0.5q21 0 42.5 0.5t41 1t35.5 1
t25 0.5v-34q-52 -2 -73 -9t-21 -29q0 -16 14 -55q9 -26 27.5 -72.5t42.5 -107t52 -131t57 -143.5z" />
    <glyph glyph-name="W" unicode="W" horiz-adv-x="1032" 
d="M690 117q16 39 38 94t47 117t50 125t46 119q11 31 13.5 46.5t2.5 20.5q0 7 -2 13t-9 10t-21 7t-38 4v34q20 -2 51.5 -2.5t61.5 -0.5q24 0 52 1t42 2v-34q-31 -1 -46 -12q-10 -7 -16 -17.5t-13 -27.5q-34 -80 -66.5 -156.5t-64.5 -153.5t-64.5 -155.5t-65.5 -161.5h-42
q-11 28 -22 57t-24.5 63t-30.5 75t-39 95q-33 -73 -63.5 -142.5t-62.5 -147.5h-44q-33 84 -65 161t-64 152.5t-65 151.5t-69 157q-5 13 -13 26t-15 20q-15 16 -56 16v34q9 0 24 -0.5t31.5 -1t31.5 -1t26 -0.5q41 0 78.5 0.5t60.5 2.5v-34q-24 -1 -37.5 -4.5t-20 -8t-8.5 -10
t-2 -11.5q0 -8 4 -24.5t12 -35.5q10 -25 29.5 -73t46 -110.5t57 -134.5t62.5 -145q20 43 45.5 100t52.5 119q-27 66 -56 134.5t-60 140.5q-5 13 -13 26t-15 20q-7 8 -20.5 12.5t-37.5 4.5v34q21 -1 52.5 -2t52.5 -1q18 0 39 0.5t40 1t34 1t20 0.5v-34q-32 -1 -46 -7.5
t-14 -25.5q0 -8 4 -24t12 -36q4 -11 10.5 -28t14.5 -37.5t17.5 -43t18.5 -44.5l63 144q12 27 15.5 43.5t3.5 24.5q0 34 -62 34v34q19 -2 44.5 -2.5t55.5 -0.5q12 0 27 0.5t29.5 1t26 1t17.5 0.5v-34q-17 -1 -28.5 -3.5t-20.5 -8.5q-15 -12 -26 -32t-21 -41
q-17 -36 -42.5 -88.5t-58.5 -123.5q10 -24 24.5 -58.5t29.5 -71t29 -71t25 -58.5z" />
    <glyph glyph-name="X" unicode="X" horiz-adv-x="716" 
d="M341 310q-26 -35 -51.5 -71t-49.5 -72q-16 -23 -27 -40t-17.5 -29t-9.5 -20.5t-3 -15.5q0 -13 14 -21t61 -9v-33q-10 0 -27 0.5t-36.5 1t-39.5 1t-38 0.5q-27 0 -56.5 -1t-55.5 -2v33q20 1 36.5 4.5t31.5 12.5t30.5 24.5t34.5 40.5q20 27 43.5 58t47 62.5t45.5 61.5
t40 54l-168 245q-17 25 -30 40t-25.5 23t-26 10.5t-31.5 4.5v34q13 0 25.5 -0.5t26.5 -1t31 -1t40 -0.5q15 0 36 0.5l42 1t38.5 1t25.5 0.5v-34q-43 -2 -55.5 -8.5t-12.5 -17.5q0 -9 8.5 -25t34.5 -55l102 -149q32 44 62.5 87t55.5 82q17 27 21.5 40t4.5 21q0 10 -12.5 16.5
t-54.5 8.5v34q8 0 26 -0.5t38.5 -1t39.5 -1t29 -0.5q48 0 98 3v-34q-15 -2 -29 -5t-29 -12t-32.5 -26t-39.5 -46q-39 -51 -76.5 -101t-75.5 -103l180 -267q19 -28 36 -44t32.5 -24t30.5 -10.5t30 -3.5v-32q-8 0 -23 0.5t-33.5 1t-39.5 1t-40 0.5q-37 0 -78.5 -1t-71.5 -2v33
q24 1 38.5 3.5t22 6t10 7.5t2.5 9q0 4 -0.5 8t-3.5 10t-8.5 15.5t-15.5 24.5z" />
    <glyph glyph-name="Y" unicode="Y" horiz-adv-x="656" 
d="M373 121q0 -32 2.5 -45t7.5 -21t23 -14t59 -8v-34q-10 0 -26 0.5t-34.5 1l-37 1t-33.5 0.5q-16 0 -35.5 -0.5l-39 -1t-37.5 -1t-31 -0.5v34q39 2 58 9t24 15q4 8 6.5 23t2.5 39v178l-170 296q-15 26 -26.5 41t-23 23.5t-25 11t-31.5 4.5v34q12 -1 29.5 -1.5t36 -1
t35.5 -0.5h29q15 0 35 0.5t39.5 1t36 1t23.5 0.5v-34q-44 -1 -58.5 -6.5t-14.5 -19.5q0 -9 4.5 -21t17.5 -36q32 -63 65.5 -120.5t66.5 -118.5q16 28 31 52.5t29.5 49.5t29.5 51t33 57q16 28 23.5 49.5t7.5 35.5q0 11 -13.5 18.5t-56.5 8.5v34q9 -1 22.5 -1.5t28.5 -1
t29.5 -0.5h24.5q12 0 28 0.5l32 1t30 1t22 0.5v-34q-15 -2 -27.5 -6t-25 -15t-27.5 -30.5t-34 -51.5q-18 -29 -40 -63.5t-44.5 -70.5t-43.5 -70.5t-37 -62.5v-182z" />
    <glyph glyph-name="Z" unicode="Z" horiz-adv-x="667" 
d="M595 -3q-5 0 -30 1t-62 1.5t-79.5 1.5t-81.5 1q-40 0 -85 -0.5t-87.5 -1.5t-78 -1.5t-55.5 -1.5l-8 20q120 164 237 327.5t224 317.5q-21 1 -66.5 1.5t-103.5 0.5q-45 0 -75.5 -2.5t-51.5 -7.5t-34 -12t-22 -17q-11 -11 -20.5 -28.5t-26.5 -52.5l-38 9q14 38 26.5 86.5
t22.5 92.5h35q5 -13 11.5 -18t29.5 -7q15 -1 30.5 -1.5t39 -0.5h59h89.5q63 0 117 0.5t93 2.5l9 -18q-120 -174 -233 -334t-213 -303q28 -2 62 -2.5t82 -0.5q54 0 90.5 0.5t61.5 2.5t41 5.5t29 10.5q24 14 41.5 42t35.5 67l38 -8q-5 -15 -12.5 -39.5t-15.5 -50t-15 -48.5
t-10 -35z" />
    <glyph glyph-name="bracketleft" unicode="[" horiz-adv-x="294" 
d="M168 -128h115v-41h-192v921h194v-41h-117v-839z" />
    <glyph glyph-name="backslash" unicode="\" horiz-adv-x="350" 
d="M25 725h59l242 -772h-59z" />
    <glyph glyph-name="bracketright" unicode="]" horiz-adv-x="294" 
d="M125 711h-114v41h192v-921h-194v41h116v839z" />
    <glyph glyph-name="asciicircum" unicode="^" horiz-adv-x="729" 
d="M530 294l-166 348l-167 -348h-73l204 414h74l203 -414h-75z" />
    <glyph glyph-name="underscore" unicode="_" horiz-adv-x="500" 
d="M-10 -209v65h520v-65h-520z" />
    <glyph glyph-name="grave" unicode="`" horiz-adv-x="295" 
d="M145 750l20.5 -41l24 -48t26 -50t25.5 -47l-20 -12q-44 42 -88 88.5t-79 83.5z" />
    <glyph glyph-name="a" unicode="a" horiz-adv-x="507" 
d="M500 45q-32 -29 -56.5 -42t-44.5 -13q-22 0 -40.5 13.5t-34.5 47.5q-32 -26 -65.5 -44.5t-70.5 -18.5q-32 0 -57.5 10.5t-43.5 28t-27.5 39t-9.5 44.5q0 51 39 78q13 9 29.5 16.5t38.5 15t52 15.5t71 18q26 6 34 14.5t8 36.5q0 43 -3.5 68t-11.5 39q-10 16 -28 25t-41 9
q-41 0 -66.5 -16t-25.5 -38q0 -11 5.5 -25t14.5 -28l-73 -38q-12 19 -18.5 33.5t-6.5 30.5q0 18 10.5 33.5t30.5 30.5q42 32 88.5 51.5t78.5 19.5q45 0 71.5 -15t39.5 -34q10 -14 13 -37t3 -55q0 -16 -0.5 -37.5t-1 -46t-1 -50t-0.5 -48.5q0 -71 9.5 -97.5t34.5 -26.5
q11 0 21 4.5t20 9.5zM322 227q-59 -14 -95.5 -25.5t-56 -24t-26 -26.5t-6.5 -32q0 -30 22.5 -51t57.5 -21q26 0 48.5 7t35.5 18q14 11 17 23t3 33v99z" />
    <glyph glyph-name="b" unicode="b" horiz-adv-x="584" 
d="M178 411q51 40 96.5 62t83.5 22t71.5 -17.5t58 -49t39 -74t14.5 -93.5q0 -56 -19 -105.5t-52 -86.5t-78.5 -58.5t-97.5 -21.5q-35 0 -76.5 9t-71.5 24l-24 -36l-28 7q1 21 2 44.5l2 47t1 45v39.5v434q0 30 -3 45t-11 25q-5 6 -15 13.5t-31 20.5v16l134 77l11 -7
q-2 -27 -3 -59.5t-1.5 -64t-1 -59t-0.5 -44.5v-155zM177 174q0 -28 2.5 -50t13.5 -39q14 -22 47 -34.5t69 -12.5q37 0 64.5 13.5t46 38t27.5 58t9 73.5q0 99 -42 153t-112 54q-19 0 -38.5 -6t-36 -15t-29 -20.5t-16.5 -21.5q-3 -9 -4 -22t-1 -33v-136z" />
    <glyph glyph-name="c" unicode="c" horiz-adv-x="450" 
d="M370 379q-30 29 -60.5 42t-62.5 13q-26 0 -49 -10.5t-40.5 -31.5t-28 -53t-10.5 -76q0 -52 14 -90.5t37.5 -64t53 -38t60.5 -12.5q38 0 70 11.5t67 34.5l22 -25q-47 -47 -90.5 -71t-93.5 -24q-45 0 -84 16.5t-68.5 47t-46.5 73.5t-17 95q0 70 24 122.5t61.5 88t83 53.5
t87.5 18q32 0 66 -10t63 -36z" />
    <glyph glyph-name="d" unicode="d" horiz-adv-x="598" 
d="M412 320q0 34 -3 56t-18 36q-18 17 -47 26t-60 9q-71 0 -115 -50.5t-44 -146.5q0 -47 13.5 -83.5t36 -61.5t52 -38t61.5 -13q37 0 66.5 13t43.5 30q9 11 11.5 25t2.5 38v160zM412 602q0 29 -2.5 45t-10.5 25q-9 10 -47 35v16l134 77l11 -7q-2 -27 -3 -59.5t-1.5 -64.5
t-1 -59.5t-0.5 -44.5v-431q0 -29 2 -43t8 -22q5 -6 18 -9t48 -3v-29l-148 -46l-8 6v72q-86 -73 -164 -73q-41 0 -78 16t-65 46t-44.5 72t-16.5 93q0 60 19.5 111t55 89t85.5 59.5t111 21.5q44 0 99 -16z" />
    <glyph glyph-name="e" unicode="e" horiz-adv-x="491" 
d="M125 296q-2 -8 -2 -16v-13q0 -55 14.5 -94.5t39 -64.5t56.5 -37t68 -12q32 0 67.5 11.5t74.5 38.5l21 -26q-46 -48 -95.5 -73.5t-100.5 -25.5q-49 0 -90.5 17.5t-71.5 50.5t-46.5 79t-16.5 103q0 58 18 106.5t49.5 83.5t73 54.5t88.5 19.5q40 0 73.5 -12t58.5 -36.5
t39 -62.5t14 -90zM130 333q157 0 205 6q14 2 22 6t8 20q0 37 -25.5 65t-78.5 28q-54 0 -88.5 -36t-42.5 -89z" />
    <glyph glyph-name="f" unicode="f" horiz-adv-x="318" 
d="M281 -1q-26 2 -58 2.5t-61 0.5q-30 0 -63.5 -1t-56.5 -2v33q43 3 54 10t15.5 22t4.5 53v304h-69v29q15 4 32 14t26 25l5.5 11t4.5 12.5t4 19t4 28.5q8 66 30 109t66 78q29 24 62.5 37t61.5 13q23 0 50.5 -7.5t53.5 -27.5l-52 -74q-28 24 -53 34t-49 10q-21 0 -38.5 -9
t-27.5 -23q-17 -23 -23.5 -57.5t-6.5 -94.5v-78h123v-49h-124v-301q0 -29 2 -44.5t8 -23.5q3 -3 6.5 -6t11.5 -5.5t21.5 -5t35.5 -3.5v-33z" />
    <glyph glyph-name="g" unicode="g" horiz-adv-x="510" 
d="M499 414h-93q11 -15 15 -36.5t4 -43.5q0 -37 -13.5 -67.5t-37.5 -53t-58 -35t-74 -12.5q-14 0 -27 1t-20 1q-8 0 -12 -1.5t-9 -3.5q-13 -8 -20.5 -20.5t-7.5 -21.5q0 -18 18 -34q12 -11 34 -14.5t59 -3.5q40 0 68.5 -0.5t49.5 -2.5t36 -5.5t28 -9.5q27 -12 42.5 -36.5
t15.5 -60.5q0 -45 -21.5 -83.5t-58.5 -66.5t-85.5 -44t-103.5 -16q-45 0 -82 11t-63 29.5t-40 43t-14 50.5q0 12 4 24.5t16 27t34 33t58 43.5q-35 14 -55.5 40t-20.5 53l83 84q-45 24 -66 61t-21 85q0 34 14 65t39.5 54t61 36.5t77.5 13.5q68 0 113 -36h133v-48zM426 -94
q0 22 -9 39t-31.5 28t-61.5 16.5t-99 5.5q-29 0 -41 -2t-22 -9q-29 -20 -40.5 -43t-11.5 -47q0 -21 11 -39.5t30.5 -32t47.5 -21.5t62 -8q36 0 66.5 9t52 24.5t34 36t12.5 43.5zM146 340q0 -68 28.5 -102.5t74.5 -34.5q45 0 68.5 31t23.5 86q0 71 -26 106t-71 35
q-44 0 -71 -30.5t-27 -90.5z" />
    <glyph glyph-name="h" unicode="h" horiz-adv-x="604" 
d="M192 414q63 45 107.5 63.5t75.5 18.5q29 0 55 -12t42 -36q9 -14 14.5 -28.5t8 -33t3.5 -42t1 -54.5v-163q0 -35 1.5 -50.5t7.5 -23.5q3 -4 6.5 -7t10.5 -5.5t19 -4.5t31 -4v-33q-24 1 -51 2t-61 1q-23 0 -56.5 -1t-61.5 -2v33q32 3 44.5 8t18.5 13q8 11 11 45t3 97
q0 22 -0.5 48t-2 51.5t-5 48t-8.5 37.5q-19 49 -83 49q-15 0 -31 -3t-31.5 -8.5t-29 -13t-21.5 -16.5q-12 -13 -15 -31.5t-3 -53.5v-185q0 -32 2.5 -45.5t7.5 -21.5t17 -12t50 -7v-33q-22 1 -53 2t-61 1q-32 0 -62.5 -1t-53.5 -2v33q19 1 30.5 3t18.5 5t10.5 6.5t5.5 7.5
q4 8 6.5 23t2.5 39v486q0 29 -2.5 45t-10.5 26q-5 6 -15.5 13l-31.5 21v16l134 77l11 -7q-2 -27 -3 -59.5t-1.5 -64t-1 -59t-0.5 -44.5v-152z" />
    <glyph glyph-name="i" unicode="i" horiz-adv-x="293" 
d="M199 675q0 -26 -16 -42t-40 -16t-41 16t-17 42q0 27 17.5 43t40.5 16t39.5 -16.5t16.5 -42.5zM196 499q-1 -22 -1.5 -48.5l-1 -53t-0.5 -51v-42.5v-186q0 -31 2.5 -45t7.5 -22q3 -4 6.5 -7t11 -5t19 -4t30.5 -3v-33q-22 1 -53.5 2t-61.5 1q-32 0 -62 -1t-53 -2v33
q18 1 30 3t19 5t10.5 6.5t5.5 7.5q4 8 6.5 23.5t2.5 38.5v180q0 27 -1.5 44.5t-7.5 32.5q-5 10 -17.5 20t-34.5 24v14l132 74z" />
    <glyph glyph-name="j" unicode="j" horiz-adv-x="260" 
d="M181 675q0 -26 -16 -42t-41 -16q-23 0 -40 16t-17 42q0 27 17 43t40 16q24 0 40.5 -16.5t16.5 -42.5zM96 296q0 27 -2 44.5t-8 32.5q-4 10 -16.5 20t-34.5 24v14l133 74l10 -6q-1 -22 -1.5 -48.5l-1 -53t-0.5 -51v-42.5q0 -23 0.5 -61t1 -76.5t1 -71t0.5 -44.5
q0 -31 -2 -53t-6 -39.5t-10 -32.5t-15 -30q-9 -17 -23.5 -34.5t-30.5 -34.5t-33 -32t-31 -27l-25 26q21 20 36 38.5t24 34.5q17 31 25.5 70t8.5 103v256z" />
    <glyph glyph-name="k" unicode="k" horiz-adv-x="569" 
d="M113 602q0 29 -2.5 44.5t-10.5 25.5q-5 6 -15 13.5t-32 21.5v16l134 77l11 -7q-2 -27 -3 -60t-1.5 -65t-1 -59.5t-0.5 -44.5v-295q13 2 28 6t33 20q19 17 36.5 33.5t44.5 45.5q20 22 25 34t5 20t-11.5 14t-43.5 6v33q13 0 30 -0.5t33.5 -1t31.5 -0.5h24q32 0 54.5 0.5
t42.5 1.5v-33q-14 -2 -22.5 -4t-16.5 -4q-25 -8 -44 -22t-37 -31l-117 -108l185 -198l16.5 -16.5t14.5 -13.5q22 -18 63 -19v-33q-12 0 -27.5 0.5t-31.5 1t-31 1t-25 0.5q-9 0 -23.5 -0.5t-31 -1l-33 -1t-29.5 -0.5v33q29 1 36.5 5.5t7.5 12.5q0 7 -4 15.5t-15 20.5
l-108 117q-11 12 -18.5 19.5t-14.5 12t-13 6.5t-14 3v-125q0 -32 2.5 -46t7.5 -22q3 -4 6.5 -7t11 -5t19 -4t30.5 -3v-33q-22 1 -53 2t-61 1q-32 0 -62.5 -1t-53.5 -2v33q18 1 30 2.5t19 4.5t10.5 6.5t5.5 7.5q4 8 6.5 24t2.5 40v485z" />
    <glyph glyph-name="l" unicode="l" horiz-adv-x="300" 
d="M113 605q0 31 -2.5 44.5t-10.5 23.5q-5 6 -15.5 13l-31.5 21v16l135 77l11 -7q-2 -27 -3 -60t-1.5 -65t-1 -59.5t-0.5 -44.5v-446q0 -32 2.5 -45.5t7.5 -21.5t17 -12.5t50 -6.5v-33q-22 1 -53.5 2t-61.5 1q-32 0 -62.5 -1t-53.5 -2v33q18 1 30 2.5t19 4.5t10.5 6.5
t5.5 7.5q4 8 6.5 23.5t2.5 39.5v489z" />
    <glyph glyph-name="m" unicode="m" horiz-adv-x="894" 
d="M482 408q57 45 105 66.5t79 21.5q29 0 54 -13t41 -37q18 -27 23 -62t5 -96v-161q0 -35 1.5 -50.5t7.5 -23.5q3 -4 6.5 -7t10.5 -5.5t19 -4.5t31 -4v-33q-24 1 -51.5 2t-61.5 1q-23 0 -56.5 -1t-61.5 -2v33q18 1 29 3.5t18 5t11 5.5t6 7q9 13 11.5 47.5t2.5 94.5
q0 22 -0.5 48t-2 51.5t-5 48t-8.5 37.5q-10 26 -28.5 37.5t-50.5 11.5q-30 0 -60.5 -12.5t-47.5 -29.5q-7 -7 -10.5 -14t-5 -17t-2 -22.5t-0.5 -30.5v-176q0 -35 1.5 -50.5t7.5 -23.5q3 -4 6.5 -7t10.5 -5.5t19 -4.5t31 -4v-33q-24 1 -50.5 2t-60.5 1q-23 0 -57.5 -1
t-62.5 -2v33q18 1 29 3.5t18 5t11 5.5t6 7q9 13 11.5 47.5t2.5 94.5q0 22 -0.5 48t-2 51.5t-5 48t-8.5 37.5q-19 49 -81 49q-27 0 -58 -11.5t-48 -28.5q-13 -13 -15.5 -31t-2.5 -53v-187q0 -32 2.5 -45.5t7.5 -21.5q4 -8 16.5 -12t50.5 -7v-33q-22 1 -52.5 2t-60.5 1
q-32 0 -63 -1t-54 -2v33q19 1 30.5 3t18.5 5t10.5 6.5t5.5 7.5q4 8 6.5 23t2.5 39v182q0 27 -1.5 43.5t-7.5 31.5q-4 10 -16.5 20t-35.5 24v14l130 74l10 -6v-85q63 45 103.5 63.5t71.5 18.5q45 0 74 -25t40 -63z" />
    <glyph glyph-name="n" unicode="n" horiz-adv-x="605" 
d="M576 -1q-24 1 -51 2t-61 1q-23 0 -57 -1t-62 -2v33q32 3 45 8t19 13q8 11 10.5 44.5t2.5 96.5q0 22 -0.5 48.5t-2 52t-4.5 48t-8 37.5q-19 49 -84 49q-15 0 -31 -3t-31.5 -8.5t-28.5 -13t-21 -16.5q-13 -13 -15.5 -31.5t-2.5 -53.5v-185q0 -32 2.5 -45.5t7.5 -21.5
q4 -8 16.5 -12t50.5 -7v-33q-22 1 -53 2t-61 1q-32 0 -62.5 -1t-53.5 -2v33q19 1 30.5 3t18.5 5t10.5 6.5t5.5 7.5q4 8 6.5 23t2.5 39v182q0 27 -1.5 43.5t-7.5 31.5q-4 10 -16.5 20t-35.5 24v14l130 74l10 -6v-85q63 45 107.5 63.5t75.5 18.5q29 0 54.5 -12t41.5 -36
q9 -14 14.5 -28.5t8.5 -33t4 -42t1 -54.5v-163q0 -35 1.5 -50.5t7.5 -23.5q5 -8 17 -12.5t50 -8.5v-33z" />
    <glyph glyph-name="o" unicode="o" horiz-adv-x="576" 
d="M293 24q73 0 111.5 54t38.5 145q0 53 -11.5 96.5t-32.5 74t-50 47t-63 16.5q-36 0 -64.5 -14.5t-48 -41t-30 -63t-10.5 -81.5q0 -46 9.5 -88t29 -74.5t50 -51.5t71.5 -19zM43 230q0 65 21.5 115t57.5 84t82 51.5t96 17.5q51 0 93.5 -18.5t73.5 -51.5t48.5 -78.5
t17.5 -99.5q0 -59 -19 -108t-52.5 -84t-79 -54.5t-99.5 -19.5q-53 0 -97.5 19.5t-76 52.5t-49 78t-17.5 96z" />
    <glyph glyph-name="p" unicode="p" horiz-adv-x="586" 
d="M182 169q0 -35 2.5 -54.5t16.5 -38.5q14 -18 41 -28t57 -10q72 0 114.5 49.5t42.5 145.5q0 46 -11.5 82t-31.5 61.5t-47.5 39t-60.5 13.5q-37 0 -65.5 -13.5t-42.5 -31.5q-9 -12 -12 -26.5t-3 -28.5v-160zM183 -124q0 -29 2.5 -43.5t7.5 -23.5q4 -8 19 -13.5t57 -7.5v-33
q-26 2 -59 2.5t-62 0.5q-30 0 -62 -1t-55 -2v33q41 3 51 9q6 3 10 7.5t6.5 13t3.5 22t1 33.5v429q0 26 -1 42.5t-8 30.5q-8 17 -51 44v14l129 74l10 -6v-85q48 38 87.5 59t81.5 21q40 0 75 -17.5t61 -48t41 -73t15 -93.5q0 -59 -20 -109t-55 -86t-83 -56t-103 -20
q-22 0 -47.5 4t-53.5 13z" />
    <glyph glyph-name="q" unicode="q" horiz-adv-x="585" 
d="M410 321q0 35 -3 56t-18 38q-17 18 -44 27.5t-58 9.5q-36 0 -65.5 -13.5t-51 -39t-33 -62t-11.5 -81.5q0 -47 12.5 -84t34.5 -62.5t50.5 -38.5t60.5 -13q42 0 72 15.5t44 32.5q5 8 7.5 18.5t2.5 18.5v178zM489 -126q0 -41 5 -56t16 -21q6 -3 17.5 -5t33.5 -4v-33
q-23 1 -53 1.5t-60 0.5h-64t-61 -2v33q43 3 57.5 8.5t18.5 12.5q5 9 8 22.5t3 42.5v190q-48 -39 -87 -55t-79 -16q-41 0 -77.5 16t-64 45.5t-43.5 71t-16 92.5q0 60 20 111t56 88.5t85 58.5t106 21q20 0 56.5 -4t75.5 -22l24 39l30 -6q-2 -21 -3.5 -45t-2 -48.5t-1 -47
t-0.5 -40.5v-449z" />
    <glyph glyph-name="r" unicode="r" horiz-adv-x="389" 
d="M278 -1q-19 1 -52.5 2t-68.5 1q-32 0 -62 -1t-55 -2v33q26 2 38 4t21 10q15 12 15 73v179q0 32 -2 47t-7 28q-5 11 -18 21t-34 23v14l130 74l11 -7v-100q38 55 69 76.5t59 21.5q18 0 38 -9.5t37 -23.5l-53 -78q-18 14 -35 22t-32 8q-33 0 -61 -33q-15 -17 -19 -39t-4 -64
v-158q0 -33 2 -47t8 -22t20.5 -13t54.5 -7v-33z" />
    <glyph glyph-name="s" unicode="s" horiz-adv-x="393" 
d="M310 363q-6 23 -12 38.5t-15 27.5q-14 17 -33 22.5t-46 5.5q-34 0 -57 -19t-23 -47q0 -15 4.5 -27.5t16 -24.5t31.5 -25t50 -28q42 -21 67.5 -40t39.5 -37.5t18.5 -38t4.5 -40.5q0 -30 -12.5 -56.5t-35 -46.5t-54 -31.5t-70.5 -11.5q-34 0 -68.5 6.5t-68.5 23.5
q-6 58 -9 120l33 2q7 -28 14.5 -45t21.5 -31q19 -19 41.5 -25.5t56.5 -6.5q16 0 31.5 4.5t27.5 13t19.5 21t7.5 27.5t-4 27t-16.5 25t-35.5 28t-61 35q-64 34 -91 68.5t-27 82.5q0 30 13 55.5t37 44t56.5 28.5t71.5 10q24 0 52 -4.5t51 -12.5q0 -8 0.5 -21.5t1.5 -30
t2 -33.5t2 -31z" />
    <glyph glyph-name="t" unicode="t" horiz-adv-x="321" 
d="M29 421v27q25 10 43 23.5t32 32t24.5 42t21.5 53.5h30q-1 -3 -1 -17q-1 -12 -1 -38t-2 -74h126v-49h-128q-2 -121 -2 -192.5v-89.5q0 -51 11 -70q14 -25 48 -25q33 0 72 26l17 -23q-61 -58 -131 -58q-29 0 -50 11t-32 29q-8 16 -12 35t-4 55v52.5t1 64.5t1.5 81t2.5 104
h-67z" />
    <glyph glyph-name="u" unicode="u" horiz-adv-x="585" 
d="M559 24l-146 -43l-9 7v75q-28 -23 -52 -38t-45 -23.5t-39 -12t-33 -3.5q-30 0 -55.5 8.5t-44.5 29t-30 55t-11 85.5v200q0 21 -2.5 34.5t-10.5 21.5t-22.5 11.5t-38.5 4.5v33q53 5 96.5 10.5t64.5 9.5q-5 -79 -6.5 -148.5t-1.5 -107.5q0 -57 7 -92.5t20.5 -55.5t33 -27
t45.5 -7q30 0 62.5 13t49.5 36q8 8 11 23.5t3 51.5v188q0 24 -3 38t-11.5 21.5t-24 10.5t-41.5 3v33q48 5 93 10.5t70 10.5q-2 -36 -3 -73.5t-1 -57.5v-228q0 -27 2 -43.5t8 -23.5q6 -8 18.5 -9.5t46.5 -1.5v-29z" />
    <glyph glyph-name="v" unicode="v" horiz-adv-x="526" 
d="M280 97q22 57 48 124t55 143q8 20 10.5 32.5t2.5 21.5q0 13 -13 21.5t-59 10.5v32q24 -1 51 -2t53 -1q25 0 47 0.5t49 2.5v-32q-29 -3 -46.5 -14t-31.5 -45q-9 -19 -22.5 -52t-30 -72t-33.5 -81.5t-32.5 -80.5t-27.5 -69t-18 -47h-44q-17 50 -58 154t-102 248
q-8 19 -15 30t-15 17t-18.5 8.5t-25.5 3.5v32q10 -1 25 -1.5t32 -1t33.5 -0.5h28.5q31 0 61.5 0.5t50.5 2.5v-32q-43 -2 -57 -8.5t-14 -21.5q0 -9 5.5 -25.5t11.5 -33.5q26 -70 51.5 -138.5t47.5 -125.5z" />
    <glyph glyph-name="w" unicode="w" horiz-adv-x="784" 
d="M558 105q18 55 41 121t47 139q7 20 9 33t2 21q0 7 -2.5 12.5t-10 9t-20.5 6t-35 3.5v32q23 -1 50 -2t51 -1q23 0 45 0.5t47 2.5v-32q-32 -3 -47 -13.5t-28 -44.5q-8 -20 -20.5 -53t-27 -72t-30 -81.5t-29.5 -80.5t-25 -69t-16 -47h-43q-14 45 -45 131.5t-77 207.5
q-17 -42 -37 -91.5t-39 -97t-34.5 -88t-23.5 -62.5h-43q-15 50 -50 155t-88 248q-7 19 -14 30t-15 17t-19 8t-27 3v32q9 -1 24.5 -1.5t32.5 -1t33.5 -0.5h27.5q29 0 59.5 1t48.5 2v-32q-40 -2 -52.5 -9t-12.5 -22q0 -8 4 -24.5t9 -33.5q21 -66 43 -133t41 -124q23 60 51 131
t58 147q-6 22 -13 35.5t-15 20t-19 9t-26 3.5v32q9 -1 23.5 -1.5t30.5 -1t31.5 -0.5h26.5q29 0 59.5 0.5t48.5 2.5v-32q-42 -2 -54 -9.5t-12 -22.5q0 -8 4.5 -24t10.5 -33q24 -69 47 -132.5t44 -123.5z" />
    <glyph glyph-name="x" unicode="x" horiz-adv-x="529" 
d="M244 203l-59 -78q-24 -32 -30.5 -46t-6.5 -24t13.5 -16t54.5 -7v-33q-20 2 -52 2.5t-60 0.5q-25 0 -52 -1t-47 -2v33q18 1 31.5 4.5t26.5 13t28 26t36 43.5l94 118l-88 127q-19 27 -32 43.5t-24.5 25.5t-24 12t-29.5 4v33q26 -2 59 -2.5t57 -0.5q29 0 61 1t58 2v-33
q-20 0 -32 -2t-18 -5t-8 -7t-2 -8q0 -11 9.5 -26t26.5 -41l44 -65l49 64q24 31 32 46t8 23q0 12 -11.5 16t-51.5 5v33q52 -3 99 -3q26 0 51.5 1t42.5 2v-33q-15 0 -27.5 -3.5t-26 -13.5t-29.5 -27t-37 -45l-76 -98l102 -143q21 -30 36.5 -46.5t28.5 -25.5t26 -11.5t30 -3.5
v-33q-25 1 -59.5 2t-59.5 1q-30 0 -68 -1t-66 -2v33q22 1 34.5 3t19 5t8.5 7t2 9q0 8 -7 21t-30 48z" />
    <glyph glyph-name="y" unicode="y" 
d="M294 99q21 57 46.5 124t48.5 140q6 19 8.5 33.5t2.5 22.5q0 13 -12.5 21t-57.5 10v32q24 -1 50.5 -2t52.5 -1q25 0 47.5 0.5t48.5 2.5v-32q-30 -2 -47.5 -13.5t-30.5 -45.5q-11 -29 -28 -74.5t-36.5 -96t-39 -101.5t-35.5 -90q-20 -49 -40 -91t-42.5 -78t-48.5 -66.5
t-59 -54.5l-49 62q58 28 103.5 79.5t73.5 120.5l-152 357q-12 27 -20 44.5t-17 28t-21 14.5t-31 5v32q10 -1 25.5 -1.5t32.5 -1t33.5 -0.5h28.5q31 0 60 1t48 2v-32q-43 -2 -55.5 -9t-12.5 -22q0 -8 5.5 -25t11.5 -33q28 -69 56.5 -137.5t51.5 -124.5z" />
    <glyph glyph-name="z" unicode="z" horiz-adv-x="472" 
d="M438 462q-78 -107 -151.5 -209t-151.5 -211q35 -1 61 -1h54q19 0 45 0.5t47 4.5q16 3 28 8.5t22 16t20 27.5t21 44l34 -7q-3 -9 -7.5 -25.5t-10 -35.5t-11.5 -39t-10 -36q-59 1 -106.5 1.5t-96.5 0.5q-23 0 -56.5 -0.5t-65 -0.5t-54.5 -0.5t-26 -0.5l-7 17
q39 52 81.5 109t83 113t77.5 108t66 94q-64 0 -103 -0.5t-61.5 -2.5t-33 -6t-17.5 -11q-8 -8 -15.5 -24.5t-19.5 -46.5l-34 7q6 22 13.5 58.5t13.5 70.5q36 -3 65 -4t54.5 -2t49 -1h49.5q36 0 74.5 0.5t70.5 2.5z" />
    <glyph glyph-name="braceleft" unicode="{" horiz-adv-x="329" 
d="M21 306q32 3 51.5 11.5t29.5 26t13 44.5t3 68v128q0 39 8 71.5t30 56t61.5 36t101.5 12.5v-36q-36 0 -59.5 -5t-37 -20t-18.5 -42t-5 -70v-158q0 -35 -5.5 -58.5t-17.5 -39t-32 -24.5t-50 -16q28 -6 48 -14.5t33 -24t19 -39.5t6 -60v-164q0 -38 5 -62.5t18.5 -39.5
t36.5 -21t59 -6v-37q-55 0 -93 9t-61.5 28.5t-34 50.5t-10.5 74v150q0 33 -4 58t-15 42t-30 26.5t-50 12.5v32z" />
    <glyph glyph-name="bar" unicode="|" horiz-adv-x="246" 
d="M158 -190h-69v950h69v-950z" />
    <glyph glyph-name="braceright" unicode="}" horiz-adv-x="329" 
d="M307 276q-32 -3 -51.5 -11.5t-29.5 -25.5t-13 -44.5t-3 -67.5v-129q0 -39 -8 -71.5t-30 -55.5t-61.5 -35.5t-101.5 -12.5v36q36 0 59.5 5t37 20t19 41.5t5.5 69.5v159q0 35 5.5 58.5t17.5 39t32 24.5t50 16q-28 6 -48 14.5t-33 24t-19 39.5t-6 60v163q0 37 -5.5 62
t-19 40t-36.5 21.5t-59 6.5v37q55 0 93.5 -9.5t61.5 -29t33.5 -50.5t10.5 -74v-149q0 -33 4 -58t15 -42t30 -26.5t50 -12.5v-33z" />
    <glyph glyph-name="asciitilde" unicode="~" horiz-adv-x="729" 
d="M77 271q44 59 82.5 84t83.5 25q11 0 23 -1.5t28 -7t38.5 -15.5t54.5 -27q35 -19 56 -27t41 -8q32 0 59 18.5t59 64.5l49 -39q-41 -56 -80.5 -84t-87.5 -28q-26 0 -54.5 9.5t-70.5 32.5q-27 15 -45.5 24t-31.5 14t-22 6.5t-16 1.5q-30 0 -56.5 -17t-60.5 -63z" />
    <glyph glyph-name="uni00A0" unicode="&#xa0;" horiz-adv-x="224" 
 />
    <glyph glyph-name="exclamdown" unicode="&#xa1;" horiz-adv-x="292" 
d="M147 281q8 -77 15 -152t11.5 -142t7 -123.5t2.5 -96.5h-110q0 40 3.5 96.5t9 123.5t13 142t15.5 152h33zM131 501q25 0 44 -18t19 -47q0 -28 -18.5 -46.5t-44.5 -18.5q-28 0 -45 19.5t-17 46.5q0 26 17.5 45t44.5 19z" />
    <glyph glyph-name="cent" unicode="&#xa2;" horiz-adv-x="487" 
d="M398 407q-25 20 -47.5 32.5t-48.5 17.5v-394q46 0 76.5 14t64.5 38l22 -25q-42 -43 -81 -66t-82 -27v-87h-45v88q-40 4 -74.5 23t-59.5 49t-39.5 70.5t-14.5 88.5q0 58 15.5 104t41.5 80t60 56.5t71 32.5v96h45v-88q5 1 15 1q30 0 64 -9.5t63 -30.5zM143 275q0 -42 9 -76
t24.5 -59.5t36.5 -42t44 -25.5v385q-23 -5 -44 -20t-36.5 -38.5t-24.5 -55t-9 -68.5z" />
    <glyph glyph-name="sterling" unicode="&#xa3;" horiz-adv-x="569" 
d="M152 76q29 0 76 0.5t88 0.5q51 0 90.5 2.5t53.5 7.5t28.5 22t25.5 58l33 -4q-8 -42 -15 -82t-15 -82q-41 0 -83.5 0.5t-79 0.5t-62.5 0.5t-32 0.5h-48h-66.5t-69 -0.5t-55.5 -1.5l16 67q16 2 29.5 5t24.5 6q39 13 65.5 64t26.5 142h-105v47h105q-1 28 -1.5 62.5
t-0.5 62.5q0 50 19 92t51 72.5t73.5 47.5t87.5 17q38 0 72.5 -11t57.5 -27l-46 -70q-32 30 -62.5 44t-61.5 14q-17 0 -34.5 -7t-31 -23.5t-22 -43t-8.5 -66.5v-31v-43.5t-0.5 -47.5t-0.5 -42h147v-47h-150q-2 -25 -8 -52t-19 -54t-35.5 -53t-57.5 -48z" />
    <glyph glyph-name="currency" unicode="&#xa4;" horiz-adv-x="666" 
d="M63 87l73 72q-53 68 -53 152q0 45 12.5 81t38.5 70l-71 72l48 46l71 -71q67 52 152 52q44 0 82 -12t71 -39l71 70l45 -44l-70 -71q29 -35 39.5 -72t10.5 -81q0 -42 -13.5 -81t-40.5 -71l73 -73l-46 -45l-72 72q-34 -26 -69.5 -39t-80.5 -13q-87 0 -154 51l-71 -71z
M334 126q39 0 72.5 14.5t58 39.5t38 59t13.5 73t-14 72.5t-39 58.5t-58 39t-72 14t-72 -14t-57 -39t-37.5 -58.5t-13.5 -72.5t14 -73t38 -59t57 -39.5t72 -14.5z" />
    <glyph glyph-name="yen" unicode="&#xa5;" horiz-adv-x="663" 
d="M415 347l-42 -69v-9h178v-42h-178v-106q0 -32 2.5 -45t7.5 -21t23.5 -14t59.5 -8v-34q-10 0 -27 0.5t-37 1l-40 1t-35 0.5q-16 0 -34 -0.5l-36 -1t-34.5 -1t-29.5 -0.5v34q42 2 60 9t23 15q4 8 6.5 23t2.5 39v108h-179v42h179v8l-42 70h-137v42h111l-98 164
q-15 25 -27 40.5t-23.5 24t-24.5 11.5t-30 4v34q12 -1 29.5 -1.5t36.5 -1t36 -0.5h29q15 0 35 0.5t39.5 1t36 1t23.5 0.5v-34q-44 -2 -59.5 -7t-15.5 -19q0 -9 4 -21t18 -36q18 -31 33.5 -58t30.5 -53t30 -53t32 -57l33 55t29 48.5t29 47.5t32 54q17 28 20.5 45t3.5 27
q0 12 -14.5 19t-58.5 8v34q9 -1 23.5 -1.5t30.5 -1t31.5 -0.5h25.5q12 0 28 0.5l32 1t30 1t22 0.5v-34q-15 -1 -26.5 -3.5t-23 -11.5t-25 -26t-33.5 -48l-100 -155h110v-42h-136z" />
    <glyph glyph-name="brokenbar" unicode="&#xa6;" horiz-adv-x="246" 
d="M88 356v350h69v-350h-69zM88 -144v350h69v-350h-69z" />
    <glyph glyph-name="section" unicode="&#xa7;" horiz-adv-x="489" 
d="M336 94q23 -23 36.5 -42t20 -35.5t8.5 -31t2 -29.5q0 -28 -14.5 -56.5t-40 -51.5t-61.5 -37.5t-79 -14.5q-41 0 -79.5 10.5t-71.5 36.5l45 63q31 -26 67 -42.5t75 -16.5t61 21t22 55q0 13 -3.5 27t-14.5 31t-30.5 39.5t-52.5 52.5l-93 87q-32 30 -50.5 54.5t-27.5 45
t-11 38t-2 32.5q0 90 112 145q-30 33 -40.5 63t-10.5 59t12.5 55.5t36 47t56.5 33t74 12.5q34 0 72 -9.5t67 -32.5l-47 -62q-26 26 -57.5 42t-64.5 16q-32 0 -52 -19.5t-20 -51.5q0 -16 3.5 -30.5t13.5 -30.5t28 -35t47 -43l77 -65q36 -30 57 -54t32 -44.5t14.5 -38.5
t3.5 -37q0 -34 -27 -76t-93 -80zM311 119q40 26 53.5 50.5t13.5 47.5q0 10 -2 22t-10.5 27t-25.5 34.5t-46 45.5l-55 50q-16 14 -32 28.5t-28 26.5q-28 -14 -44 -38.5t-16 -54.5q0 -29 14 -56t51 -62l54 -51q17 -16 35 -33t38 -37z" />
    <glyph glyph-name="dieresis" unicode="&#xa8;" horiz-adv-x="292" 
d="M65 580q-19 0 -33 14t-14 35q0 20 14 34.5t34 14.5t33 -14.5t13 -34.5t-13.5 -34.5t-33.5 -14.5zM227 580q-19 0 -33 14t-14 35q0 20 14 34.5t34 14.5t33 -14.5t13 -34.5t-13.5 -34.5t-33.5 -14.5z" />
    <glyph glyph-name="copyright" unicode="&#xa9;" horiz-adv-x="825" 
d="M784 359q0 -79 -28.5 -147.5t-78 -118.5t-116 -79t-143.5 -29q-81 0 -149.5 28.5t-118.5 78t-78.5 117.5t-28.5 146q0 77 29 143.5t79 116t118.5 78t146.5 28.5q76 0 143.5 -28t117 -77t78.5 -115t29 -142zM740 351q0 71 -24 132.5t-67 106.5t-102.5 70.5t-129.5 25.5
q-71 0 -131 -25.5t-104 -70.5t-69 -105.5t-25 -130.5q0 -69 25.5 -129.5t70 -105.5t105 -71t130.5 -26q68 0 126.5 25.5t102 70t68 104.5t24.5 129zM273 363q0 -97 45 -151t123 -54q47 0 76 22.5t43 84.5l32 -4q-2 -13 -5 -28.5t-6 -30.5t-6.5 -29t-6.5 -23
q-11 -6 -26.5 -11t-34 -8.5t-37.5 -5.5t-37 -2q-56 0 -100 16.5t-75 46.5t-47 73t-16 97q0 50 17 93t48 74.5t74 49t95 17.5q32 0 58 -3t52 -11q18 -4 37 -11q3 -32 5 -58.5t5 -49.5l-32 -2q-6 27 -14.5 46.5t-22.5 31.5t-35 18t-52 6q-34 0 -62.5 -13t-49.5 -37.5t-33 -61
t-12 -82.5z" />
    <glyph glyph-name="ordfeminine" unicode="&#xaa;" horiz-adv-x="321" 
d="M317 320q-17 -20 -34.5 -29t-31.5 -9q-17 0 -28.5 8.5t-19.5 30.5q-22 -18 -43.5 -29t-40.5 -11q-35 0 -57 22t-22 54q0 29 24 46q14 10 38 19.5t74 20.5q15 4 19.5 9t4.5 25q0 28 -2 41t-7 21q-10 16 -41 16q-19 0 -32 -8t-13 -19q0 -6 2.5 -12.5t7.5 -15.5l-49 -25
q-8 14 -11.5 21.5t-3.5 15.5q0 11 6 20t20 18q26 18 54.5 30t49.5 12q23 0 40 -8.5t25 -19.5q7 -9 9 -23.5t2 -33.5q0 -42 -1 -70.5t-1 -40.5q0 -43 3.5 -59t20.5 -16q11 0 25 11zM188 420q-28 -6 -45 -12t-26.5 -13t-12.5 -15t-3 -18q0 -17 13 -28.5t33 -11.5q13 0 25 4
t19 12q6 7 7.5 16.5t1.5 29.5v39z" />
    <glyph glyph-name="guillemotleft" unicode="&#xab;" horiz-adv-x="415" 
d="M233 81l-21 -18q-23 21 -48 44t-48.5 45.5t-45.5 43t-39 36.5v28q48 42 96 85t86 79l20 -17l-123 -159zM392 81l-21 -18q-23 21 -48 44t-48.5 45.5t-45.5 43t-39 36.5v28q48 42 96 85t86 79l20 -17l-123 -159z" />
    <glyph glyph-name="logicalnot" unicode="&#xac;" horiz-adv-x="729" 
d="M549 35v238h-475v64h541v-302h-66z" />
    <glyph glyph-name="uni00AD" unicode="&#xad;" horiz-adv-x="311" 
d="M36 219v74h239v-74h-239z" />
    <glyph glyph-name="registered" unicode="&#xae;" horiz-adv-x="825" 
d="M784 359q0 -79 -28.5 -147.5t-78 -118.5t-116 -79t-143.5 -29q-81 0 -149.5 28.5t-118.5 78t-78.5 117.5t-28.5 146q0 77 29 143.5t79 116t118.5 78t146.5 28.5q76 0 143.5 -28t117 -77t78.5 -115t29 -142zM740 351q0 71 -24 132.5t-67 106.5t-102.5 70.5t-129.5 25.5
q-71 0 -131 -25.5t-104 -70.5t-69 -105.5t-25 -130.5q0 -69 25.5 -129.5t70 -105.5t105 -71t130.5 -26q68 0 126.5 25.5t102 70t68 104.5t24.5 129zM412 345q-16 0 -28 0.5t-23 1.5v-114q0 -20 1 -28.5t5 -13.5q3 -5 13.5 -8t34.5 -4v-29q-13 1 -39 1.5t-46 0.5h-22.5
t-25 -0.5t-24 -1t-18.5 -0.5v29q24 2 34.5 5.5t13.5 8.5q2 5 4 14.5t2 23.5v270q0 34 -9 43q-5 6 -16.5 8t-28.5 4v28q4 0 15 -0.5t24 -1t26.5 -0.5h24.5h15.5t19 0.5t18.5 0.5h15q37 0 69.5 -5t56.5 -18.5t37.5 -36t13.5 -56.5q0 -38 -24.5 -67.5t-69.5 -44.5
q23 -40 42 -70t37 -53q23 -27 42 -40t42 -19l-3 -28q-38 1 -69.5 10.5t-53.5 29.5q-19 16 -45 52t-61 108zM361 378q8 -1 19 -1.5t22 -0.5q53 0 76.5 23t23.5 64q0 47 -24.5 68t-86.5 21q-8 0 -16.5 -0.5t-13.5 -1.5v-172z" />
    <glyph glyph-name="macron" unicode="&#xaf;" horiz-adv-x="292" 
d="M16 642h260v-61h-260v61z" />
    <glyph glyph-name="degree" unicode="&#xb0;" horiz-adv-x="343" 
d="M172 720q28 0 53.5 -8.5t45 -25.5t31 -43t11.5 -62q0 -33 -12 -59t-31.5 -44t-45 -27.5t-53.5 -9.5t-53.5 9t-45 26.5t-31 43.5t-11.5 60q0 33 11.5 59t31 44t45.5 27.5t54 9.5zM172 678q-37 0 -61 -27.5t-24 -69.5t23 -70t62 -28q40 0 63 27.5t23 69.5t-23 70t-63 28z
" />
    <glyph glyph-name="plusminus" unicode="&#xb1;" horiz-adv-x="729" 
d="M331 130v233h-237v64h236v232h68v-232h237v-64h-237v-233h-67zM94 0v64h541v-64h-541z" />
    <glyph glyph-name="uni00B2" unicode="&#xb2;" horiz-adv-x="365" 
d="M42 770q23 45 60 69t80 24q63 0 92 -30t29 -79q0 -38 -17.5 -72t-44.5 -64.5t-60 -58t-64 -51.5h39t55.5 0.5t59.5 1t51 1.5l-13 -61q-37 1 -74 1.5t-76 0.5h-50t-84 -2l-2 20q17 13 38 30t31 26q42 39 69 70t42 57.5t21 50.5t6 49q0 26 -14 47.5t-47 21.5q-57 0 -99 -66
z" />
    <glyph glyph-name="uni00B3" unicode="&#xb3;" horiz-adv-x="365" 
d="M190 685q50 0 82 -23.5t32 -68.5q0 -38 -23.5 -68.5t-60 -52t-80 -35t-82.5 -17.5l-6 46q27 0 59 4t59 16t45 34t18 59q0 41 -19.5 57t-51.5 16q-15 0 -31 -2.5t-34 -8.5l-9 29q28 8 43 13.5t26 11.5q31 16 40.5 36t9.5 43t-13.5 35.5t-35.5 12.5q-17 0 -39.5 -10
t-50.5 -36l-20 22q35 37 69.5 51t61.5 14q49 0 73 -23t24 -57q0 -37 -24 -60.5t-62 -37.5z" />
    <glyph glyph-name="acute" unicode="&#xb4;" horiz-adv-x="295" 
d="M241 724q-34 -37 -78.5 -83t-88.5 -89l-20 12q12 22 25.5 47.5t26.5 50t24.5 47.5t19.5 41z" />
    <glyph glyph-name="mu" unicode="&#xb5;" horiz-adv-x="585" 
d="M167 22q0 -27 0.5 -61t1.5 -68.5t3 -67.5t4 -58l-83 -10q3 114 3 228v379q0 21 -2.5 34.5t-10.5 21.5t-22.5 11.5t-38.5 4.5v33q53 5 96 10.5t64 9.5q-5 -79 -6.5 -148t-1.5 -107q0 -57 7 -92t20.5 -55t33 -27t44.5 -7q31 0 63.5 12t49.5 35q8 8 11 23.5t3 51.5v188
q0 24 -3 38t-11.5 21.5t-24 10.5t-41.5 3v33q48 5 93 10.5t70 10.5q-2 -36 -3 -73.5t-1 -57.5v-228q0 -27 2 -43.5t8 -23.5q6 -8 18.5 -9.5t46.5 -1.5v-29l-146 -43l-9 7v75q-25 -23 -46.5 -37.5t-40 -23t-35.5 -11.5t-32 -3q-24 0 -44.5 7.5t-39.5 26.5z" />
    <glyph glyph-name="paragraph" unicode="&#xb6;" horiz-adv-x="599" 
d="M562 673q-25 0 -40.5 -2.5t-24.5 -13t-12 -32t-3 -59.5q0 -10 0.5 -45t1 -83t1 -103t1 -105.5t1 -90.5t0.5 -58q0 -57 -7 -97t-19.5 -69.5t-29 -51.5t-34.5 -43q-32 -36 -68.5 -48.5t-62.5 -12.5q-24 0 -44.5 5.5t-34.5 12.5l35 75q15 -10 41 -16.5t46 -6.5q29 0 54 15.5
t33 55.5q3 14 5 39t3 57.5t1.5 69t0.5 74.5v101t-0.5 123t-1 122.5t-1.5 99.5q-2 47 -11.5 64.5t-38.5 17.5q-14 0 -28 -5t-28 -25q-19 -28 -25 -78.5t-6 -119.5q0 -44 3.5 -81.5t15.5 -64.5t34.5 -43t61.5 -16v-38q-12 -2 -34 -2.5t-35 -0.5q-48 0 -94 14t-82 44t-57.5 78
t-21.5 117q0 59 18.5 107t54 81.5t87 52t117.5 18.5q19 0 45 -0.5t54 -0.5q35 0 64.5 0.5t64.5 2.5v-35z" />
    <glyph glyph-name="periodcentered" unicode="&#xb7;" horiz-adv-x="245" 
d="M122 200q-24 0 -43 18t-19 47q0 28 18.5 46.5t44.5 18.5q27 0 44.5 -19.5t17.5 -46.5q0 -26 -18 -45t-45 -19z" />
    <glyph glyph-name="cedilla" unicode="&#xb8;" horiz-adv-x="292" 
d="M53 -219q24 0 45.5 2t38 9t26 19.5t9.5 32.5q0 23 -17.5 36.5t-59.5 13.5l42 109h36l-25 -62q44 -3 67.5 -22t23.5 -56q0 -32 -17.5 -54.5t-44 -37.5t-57.5 -23t-57 -10z" />
    <glyph glyph-name="uni00B9" unicode="&#xb9;" horiz-adv-x="365" 
d="M219 531q0 -18 2 -28t9 -15t20.5 -7t36.5 -4v-28q-8 0 -21.5 0.5t-28.5 1t-29.5 0.5h-24.5q-22 0 -50 -0.5t-46 -1.5v28q23 2 36.5 4t20 7.5t8.5 15.5t2 28v209q0 37 -4 46q-2 3 -5 6t-10 4.5t-19 3t-31 1.5v27q30 4 65.5 14t61.5 24l10 -6q-1 -8 -2 -35.5t-1 -56.5v-238
z" />
    <glyph glyph-name="ordmasculine" unicode="&#xba;" horiz-adv-x="367" 
d="M329 443q0 -36 -11 -66t-31 -51.5t-47 -33t-58 -11.5q-30 0 -56.5 11.5t-46 32t-30.5 49t-11 63.5q0 34 11.5 62.5t31 49t46.5 32t57 11.5q31 0 58 -10.5t46 -30t30 -47t11 -61.5zM266 431q0 61 -23 96t-60 35t-59 -32t-22 -90q0 -57 23.5 -93t63.5 -36q39 0 58 34.5
t19 85.5z" />
    <glyph glyph-name="guillemotright" unicode="&#xbb;" horiz-adv-x="415" 
d="M182 406l21 18q23 -22 48 -45.5t48.5 -45.5t45.5 -42.5t39 -36.5v-27q-48 -42 -96 -85.5t-86 -78.5l-20 17l123 159zM23 406l21 18q23 -22 48 -45.5t48.5 -45.5t45.5 -42.5t39 -36.5v-27q-48 -42 -96 -85.5t-86 -78.5l-20 17l123 159z" />
    <glyph glyph-name="onequarter" unicode="&#xbc;" horiz-adv-x="797" 
d="M747 165v-45h-63v-124h-64v124h-82t-96 -1l-5 18q54 72 110 142t108 133l30 -1v-30t-0.5 -60.5t-0.5 -77v-78.5h63zM620 325q-14 -20 -44.5 -58.5t-77.5 -101.5h122v160zM292 -2h-52l267 671h53zM213 346q0 -18 2 -28t9 -15t20.5 -7t36.5 -4v-28q-8 0 -21.5 0.5t-28.5 1
t-29.5 0.5h-24.5q-22 0 -50 -0.5t-46 -1.5v28q23 2 36.5 4t20 7.5t8.5 15.5t2 28v209q0 37 -4 46q-3 7 -15 10.5t-49 4.5v27q29 4 65 14t62 24l9 -6q-1 -8 -2 -35.5t-1 -56.5v-238z" />
    <glyph glyph-name="onehalf" unicode="&#xbd;" horiz-adv-x="797" 
d="M469 320q23 45 60 69t79 24q63 0 92 -30t29 -79q0 -38 -17.5 -72t-44.5 -64.5t-60 -58t-64 -51.5h39t56 0.5l60 1t51 1.5l-14 -61q-37 1 -73.5 1.5t-75.5 0.5h-50t-84 -2l-2 20q8 6 18 14t19.5 16t17.5 15t13 11q41 38 68 69t42.5 57.5t22 50.5t6.5 50t-14 47.5t-48 21.5
q-58 0 -98 -66zM282 -2h-53l267 671h54zM209 346q0 -18 2 -28t9 -15t20.5 -7t36.5 -4v-28q-8 0 -21.5 0.5t-28.5 1t-29.5 0.5h-24.5q-22 0 -50 -0.5t-46 -1.5v28q23 2 36.5 4t20 7.5t8.5 15.5t2 28v209q0 37 -4 46q-3 7 -15 10.5t-49 4.5v27q29 4 65 14t62 24l9 -6
q-1 -8 -2 -35.5t-1 -56.5v-238z" />
    <glyph glyph-name="threequarters" unicode="&#xbe;" horiz-adv-x="797" 
d="M739 165v-45h-63v-124h-63v124h-82t-96 -1l-5 18q54 72 110 142t108 133l29 -1v-30t-0.5 -60.5t-0.5 -77v-78.5h63zM613 325q-14 -20 -44.5 -58.5t-77.5 -101.5h122v160zM193 500q50 0 82.5 -23.5t32.5 -68.5q0 -38 -24 -68.5t-60.5 -52t-80 -35t-82.5 -17.5l-6 46
q27 0 59 4t59 16t45 34t18 59q0 41 -19.5 57t-51.5 16q-15 0 -31 -2.5t-34 -8.5l-9 29q29 8 43.5 13.5t25.5 11.5q31 16 40.5 36t9.5 43t-13.5 35.5t-34.5 12.5q-18 0 -40.5 -10t-50.5 -36l-20 22q35 37 69.5 51t61.5 14q49 0 73.5 -23t24.5 -57q0 -37 -24.5 -60.5
t-62.5 -37.5zM292 -2h-52l267 671h53z" />
    <glyph glyph-name="questiondown" unicode="&#xbf;" horiz-adv-x="372" 
d="M241 282q1 -19 2.5 -41t2.5 -43t1.5 -38t0.5 -26q0 -21 -9 -34.5t-35 -23.5q-24 -9 -44 -17.5t-34 -20t-22 -28.5t-8 -42q0 -28 10 -50t34 -38t63 -24.5t97 -8.5v-83q-20 1 -44 5t-48.5 11.5t-49 19.5t-43.5 28q-48 39 -67.5 84t-19.5 92q0 58 33.5 95.5t105.5 63.5
q20 7 25.5 18.5t7.5 25.5q2 12 3 31.5t3 43.5h35zM221 501q24 0 43 -18t19 -47t-18.5 -47t-44.5 -18q-27 0 -44.5 19t-17.5 46t18 46t45 19z" />
    <glyph glyph-name="Agrave" unicode="&#xc0;" horiz-adv-x="716" 
d="M706 -1q-87 3 -137 3q-48 0 -133 -3v33q29 1 45.5 3.5t25 7t11 11t2.5 15.5q0 11 -5.5 32t-11.5 38l-45 137h-231l-50 -139q-8 -20 -13 -39.5t-5 -28.5q0 -7 2.5 -13t11 -10.5t25 -8t45.5 -5.5v-33q-37 2 -66.5 2.5t-48.5 0.5t-51.5 -0.5t-72.5 -2.5v33q20 3 35.5 6.5
t27.5 12.5t22 24t20 41l152 389q11 29 20 53.5t17.5 47t16 45t15.5 48.5l73 21q15 -49 32 -97.5t34 -99.5l136 -399q9 -26 17 -43t19 -27t26.5 -15t38.5 -7v-33zM243 318h201l-96 286zM297 931q12 -16 29.5 -36.5t36 -42.5t38 -44t36.5 -40l-17 -17q-51 32 -106.5 68.5
t-97.5 66.5z" />
    <glyph glyph-name="Aacute" unicode="&#xc1;" horiz-adv-x="716" 
d="M706 -1q-87 3 -137 3q-48 0 -133 -3v33q29 1 45.5 3.5t25 7t11 11t2.5 15.5q0 11 -5.5 32t-11.5 38l-45 137h-231l-50 -139q-8 -20 -13 -39.5t-5 -28.5q0 -7 2.5 -13t11 -10.5t25 -8t45.5 -5.5v-33q-37 2 -66.5 2.5t-48.5 0.5t-51.5 -0.5t-72.5 -2.5v33q20 3 35.5 6.5
t27.5 12.5t22 24t20 41l152 389q11 29 20 53.5t17.5 47t16 45t15.5 48.5l73 21q15 -49 32 -97.5t34 -99.5l136 -399q9 -26 17 -43t19 -27t26.5 -15t38.5 -7v-33zM243 318h201l-96 286zM525 886q-42 -30 -97.5 -66.5t-106.5 -68.5l-17 17q17 18 36.5 40t38 44t36 42.5
t29.5 36.5z" />
    <glyph glyph-name="Acircumflex" unicode="&#xc2;" horiz-adv-x="716" 
d="M706 -1q-87 3 -137 3q-48 0 -133 -3v33q29 1 45.5 3.5t25 7t11 11t2.5 15.5q0 11 -5.5 32t-11.5 38l-45 137h-231l-50 -139q-8 -20 -13 -39.5t-5 -28.5q0 -7 2.5 -13t11 -10.5t25 -8t45.5 -5.5v-33q-37 2 -66.5 2.5t-48.5 0.5t-51.5 -0.5t-72.5 -2.5v33q20 3 35.5 6.5
t27.5 12.5t22 24t20 41l152 389q11 29 20 53.5t17.5 47t16 45t15.5 48.5l73 21q15 -49 32 -97.5t34 -99.5l136 -399q9 -26 17 -43t19 -27t26.5 -15t38.5 -7v-33zM243 318h201l-96 286zM496 744q-34 24 -66 47t-61 43q-12 -8 -28 -19.5t-33 -24t-34.5 -25t-30.5 -21.5l-21 19
q32 35 65 70t62 71h46q32 -39 59.5 -70t61.5 -69z" />
    <glyph glyph-name="Atilde" unicode="&#xc3;" horiz-adv-x="716" 
d="M706 -1q-87 3 -137 3q-48 0 -133 -3v33q29 1 45.5 3.5t25 7t11 11t2.5 15.5q0 11 -5.5 32t-11.5 38l-45 137h-231l-50 -139q-8 -20 -13 -39.5t-5 -28.5q0 -7 2.5 -13t11 -10.5t25 -8t45.5 -5.5v-33q-37 2 -66.5 2.5t-48.5 0.5t-51.5 -0.5t-72.5 -2.5v33q20 3 35.5 6.5
t27.5 12.5t22 24t20 41l152 389q11 29 20 53.5t17.5 47t16 45t15.5 48.5l73 21q15 -49 32 -97.5t34 -99.5l136 -399q9 -26 17 -43t19 -27t26.5 -15t38.5 -7v-33zM243 318h201l-96 286zM405 850q16 -7 28.5 -9.5t19.5 -2.5q16 0 29 15t25 36l24 -11q-25 -57 -46.5 -81.5
t-42.5 -24.5q-11 0 -25 3.5t-38 12.5l-34 13q-15 5 -25 8t-20 3q-19 0 -31.5 -10.5t-26.5 -37.5l-24 10q8 19 18 38t21.5 34t25 24t28.5 9q17 0 30.5 -5t27.5 -10z" />
    <glyph glyph-name="Adieresis" unicode="&#xc4;" horiz-adv-x="716" 
d="M706 -1q-87 3 -137 3q-48 0 -133 -3v33q29 1 45.5 3.5t25 7t11 11t2.5 15.5q0 11 -5.5 32t-11.5 38l-45 137h-231l-50 -139q-8 -20 -13 -39.5t-5 -28.5q0 -7 2.5 -13t11 -10.5t25 -8t45.5 -5.5v-33q-37 2 -66.5 2.5t-48.5 0.5t-51.5 -0.5t-72.5 -2.5v33q20 3 35.5 6.5
t27.5 12.5t22 24t20 41l152 389q11 29 20 53.5t17.5 47t16 45t15.5 48.5l73 21q15 -49 32 -97.5t34 -99.5l136 -399q9 -26 17 -43t19 -27t26.5 -15t38.5 -7v-33zM243 318h201l-96 286zM278 778q-19 0 -33 14.5t-14 35.5q0 20 14 34.5t34 14.5q21 0 33.5 -14.5t12.5 -34.5
t-13 -35t-34 -15zM460 778q-19 0 -33 14.5t-14 35.5q0 20 14 34.5t34 14.5t33 -14.5t13 -34.5t-13.5 -35t-33.5 -15z" />
    <glyph glyph-name="Aring" unicode="&#xc5;" horiz-adv-x="716" 
d="M706 -1q-87 3 -137 3q-48 0 -133 -3v33q29 1 45.5 3.5t25 7t11 11t2.5 15.5q0 11 -5.5 32t-11.5 38l-45 137h-231l-50 -139q-8 -20 -13 -39.5t-5 -28.5q0 -7 2.5 -13t11 -10.5t25 -8t45.5 -5.5v-33q-37 2 -66.5 2.5t-48.5 0.5t-51.5 -0.5t-72.5 -2.5v33q20 3 35.5 6.5
t27.5 12.5t22 24t20 41l152 389q11 29 20 53.5t17.5 47t16 45t15.5 48.5l73 21q15 -49 32 -97.5t34 -99.5l136 -399q9 -26 17 -43t19 -27t26.5 -15t38.5 -7v-33zM243 318h201l-96 286zM364 942q44 0 70 -26t26 -68t-28 -69.5t-69 -27.5q-40 0 -68.5 25.5t-28.5 68.5
q0 21 8 39t21.5 30.5t31 20t37.5 7.5zM363 908q-22 0 -38 -16t-16 -45q0 -26 15 -43.5t39 -17.5q23 0 39 16.5t16 44.5q0 29 -16 45t-39 16z" />
    <glyph glyph-name="AE" unicode="&#xc6;" horiz-adv-x="1000" 
d="M526 287h-238l-70 -117q-24 -41 -36 -64t-12 -37q0 -7 2.5 -13t11.5 -10.5t26.5 -7.5t46.5 -5v-34q-37 2 -73 2.5t-55 0.5t-54.5 -0.5t-74.5 -2.5v34q21 2 36 6.5t29.5 17t32.5 36.5t45 66l216 336q10 16 21.5 34t21 34.5t17.5 30.5t12 23q5 10 5.5 17.5t0.5 11.5
q0 11 -13 18q-8 5 -27 6.5t-47 2.5v34q11 0 45 -0.5t73.5 -1t75.5 -1t52 -0.5h83.5t85 0.5t80 1t70.5 1.5q3 -49 6.5 -87t5.5 -60l-36 -4q-8 36 -19 57t-25 33q-15 12 -37.5 17t-73.5 5h-63t-55 -2v-277q48 0 84.5 2t50.5 7q13 4 24 20.5t19 63.5h35q0 -8 -1 -22t-2 -31
t-1.5 -35.5t-0.5 -34.5q0 -34 0.5 -61.5t1.5 -42.5h-35q-6 45 -16 61t-23 22q-14 7 -50 9.5t-86 2.5v-223q0 -14 1.5 -29.5t6.5 -24.5q11 -19 48.5 -26t89.5 -7q54 0 83.5 11t47.5 36q11 16 22.5 37.5t20.5 44.5l34 -8q-11 -45 -22 -84.5t-23 -77.5q-31 0 -70.5 0.5t-82 1
l-85 1t-79.5 0.5q-16 0 -39.5 -0.5t-48.5 -1t-46.5 -1t-32.5 -0.5v34q39 2 54 8.5t20 14.5q4 8 6.5 23.5t2.5 39.5v168zM526 329v302q0 14 -2.5 18t-6.5 4q-5 0 -9.5 -4.5t-16.5 -24.5l-180 -295h215z" />
    <glyph glyph-name="Ccedilla" unicode="&#xc7;" horiz-adv-x="741" 
d="M319 -227q25 0 47.5 2.5t39.5 9t27 19.5t10 34q0 24 -18 38t-63 14l38 97q-83 6 -147 36t-108.5 78.5t-67.5 113.5t-23 140q0 79 27.5 145.5t77 115t118.5 76t153 27.5q51 0 92 -6t85 -17q15 -4 30.5 -8.5t27.5 -8.5q4 -50 7.5 -86t8.5 -72l-40 -4q-11 43 -26 73
t-39.5 49t-59.5 28t-85 9q-62 0 -112.5 -21.5t-86.5 -62t-55.5 -99t-19.5 -131.5q0 -75 20.5 -136t58 -104.5t91.5 -67.5t121 -24q38 0 69.5 7t57 25.5t45 50t31.5 79.5l40 -6q-8 -42 -17.5 -84.5t-21.5 -74.5q-17 -9 -42 -16.5t-54 -13t-60 -8.5t-59 -3l-18 -47
q45 -3 69.5 -23t24.5 -58q0 -33 -18.5 -56.5t-46.5 -39.5t-60 -24t-60 -11z" />
    <glyph glyph-name="Egrave" unicode="&#xc8;" horiz-adv-x="605" 
d="M214 2q-16 0 -39.5 -0.5t-48.5 -1t-46.5 -1t-32.5 -0.5v34q39 2 54.5 8.5t20.5 14.5q4 8 6.5 23.5t2.5 39.5v468q0 24 -2.5 39.5t-6.5 23.5q-5 8 -20.5 14.5t-54.5 8.5v34q11 0 32 -0.5t44.5 -1t46.5 -1t39 -0.5h82t82.5 0.5t77.5 1t69 1.5q3 -50 6 -87.5t6 -59.5l-36 -4
q-8 36 -19 57t-25 33q-15 12 -38 17t-73 5h-63.5t-55.5 -2v-277q48 0 85 2t51 7q13 4 24 20.5t19 63.5h34q0 -8 -1 -22t-2 -31t-1.5 -35.5t-0.5 -34.5q0 -34 0.5 -61.5t1.5 -42.5h-34q-6 45 -16 61t-23 22q-14 7 -50.5 9.5t-86.5 2.5v-223q0 -14 1.5 -29.5t6.5 -24.5
q11 -19 48.5 -26t90.5 -7q54 0 83.5 11t47.5 36q11 16 22.5 37.5t20.5 44.5l34 -8q-11 -45 -22 -84.5t-23 -77.5q-31 0 -70.5 0.5t-82.5 1t-85.5 1t-79.5 0.5zM232 931q12 -16 29.5 -36.5t36 -42.5t38 -44t36.5 -40l-17 -17q-51 32 -106.5 68.5t-97.5 66.5z" />
    <glyph glyph-name="Eacute" unicode="&#xc9;" horiz-adv-x="605" 
d="M214 2q-16 0 -39.5 -0.5t-48.5 -1t-46.5 -1t-32.5 -0.5v34q39 2 54.5 8.5t20.5 14.5q4 8 6.5 23.5t2.5 39.5v468q0 24 -2.5 39.5t-6.5 23.5q-5 8 -20.5 14.5t-54.5 8.5v34q11 0 32 -0.5t44.5 -1t46.5 -1t39 -0.5h82t82.5 0.5t77.5 1t69 1.5q3 -50 6 -87.5t6 -59.5l-36 -4
q-8 36 -19 57t-25 33q-15 12 -38 17t-73 5h-63.5t-55.5 -2v-277q48 0 85 2t51 7q13 4 24 20.5t19 63.5h34q0 -8 -1 -22t-2 -31t-1.5 -35.5t-0.5 -34.5q0 -34 0.5 -61.5t1.5 -42.5h-34q-6 45 -16 61t-23 22q-14 7 -50.5 9.5t-86.5 2.5v-223q0 -14 1.5 -29.5t6.5 -24.5
q11 -19 48.5 -26t90.5 -7q54 0 83.5 11t47.5 36q11 16 22.5 37.5t20.5 44.5l34 -8q-11 -45 -22 -84.5t-23 -77.5q-31 0 -70.5 0.5t-82.5 1t-85.5 1t-79.5 0.5zM474 886q-42 -30 -97.5 -66.5t-106.5 -68.5l-17 17q17 18 36.5 40t38 44t36 42.5t29.5 36.5z" />
    <glyph glyph-name="Ecircumflex" unicode="&#xca;" horiz-adv-x="605" 
d="M214 2q-16 0 -39.5 -0.5t-48.5 -1t-46.5 -1t-32.5 -0.5v34q39 2 54.5 8.5t20.5 14.5q4 8 6.5 23.5t2.5 39.5v468q0 24 -2.5 39.5t-6.5 23.5q-5 8 -20.5 14.5t-54.5 8.5v34q11 0 32 -0.5t44.5 -1t46.5 -1t39 -0.5h82t82.5 0.5t77.5 1t69 1.5q3 -50 6 -87.5t6 -59.5l-36 -4
q-8 36 -19 57t-25 33q-15 12 -38 17t-73 5h-63.5t-55.5 -2v-277q48 0 85 2t51 7q13 4 24 20.5t19 63.5h34q0 -8 -1 -22t-2 -31t-1.5 -35.5t-0.5 -34.5q0 -34 0.5 -61.5t1.5 -42.5h-34q-6 45 -16 61t-23 22q-14 7 -50.5 9.5t-86.5 2.5v-223q0 -14 1.5 -29.5t6.5 -24.5
q11 -19 48.5 -26t90.5 -7q54 0 83.5 11t47.5 36q11 16 22.5 37.5t20.5 44.5l34 -8q-11 -45 -22 -84.5t-23 -77.5q-31 0 -70.5 0.5t-82.5 1t-85.5 1t-79.5 0.5zM447 744q-34 24 -66 47t-61 43q-12 -8 -28 -19.5t-33 -24t-34.5 -25t-30.5 -21.5l-21 19q32 35 65 70t62 71h46
q32 -39 59.5 -70t61.5 -69z" />
    <glyph glyph-name="Edieresis" unicode="&#xcb;" horiz-adv-x="605" 
d="M214 2q-16 0 -39.5 -0.5t-48.5 -1t-46.5 -1t-32.5 -0.5v34q39 2 54.5 8.5t20.5 14.5q4 8 6.5 23.5t2.5 39.5v468q0 24 -2.5 39.5t-6.5 23.5q-5 8 -20.5 14.5t-54.5 8.5v34q11 0 32 -0.5t44.5 -1t46.5 -1t39 -0.5h82t82.5 0.5t77.5 1t69 1.5q3 -50 6 -87.5t6 -59.5l-36 -4
q-8 36 -19 57t-25 33q-15 12 -38 17t-73 5h-63.5t-55.5 -2v-277q48 0 85 2t51 7q13 4 24 20.5t19 63.5h34q0 -8 -1 -22t-2 -31t-1.5 -35.5t-0.5 -34.5q0 -34 0.5 -61.5t1.5 -42.5h-34q-6 45 -16 61t-23 22q-14 7 -50.5 9.5t-86.5 2.5v-223q0 -14 1.5 -29.5t6.5 -24.5
q11 -19 48.5 -26t90.5 -7q54 0 83.5 11t47.5 36q11 16 22.5 37.5t20.5 44.5l34 -8q-11 -45 -22 -84.5t-23 -77.5q-31 0 -70.5 0.5t-82.5 1t-85.5 1t-79.5 0.5zM221 778q-19 0 -33 14.5t-14 35.5q0 20 14 34.5t34 14.5q21 0 33.5 -14.5t12.5 -34.5t-13 -35t-34 -15zM403 778
q-19 0 -33 14.5t-14 35.5q0 20 14 34.5t34 14.5t33 -14.5t13 -34.5t-13.5 -35t-33.5 -15z" />
    <glyph glyph-name="Igrave" unicode="&#xcc;" horiz-adv-x="355" 
d="M224 121q0 -32 2.5 -45.5t7.5 -21.5t20 -13t54 -8v-34q-10 0 -26.5 0.5t-35 1l-37 1t-33.5 0.5q-32 0 -69.5 -1t-59.5 -2v34q38 2 54 8.5t21 14.5q4 8 6.5 23.5t2.5 39.5v467q0 24 -2.5 40t-6.5 24q-5 8 -20.5 14.5t-54.5 8.5v34q22 -1 59.5 -2t69.5 -1q15 0 33.5 0.5
l37 1t35 1t26.5 0.5v-34q-36 -3 -52.5 -8t-21.5 -13t-7.5 -22t-2.5 -46v-463zM96 931q12 -16 29.5 -36.5t36 -42.5t38 -44t36.5 -40l-17 -17q-51 32 -106.5 68.5t-97.5 66.5z" />
    <glyph glyph-name="Iacute" unicode="&#xcd;" horiz-adv-x="355" 
d="M224 121q0 -32 2.5 -45.5t7.5 -21.5t20 -13t54 -8v-34q-10 0 -26.5 0.5t-35 1l-37 1t-33.5 0.5q-32 0 -69.5 -1t-59.5 -2v34q38 2 54 8.5t21 14.5q4 8 6.5 23.5t2.5 39.5v467q0 24 -2.5 40t-6.5 24q-5 8 -20.5 14.5t-54.5 8.5v34q22 -1 59.5 -2t69.5 -1q15 0 33.5 0.5
l37 1t35 1t26.5 0.5v-34q-36 -3 -52.5 -8t-21.5 -13t-7.5 -22t-2.5 -46v-463zM348 886q-42 -30 -97.5 -66.5t-106.5 -68.5l-17 17q17 18 36.5 40t38 44t36 42.5t29.5 36.5z" />
    <glyph glyph-name="Icircumflex" unicode="&#xce;" horiz-adv-x="355" 
d="M224 121q0 -32 2.5 -45.5t7.5 -21.5t20 -13t54 -8v-34q-10 0 -26.5 0.5t-35 1l-37 1t-33.5 0.5q-32 0 -69.5 -1t-59.5 -2v34q38 2 54 8.5t21 14.5q4 8 6.5 23.5t2.5 39.5v467q0 24 -2.5 40t-6.5 24q-5 8 -20.5 14.5t-54.5 8.5v34q22 -1 59.5 -2t69.5 -1q15 0 33.5 0.5
l37 1t35 1t26.5 0.5v-34q-36 -3 -52.5 -8t-21.5 -13t-7.5 -22t-2.5 -46v-463zM307 744q-34 24 -66 47t-61 43q-12 -8 -28 -19.5t-33 -24t-34.5 -25t-30.5 -21.5l-21 19q32 35 65 70t62 71h46q32 -39 59.5 -70t61.5 -69z" />
    <glyph glyph-name="Idieresis" unicode="&#xcf;" horiz-adv-x="355" 
d="M224 121q0 -32 2.5 -45.5t7.5 -21.5t20 -13t54 -8v-34q-10 0 -26.5 0.5t-35 1l-37 1t-33.5 0.5q-32 0 -69.5 -1t-59.5 -2v34q38 2 54 8.5t21 14.5q4 8 6.5 23.5t2.5 39.5v467q0 24 -2.5 40t-6.5 24q-5 8 -20.5 14.5t-54.5 8.5v34q22 -1 59.5 -2t69.5 -1q15 0 33.5 0.5
l37 1t35 1t26.5 0.5v-34q-36 -3 -52.5 -8t-21.5 -13t-7.5 -22t-2.5 -46v-463zM86 778q-19 0 -33 14.5t-14 35.5q0 20 14 34.5t34 14.5q21 0 33.5 -14.5t12.5 -34.5t-13 -35t-34 -15zM268 778q-19 0 -33 14.5t-14 35.5q0 20 14 34.5t34 14.5t33 -14.5t13 -34.5t-13.5 -35
t-33.5 -15z" />
    <glyph glyph-name="Eth" unicode="&#xd0;" horiz-adv-x="782" 
d="M175 2q-32 0 -69 -1t-59 -2v34q38 2 54 8.5t21 14.5q4 8 6.5 23.5t2.5 39.5v229h-85v48h85v191q0 24 -2.5 39.5t-6.5 23.5q-5 8 -21 14.5t-54 8.5v34q12 0 27.5 -0.5t32.5 -1t34.5 -0.5h33.5q9 0 29.5 0.5t44.5 0.5t47 0.5t38 0.5q103 0 177.5 -24.5t122.5 -69.5t71 -108
t23 -140q0 -96 -31 -165t-86 -113.5t-131.5 -65.5t-167.5 -21q-16 0 -35 0.5t-38 0.5t-36 0.5t-28 0.5zM222 348v-204q0 -17 1.5 -37.5t6.5 -31.5q15 -32 112 -32q61 0 113 19t89.5 57.5t58.5 96.5t21 137q0 67 -13.5 124t-49 99t-96.5 65.5t-155 23.5h-42.5t-45.5 -2v-267
h216v-48h-216z" />
    <glyph glyph-name="Ntilde" unicode="&#xd1;" horiz-adv-x="799" 
d="M183 161q0 -43 4.5 -68t16 -37.5t32 -17t53.5 -5.5v-34q-30 1 -64.5 1.5t-64.5 0.5h-34.5t-37.5 -0.5t-32.5 -1t-19.5 -0.5v34q30 2 48 6.5t28.5 18.5t14.5 40.5t4 72.5q2 164 3 253.5t1 125.5q0 39 -5 56t-16 30q-8 10 -16 17t-18.5 10.5t-24.5 5.5t-34 4v34
q7 0 20 -0.5t27.5 -1t28 -0.5h22.5q20 0 41 0.5t35 1.5q19 -30 38.5 -56t40.5 -52t46 -55t56 -66q35 -42 65.5 -78.5t61.5 -72.5t63 -73.5t70 -80.5v21.5t0.5 43t0.5 51v46.5q0 54 -0.5 110t-2.5 111q-1 39 -5.5 62t-15.5 34.5t-30.5 15t-50.5 5.5v34q27 -1 59.5 -1.5
t70.5 -0.5q36 0 61.5 0.5t54.5 1.5v-34q-28 -2 -45 -5.5t-27 -15.5t-14.5 -34.5t-5.5 -61.5q-1 -29 -1 -78.5v-115.5q0 -106 1 -196.5t6 -171.5l-39 -9q-20 29 -41.5 58t-42.5 55q-94 114 -193 232t-193 229q-1 -44 -1 -93v-100v-102t1 -103zM456 850q16 -7 28.5 -9.5
t19.5 -2.5q16 0 29 15t25 36l24 -11q-25 -57 -46.5 -81.5t-42.5 -24.5q-11 0 -25 3.5t-38 12.5l-34 13q-15 5 -25 8t-20 3q-19 0 -31.5 -10.5t-26.5 -37.5l-24 10q8 19 18 38t21.5 34t25 24t28.5 9q17 0 30.5 -5t27.5 -10z" />
    <glyph glyph-name="Ograve" unicode="&#xd2;" horiz-adv-x="820" 
d="M422 719q79 0 143 -27.5t108.5 -75.5t68.5 -112.5t24 -138.5q0 -82 -26 -151.5t-73.5 -120t-114 -79t-147.5 -28.5q-77 0 -141.5 26.5t-111 74t-72.5 112.5t-26 142q0 81 27.5 150t76.5 119.5t116.5 79.5t147.5 29zM420 29q52 0 97 20.5t78 60.5t51.5 97.5t18.5 132.5
q0 84 -21 147t-56.5 105t-83 63t-99.5 21t-97.5 -21t-79 -61t-52.5 -99t-19 -134t17.5 -136t51.5 -104.5t83 -67.5t111 -24zM335 931q12 -16 29.5 -36.5t36 -42.5t38 -44t36.5 -40l-17 -17q-51 32 -106.5 68.5t-97.5 66.5z" />
    <glyph glyph-name="Oacute" unicode="&#xd3;" horiz-adv-x="820" 
d="M422 719q79 0 143 -27.5t108.5 -75.5t68.5 -112.5t24 -138.5q0 -82 -26 -151.5t-73.5 -120t-114 -79t-147.5 -28.5q-77 0 -141.5 26.5t-111 74t-72.5 112.5t-26 142q0 81 27.5 150t76.5 119.5t116.5 79.5t147.5 29zM420 29q52 0 97 20.5t78 60.5t51.5 97.5t18.5 132.5
q0 84 -21 147t-56.5 105t-83 63t-99.5 21t-97.5 -21t-79 -61t-52.5 -99t-19 -134t17.5 -136t51.5 -104.5t83 -67.5t111 -24zM561 886q-42 -30 -97.5 -66.5t-106.5 -68.5l-17 17q17 18 36.5 40t38 44t36 42.5t29.5 36.5z" />
    <glyph glyph-name="Ocircumflex" unicode="&#xd4;" horiz-adv-x="820" 
d="M422 719q79 0 143 -27.5t108.5 -75.5t68.5 -112.5t24 -138.5q0 -82 -26 -151.5t-73.5 -120t-114 -79t-147.5 -28.5q-77 0 -141.5 26.5t-111 74t-72.5 112.5t-26 142q0 81 27.5 150t76.5 119.5t116.5 79.5t147.5 29zM420 29q52 0 97 20.5t78 60.5t51.5 97.5t18.5 132.5
q0 84 -21 147t-56.5 105t-83 63t-99.5 21t-97.5 -21t-79 -61t-52.5 -99t-19 -134t17.5 -136t51.5 -104.5t83 -67.5t111 -24zM538 744q-34 24 -66 47t-61 43q-12 -8 -28 -19.5t-33 -24t-34.5 -25t-30.5 -21.5l-21 19q32 35 65 70t62 71h46q32 -39 59.5 -70t61.5 -69z" />
    <glyph glyph-name="Otilde" unicode="&#xd5;" horiz-adv-x="820" 
d="M422 719q79 0 143 -27.5t108.5 -75.5t68.5 -112.5t24 -138.5q0 -82 -26 -151.5t-73.5 -120t-114 -79t-147.5 -28.5q-77 0 -141.5 26.5t-111 74t-72.5 112.5t-26 142q0 81 27.5 150t76.5 119.5t116.5 79.5t147.5 29zM420 29q52 0 97 20.5t78 60.5t51.5 97.5t18.5 132.5
q0 84 -21 147t-56.5 105t-83 63t-99.5 21t-97.5 -21t-79 -61t-52.5 -99t-19 -134t17.5 -136t51.5 -104.5t83 -67.5t111 -24zM437 850q16 -7 28.5 -9.5t19.5 -2.5q16 0 29 15t25 36l24 -11q-25 -57 -46.5 -81.5t-42.5 -24.5q-11 0 -25 3.5t-38 12.5l-34 13q-15 5 -25 8t-20 3
q-19 0 -31.5 -10.5t-26.5 -37.5l-24 10q8 19 18 38t21.5 34t25 24t28.5 9q17 0 30.5 -5t27.5 -10z" />
    <glyph glyph-name="Odieresis" unicode="&#xd6;" horiz-adv-x="820" 
d="M422 719q79 0 143 -27.5t108.5 -75.5t68.5 -112.5t24 -138.5q0 -82 -26 -151.5t-73.5 -120t-114 -79t-147.5 -28.5q-77 0 -141.5 26.5t-111 74t-72.5 112.5t-26 142q0 81 27.5 150t76.5 119.5t116.5 79.5t147.5 29zM420 29q52 0 97 20.5t78 60.5t51.5 97.5t18.5 132.5
q0 84 -21 147t-56.5 105t-83 63t-99.5 21t-97.5 -21t-79 -61t-52.5 -99t-19 -134t17.5 -136t51.5 -104.5t83 -67.5t111 -24zM313 778q-19 0 -33 14.5t-14 35.5q0 20 14 34.5t34 14.5q21 0 33.5 -14.5t12.5 -34.5t-13 -35t-34 -15zM495 778q-19 0 -33 14.5t-14 35.5
q0 20 14 34.5t34 14.5t33 -14.5t13 -34.5t-13.5 -35t-33.5 -15z" />
    <glyph glyph-name="multiply" unicode="&#xd7;" horiz-adv-x="729" 
d="M543 82l-179 178l-178 -178l-44 44l177 179l-180 181l46 46l180 -180l181 180l44 -45l-180 -181l178 -177z" />
    <glyph glyph-name="Oslash" unicode="&#xd8;" horiz-adv-x="820" 
d="M654 635q54 -49 83 -119t29 -151q0 -82 -26 -151.5t-73.5 -120t-114 -79t-147.5 -28.5q-62 0 -114.5 16.5t-95.5 47.5l-69 -87l-35 24l71 90q-51 48 -79.5 115.5t-28.5 148.5t27.5 150t76.5 119.5t116.5 79.5t147.5 29q59 0 108.5 -15.5t90.5 -42.5l67 86l35 -25zM420 29
q52 0 97 20.5t78 60.5t51.5 97.5t18.5 132.5q0 74 -16.5 131t-45.5 99l-365 -464q34 -37 79.5 -57t102.5 -20zM157 361q0 -134 55 -220l364 463q-35 36 -79 54t-92 18q-52 0 -97.5 -21t-79 -61t-52.5 -99t-19 -134z" />
    <glyph glyph-name="Ugrave" unicode="&#xd9;" horiz-adv-x="766" 
d="M660 552v-55t0.5 -83.5t0.5 -86.5v-65q0 -132 -65.5 -204.5t-212.5 -72.5q-77 0 -141.5 26t-100.5 78q-20 28 -29 68t-9 100v330q0 48 -9 63q-5 8 -20.5 14.5t-53.5 8.5v34q12 -1 27.5 -1.5t33 -1t35 -0.5h33.5q15 0 33.5 0.5l37 1t34.5 1t27 0.5v-34q-39 -3 -55 -8
t-21 -13q-6 -8 -8.5 -22t-2.5 -45t-0.5 -68.5t-0.5 -76v-76v-69.5q0 -56 6.5 -97.5t22.5 -68.5q25 -42 70 -63t105 -21q76 0 119.5 21t65 58.5t26.5 89t5 111.5v59t-0.5 67.5t-1.5 62t-2 42.5q-3 38 -8.5 60.5t-16.5 34.5t-29.5 16t-47.5 6v34q27 -1 59 -1.5t70 -0.5
q36 0 61 0.5t54 1.5v-34q-27 -2 -44.5 -6t-28 -16.5t-14.5 -36t-4 -62.5zM318 931q12 -16 29.5 -36.5t36 -42.5t38 -44t36.5 -40l-17 -17q-51 32 -106.5 68.5t-97.5 66.5z" />
    <glyph glyph-name="Uacute" unicode="&#xda;" horiz-adv-x="766" 
d="M660 552v-55t0.5 -83.5t0.5 -86.5v-65q0 -132 -65.5 -204.5t-212.5 -72.5q-77 0 -141.5 26t-100.5 78q-20 28 -29 68t-9 100v330q0 48 -9 63q-5 8 -20.5 14.5t-53.5 8.5v34q12 -1 27.5 -1.5t33 -1t35 -0.5h33.5q15 0 33.5 0.5l37 1t34.5 1t27 0.5v-34q-39 -3 -55 -8
t-21 -13q-6 -8 -8.5 -22t-2.5 -45t-0.5 -68.5t-0.5 -76v-76v-69.5q0 -56 6.5 -97.5t22.5 -68.5q25 -42 70 -63t105 -21q76 0 119.5 21t65 58.5t26.5 89t5 111.5v59t-0.5 67.5t-1.5 62t-2 42.5q-3 38 -8.5 60.5t-16.5 34.5t-29.5 16t-47.5 6v34q27 -1 59 -1.5t70 -0.5
q36 0 61 0.5t54 1.5v-34q-27 -2 -44.5 -6t-28 -16.5t-14.5 -36t-4 -62.5zM555 886q-42 -30 -97.5 -66.5t-106.5 -68.5l-17 17q17 18 36.5 40t38 44t36 42.5t29.5 36.5z" />
    <glyph glyph-name="Ucircumflex" unicode="&#xdb;" horiz-adv-x="766" 
d="M660 552v-55t0.5 -83.5t0.5 -86.5v-65q0 -132 -65.5 -204.5t-212.5 -72.5q-77 0 -141.5 26t-100.5 78q-20 28 -29 68t-9 100v330q0 48 -9 63q-5 8 -20.5 14.5t-53.5 8.5v34q12 -1 27.5 -1.5t33 -1t35 -0.5h33.5q15 0 33.5 0.5l37 1t34.5 1t27 0.5v-34q-39 -3 -55 -8
t-21 -13q-6 -8 -8.5 -22t-2.5 -45t-0.5 -68.5t-0.5 -76v-76v-69.5q0 -56 6.5 -97.5t22.5 -68.5q25 -42 70 -63t105 -21q76 0 119.5 21t65 58.5t26.5 89t5 111.5v59t-0.5 67.5t-1.5 62t-2 42.5q-3 38 -8.5 60.5t-16.5 34.5t-29.5 16t-47.5 6v34q27 -1 59 -1.5t70 -0.5
q36 0 61 0.5t54 1.5v-34q-27 -2 -44.5 -6t-28 -16.5t-14.5 -36t-4 -62.5zM522 744q-34 24 -66 47t-61 43q-12 -8 -28 -19.5t-33 -24t-34.5 -25t-30.5 -21.5l-21 19q32 35 65 70t62 71h46q32 -39 59.5 -70t61.5 -69z" />
    <glyph glyph-name="Udieresis" unicode="&#xdc;" horiz-adv-x="766" 
d="M660 552v-55t0.5 -83.5t0.5 -86.5v-65q0 -132 -65.5 -204.5t-212.5 -72.5q-77 0 -141.5 26t-100.5 78q-20 28 -29 68t-9 100v330q0 48 -9 63q-5 8 -20.5 14.5t-53.5 8.5v34q12 -1 27.5 -1.5t33 -1t35 -0.5h33.5q15 0 33.5 0.5l37 1t34.5 1t27 0.5v-34q-39 -3 -55 -8
t-21 -13q-6 -8 -8.5 -22t-2.5 -45t-0.5 -68.5t-0.5 -76v-76v-69.5q0 -56 6.5 -97.5t22.5 -68.5q25 -42 70 -63t105 -21q76 0 119.5 21t65 58.5t26.5 89t5 111.5v59t-0.5 67.5t-1.5 62t-2 42.5q-3 38 -8.5 60.5t-16.5 34.5t-29.5 16t-47.5 6v34q27 -1 59 -1.5t70 -0.5
q36 0 61 0.5t54 1.5v-34q-27 -2 -44.5 -6t-28 -16.5t-14.5 -36t-4 -62.5zM307 778q-19 0 -33 14.5t-14 35.5q0 20 14 34.5t34 14.5q21 0 33.5 -14.5t12.5 -34.5t-13 -35t-34 -15zM489 778q-19 0 -33 14.5t-14 35.5q0 20 14 34.5t34 14.5t33 -14.5t13 -34.5t-13.5 -35
t-33.5 -15z" />
    <glyph glyph-name="Yacute" unicode="&#xdd;" horiz-adv-x="656" 
d="M373 121q0 -32 2.5 -45t7.5 -21t23 -14t59 -8v-34q-10 0 -26 0.5t-34.5 1l-37 1t-33.5 0.5q-16 0 -35.5 -0.5l-39 -1t-37.5 -1t-31 -0.5v34q39 2 58 9t24 15q4 8 6.5 23t2.5 39v178l-170 296q-15 26 -26.5 41t-23 23.5t-25 11t-31.5 4.5v34q12 -1 29.5 -1.5t36 -1
t35.5 -0.5h29q15 0 35 0.5t39.5 1t36 1t23.5 0.5v-34q-44 -1 -58.5 -6.5t-14.5 -19.5q0 -9 4.5 -21t17.5 -36q32 -63 65.5 -120.5t66.5 -118.5q16 28 31 52.5t29.5 49.5t29.5 51t33 57q16 28 23.5 49.5t7.5 35.5q0 11 -13.5 18.5t-56.5 8.5v34q9 -1 22.5 -1.5t28.5 -1
t29.5 -0.5h24.5q12 0 28 0.5l32 1t30 1t22 0.5v-34q-15 -2 -27.5 -6t-25 -15t-27.5 -30.5t-34 -51.5q-18 -29 -40 -63.5t-44.5 -70.5t-43.5 -70.5t-37 -62.5v-182zM513 886q-42 -30 -97.5 -66.5t-106.5 -68.5l-17 17q17 18 36.5 40t38 44t36 42.5t29.5 36.5z" />
    <glyph glyph-name="Thorn" unicode="&#xde;" horiz-adv-x="608" 
d="M223 562q22 1 42.5 1h31.5q57 0 106 -9.5t84.5 -31t56 -58t20.5 -90.5t-21.5 -93.5t-56.5 -64.5t-80.5 -37t-93.5 -12q-13 0 -28 0.5t-27 2.5l5 39q8 -2 17.5 -2.5t16.5 -0.5q33 0 63.5 7t54 25.5t37 50t13.5 80.5q0 74 -46.5 114.5t-140.5 40.5q-11 0 -28.5 -0.5
t-25.5 -1.5v-400q0 -26 3 -41.5t8 -23.5t22 -14t59 -10v-34q-11 0 -28.5 0.5t-38 1t-40.5 1t-35 0.5q-32 0 -67.5 -1t-58.5 -2v34q38 2 54 8.5t21 14.5q4 8 6.5 23.5t2.5 39.5v467q0 24 -2.5 40t-6.5 24q-5 8 -20.5 14.5t-54.5 8.5v34q22 -1 59 -2t69 -1q15 0 33.5 0.5l37 1
t34.5 1t27 0.5v-34q-36 -3 -52.5 -8t-21.5 -13t-7.5 -22t-2.5 -46v-22z" />
    <glyph glyph-name="germandbls" unicode="&#xdf;" horiz-adv-x="574" 
d="M43 414v29q23 7 41 20q6 4 10.5 8.5t8.5 11t7 17.5t5 28q5 38 12.5 72t20.5 63q13 28 33.5 52.5t45.5 42t54 27.5t59 10q38 0 67.5 -12t49 -32t29.5 -46.5t10 -55.5q0 -52 -21 -94t-59 -79q-33 -32 -48.5 -50t-15.5 -32q0 -9 3.5 -17t14.5 -19.5t30.5 -28t51.5 -41.5
q43 -35 66 -66.5t23 -74.5q0 -38 -16.5 -68t-42 -50.5t-57 -31.5t-61.5 -11q-78 0 -137 50l54 58q20 -27 49 -44.5t54 -17.5q39 0 61 21.5t22 61.5q0 28 -19 54.5t-66 64.5q-32 25 -53.5 43t-35 32.5t-19 27t-5.5 26.5q0 21 14 40.5t43 49.5q48 49 70 93t22 83
q0 56 -24.5 89.5t-70.5 33.5q-28 0 -48.5 -12t-35.5 -32t-24.5 -47t-14.5 -57q-3 -21 -5 -52.5t-3 -84t-1 -131v-192.5q0 -67 1 -100t2 -45q-4 0 -13.5 0.5t-20 1t-20.5 0.5h-16q-17 0 -40.5 -0.5t-45.5 -1.5v33q23 1 34.5 2.5t18.5 6.5q8 5 14 17.5t6 48.5v307h-68z" />
    <glyph glyph-name="agrave" unicode="&#xe0;" horiz-adv-x="507" 
d="M500 45q-32 -29 -56.5 -42t-44.5 -13q-22 0 -40.5 13.5t-34.5 47.5q-32 -26 -65.5 -44.5t-70.5 -18.5q-32 0 -57.5 10.5t-43.5 28t-27.5 39t-9.5 44.5q0 51 39 78q13 9 29.5 16.5t38.5 15t52 15.5t71 18q26 6 34 14.5t8 36.5q0 43 -3.5 68t-11.5 39q-10 16 -28 25t-41 9
q-41 0 -66.5 -16t-25.5 -38q0 -11 5.5 -25t14.5 -28l-73 -38q-12 19 -18.5 33.5t-6.5 30.5q0 18 10.5 33.5t30.5 30.5q42 32 88.5 51.5t78.5 19.5q45 0 71.5 -15t39.5 -34q10 -14 13 -37t3 -55q0 -16 -0.5 -37.5t-1 -46t-1 -50t-0.5 -48.5q0 -71 9.5 -97.5t34.5 -26.5
q11 0 21 4.5t20 9.5zM322 227q-59 -14 -95.5 -25.5t-56 -24t-26 -26.5t-6.5 -32q0 -30 22.5 -51t57.5 -21q26 0 48.5 7t35.5 18q14 11 17 23t3 33v99zM204 750l20.5 -41l24 -48t26 -50t25.5 -47l-20 -12q-44 42 -88 88.5t-79 83.5z" />
    <glyph glyph-name="aacute" unicode="&#xe1;" horiz-adv-x="507" 
d="M500 45q-32 -29 -56.5 -42t-44.5 -13q-22 0 -40.5 13.5t-34.5 47.5q-32 -26 -65.5 -44.5t-70.5 -18.5q-32 0 -57.5 10.5t-43.5 28t-27.5 39t-9.5 44.5q0 51 39 78q13 9 29.5 16.5t38.5 15t52 15.5t71 18q26 6 34 14.5t8 36.5q0 43 -3.5 68t-11.5 39q-10 16 -28 25t-41 9
q-41 0 -66.5 -16t-25.5 -38q0 -11 5.5 -25t14.5 -28l-73 -38q-12 19 -18.5 33.5t-6.5 30.5q0 18 10.5 33.5t30.5 30.5q42 32 88.5 51.5t78.5 19.5q45 0 71.5 -15t39.5 -34q10 -14 13 -37t3 -55q0 -16 -0.5 -37.5t-1 -46t-1 -50t-0.5 -48.5q0 -71 9.5 -97.5t34.5 -26.5
q11 0 21 4.5t20 9.5zM322 227q-59 -14 -95.5 -25.5t-56 -24t-26 -26.5t-6.5 -32q0 -30 22.5 -51t57.5 -21q26 0 48.5 7t35.5 18q14 11 17 23t3 33v99zM390 724q-34 -37 -78.5 -83t-88.5 -89l-20 12q12 22 25.5 47.5t26.5 50t24.5 47.5t19.5 41z" />
    <glyph glyph-name="acircumflex" unicode="&#xe2;" horiz-adv-x="507" 
d="M500 45q-32 -29 -56.5 -42t-44.5 -13q-22 0 -40.5 13.5t-34.5 47.5q-32 -26 -65.5 -44.5t-70.5 -18.5q-32 0 -57.5 10.5t-43.5 28t-27.5 39t-9.5 44.5q0 51 39 78q13 9 29.5 16.5t38.5 15t52 15.5t71 18q26 6 34 14.5t8 36.5q0 43 -3.5 68t-11.5 39q-10 16 -28 25t-41 9
q-41 0 -66.5 -16t-25.5 -38q0 -11 5.5 -25t14.5 -28l-73 -38q-12 19 -18.5 33.5t-6.5 30.5q0 18 10.5 33.5t30.5 30.5q42 32 88.5 51.5t78.5 19.5q45 0 71.5 -15t39.5 -34q10 -14 13 -37t3 -55q0 -16 -0.5 -37.5t-1 -46t-1 -50t-0.5 -48.5q0 -71 9.5 -97.5t34.5 -26.5
q11 0 21 4.5t20 9.5zM322 227q-59 -14 -95.5 -25.5t-56 -24t-26 -26.5t-6.5 -32q0 -30 22.5 -51t57.5 -21q26 0 48.5 7t35.5 18q14 11 17 23t3 33v99zM364 538q-32 29 -62 57t-56 51q-12 -11 -26.5 -24.5t-30 -28t-31.5 -29t-29 -26.5l-21 15q30 40 63 85t61 87h35
q27 -41 57.5 -85t59.5 -85z" />
    <glyph glyph-name="atilde" unicode="&#xe3;" horiz-adv-x="507" 
d="M500 45q-32 -29 -56.5 -42t-44.5 -13q-22 0 -40.5 13.5t-34.5 47.5q-32 -26 -65.5 -44.5t-70.5 -18.5q-32 0 -57.5 10.5t-43.5 28t-27.5 39t-9.5 44.5q0 51 39 78q13 9 29.5 16.5t38.5 15t52 15.5t71 18q26 6 34 14.5t8 36.5q0 43 -3.5 68t-11.5 39q-10 16 -28 25t-41 9
q-41 0 -66.5 -16t-25.5 -38q0 -11 5.5 -25t14.5 -28l-73 -38q-12 19 -18.5 33.5t-6.5 30.5q0 18 10.5 33.5t30.5 30.5q42 32 88.5 51.5t78.5 19.5q45 0 71.5 -15t39.5 -34q10 -14 13 -37t3 -55q0 -16 -0.5 -37.5t-1 -46t-1 -50t-0.5 -48.5q0 -71 9.5 -97.5t34.5 -26.5
q11 0 21 4.5t20 9.5zM322 227q-59 -14 -95.5 -25.5t-56 -24t-26 -26.5t-6.5 -32q0 -30 22.5 -51t57.5 -21q26 0 48.5 7t35.5 18q14 11 17 23t3 33v99zM282 645q15 -7 26.5 -9.5t18.5 -2.5q14 0 26.5 15t23.5 36l23 -11q-23 -57 -43.5 -81.5t-40.5 -24.5q-10 0 -23 3.5
t-36 12.5l-29 12q-30 12 -43 12q-17 0 -29 -10.5t-26 -37.5l-23 9q7 19 16.5 38t20.5 34t24 24t27 9q16 0 28.5 -4.5t26.5 -9.5z" />
    <glyph glyph-name="adieresis" unicode="&#xe4;" horiz-adv-x="507" 
d="M500 45q-32 -29 -56.5 -42t-44.5 -13q-22 0 -40.5 13.5t-34.5 47.5q-32 -26 -65.5 -44.5t-70.5 -18.5q-32 0 -57.5 10.5t-43.5 28t-27.5 39t-9.5 44.5q0 51 39 78q13 9 29.5 16.5t38.5 15t52 15.5t71 18q26 6 34 14.5t8 36.5q0 43 -3.5 68t-11.5 39q-10 16 -28 25t-41 9
q-41 0 -66.5 -16t-25.5 -38q0 -11 5.5 -25t14.5 -28l-73 -38q-12 19 -18.5 33.5t-6.5 30.5q0 18 10.5 33.5t30.5 30.5q42 32 88.5 51.5t78.5 19.5q45 0 71.5 -15t39.5 -34q10 -14 13 -37t3 -55q0 -16 -0.5 -37.5t-1 -46t-1 -50t-0.5 -48.5q0 -71 9.5 -97.5t34.5 -26.5
q11 0 21 4.5t20 9.5zM322 227q-59 -14 -95.5 -25.5t-56 -24t-26 -26.5t-6.5 -32q0 -30 22.5 -51t57.5 -21q26 0 48.5 7t35.5 18q14 11 17 23t3 33v99zM166 580q-19 0 -33 14t-14 35q0 20 14 34.5t34 14.5t33 -14.5t13 -34.5t-13.5 -34.5t-33.5 -14.5zM328 580q-19 0 -33 14
t-14 35q0 20 14 34.5t34 14.5t33 -14.5t13 -34.5t-13.5 -34.5t-33.5 -14.5z" />
    <glyph glyph-name="aring" unicode="&#xe5;" horiz-adv-x="507" 
d="M500 45q-32 -29 -56.5 -42t-44.5 -13q-22 0 -40.5 13.5t-34.5 47.5q-32 -26 -65.5 -44.5t-70.5 -18.5q-32 0 -57.5 10.5t-43.5 28t-27.5 39t-9.5 44.5q0 51 39 78q13 9 29.5 16.5t38.5 15t52 15.5t71 18q26 6 34 14.5t8 36.5q0 43 -3.5 68t-11.5 39q-10 16 -28 25t-41 9
q-41 0 -66.5 -16t-25.5 -38q0 -11 5.5 -25t14.5 -28l-73 -38q-12 19 -18.5 33.5t-6.5 30.5q0 18 10.5 33.5t30.5 30.5q42 32 88.5 51.5t78.5 19.5q45 0 71.5 -15t39.5 -34q10 -14 13 -37t3 -55q0 -16 -0.5 -37.5t-1 -46t-1 -50t-0.5 -48.5q0 -71 9.5 -97.5t34.5 -26.5
q11 0 21 4.5t20 9.5zM322 227q-59 -14 -95.5 -25.5t-56 -24t-26 -26.5t-6.5 -32q0 -30 22.5 -51t57.5 -21q26 0 48.5 7t35.5 18q14 11 17 23t3 33v99zM249 738q45 0 72 -26.5t27 -69.5t-29 -71t-71 -28t-71 26.5t-29 69.5q0 44 29.5 71.5t71.5 27.5zM248 704q-23 0 -40 -17
t-17 -46q0 -26 15.5 -44t41.5 -18q24 0 41 16.5t17 45.5q0 30 -17.5 46.5t-40.5 16.5z" />
    <glyph glyph-name="ae" unicode="&#xe6;" horiz-adv-x="754" 
d="M424 254q-14 -2 -17.5 -10t-3.5 -16q0 -15 3 -28q10 -65 46.5 -103.5t110.5 -38.5q32 0 68.5 11.5t74.5 39.5l22 -26q-48 -48 -97.5 -73.5t-99.5 -25.5q-63 0 -103 23.5t-69 68.5q-54 -53 -95 -71t-76 -18q-32 0 -57.5 11t-43.5 29t-28 40.5t-10 45.5q0 51 39 78
q13 9 29.5 16.5t39 15t52.5 15.5t71 18q26 6 34 14.5t8 36.5q0 44 -3.5 67t-11.5 37q-10 16 -28 25t-41 9q-38 0 -65 -16t-27 -38q0 -12 6 -25.5t14 -27.5l-73 -38q-25 39 -25 63q0 18 9.5 32t29.5 31q21 18 44.5 31.5t46 22.5t42 14t34.5 5q55 0 80 -22t35 -56
q29 36 72 56.5t89 20.5q38 0 69.5 -11.5t54 -35t35 -60.5t12.5 -88zM401 286q43 7 74 12.5t54 10t40 8.5t32 9q14 5 21.5 11t7.5 20q0 19 -5 37t-16.5 32.5t-30 23t-45.5 8.5t-51 -14t-42 -37.5t-28.5 -54.5t-10.5 -66zM322 232q-59 -14 -95.5 -26t-56.5 -25t-26.5 -27
t-6.5 -32q0 -17 6.5 -31.5t17.5 -25t25 -16t29 -5.5q36 0 70 18t58 48q-10 23 -15 55t-6 67z" />
    <glyph glyph-name="ccedilla" unicode="&#xe7;" horiz-adv-x="450" 
d="M153 -219q24 0 45.5 2t38 9t26 19.5t9.5 32.5q0 23 -17.5 36.5t-59.5 13.5l34 92q-39 5 -73 24t-59 49t-39.5 69.5t-14.5 87.5q0 70 24 122.5t61.5 88t82.5 53.5t88 18q70 0 129 -45l-58 -74q-28 26 -57.5 40.5t-64.5 14.5q-26 0 -49.5 -10.5t-41 -31.5t-28 -53
t-10.5 -76q0 -52 14 -90.5t37.5 -64t53 -38t60.5 -12.5q38 0 70 11.5t67 34.5l22 -25q-46 -46 -88 -69.5t-90 -25.5l-17 -43q44 -3 67 -22t23 -56q0 -32 -17.5 -54.5t-44 -37.5t-57.5 -23t-57 -10z" />
    <glyph glyph-name="egrave" unicode="&#xe8;" horiz-adv-x="491" 
d="M125 296q-2 -8 -2 -16v-13q0 -55 14.5 -94.5t39 -64.5t56.5 -37t68 -12q32 0 67.5 11.5t74.5 38.5l21 -26q-46 -48 -95.5 -73.5t-100.5 -25.5q-49 0 -90.5 17.5t-71.5 50.5t-46.5 79t-16.5 103q0 58 18 106.5t49.5 83.5t73 54.5t88.5 19.5q40 0 73.5 -12t58.5 -36.5
t39 -62.5t14 -90zM130 333q157 0 205 6q14 2 22 6t8 20q0 37 -25.5 65t-78.5 28q-54 0 -88.5 -36t-42.5 -89zM221 750l20.5 -41l24 -48t26 -50t25.5 -47l-20 -12q-44 42 -88 88.5t-79 83.5z" />
    <glyph glyph-name="eacute" unicode="&#xe9;" horiz-adv-x="491" 
d="M125 296q-2 -8 -2 -16v-13q0 -55 14.5 -94.5t39 -64.5t56.5 -37t68 -12q32 0 67.5 11.5t74.5 38.5l21 -26q-46 -48 -95.5 -73.5t-100.5 -25.5q-49 0 -90.5 17.5t-71.5 50.5t-46.5 79t-16.5 103q0 58 18 106.5t49.5 83.5t73 54.5t88.5 19.5q40 0 73.5 -12t58.5 -36.5
t39 -62.5t14 -90zM130 333q157 0 205 6q14 2 22 6t8 20q0 37 -25.5 65t-78.5 28q-54 0 -88.5 -36t-42.5 -89zM406 724q-34 -37 -78.5 -83t-88.5 -89l-20 12q12 22 25.5 47.5t26.5 50t24.5 47.5t19.5 41z" />
    <glyph glyph-name="ecircumflex" unicode="&#xea;" horiz-adv-x="491" 
d="M125 296q-2 -8 -2 -16v-13q0 -55 14.5 -94.5t39 -64.5t56.5 -37t68 -12q32 0 67.5 11.5t74.5 38.5l21 -26q-46 -48 -95.5 -73.5t-100.5 -25.5q-49 0 -90.5 17.5t-71.5 50.5t-46.5 79t-16.5 103q0 58 18 106.5t49.5 83.5t73 54.5t88.5 19.5q40 0 73.5 -12t58.5 -36.5
t39 -62.5t14 -90zM130 333q157 0 205 6q14 2 22 6t8 20q0 37 -25.5 65t-78.5 28q-54 0 -88.5 -36t-42.5 -89zM381 538q-32 29 -62 57t-56 51q-12 -11 -26.5 -24.5t-30 -28t-31.5 -29t-29 -26.5l-21 15q30 40 63 85t61 87h35q27 -41 57.5 -85t59.5 -85z" />
    <glyph glyph-name="edieresis" unicode="&#xeb;" horiz-adv-x="491" 
d="M125 296q-2 -8 -2 -16v-13q0 -55 14.5 -94.5t39 -64.5t56.5 -37t68 -12q32 0 67.5 11.5t74.5 38.5l21 -26q-46 -48 -95.5 -73.5t-100.5 -25.5q-49 0 -90.5 17.5t-71.5 50.5t-46.5 79t-16.5 103q0 58 18 106.5t49.5 83.5t73 54.5t88.5 19.5q40 0 73.5 -12t58.5 -36.5
t39 -62.5t14 -90zM130 333q157 0 205 6q14 2 22 6t8 20q0 37 -25.5 65t-78.5 28q-54 0 -88.5 -36t-42.5 -89zM183 580q-19 0 -33 14t-14 35q0 20 14 34.5t34 14.5t33 -14.5t13 -34.5t-13.5 -34.5t-33.5 -14.5zM345 580q-19 0 -33 14t-14 35q0 20 14 34.5t34 14.5t33 -14.5
t13 -34.5t-13.5 -34.5t-33.5 -14.5z" />
    <glyph glyph-name="igrave" unicode="&#xec;" horiz-adv-x="293" 
d="M97 750l20.5 -41l24 -48t26 -50t25.5 -47l-20 -12q-44 42 -88 88.5t-79 83.5zM196 499q-1 -22 -1.5 -48.5l-1 -53t-0.5 -51v-42.5v-186q0 -31 2.5 -45t7.5 -22q3 -4 6.5 -7t11 -5t19 -4t30.5 -3v-33q-22 1 -53.5 1.5t-61.5 0.5q-32 0 -62 -0.5t-53 -1.5v33q18 1 30 3
t19 5t10.5 6.5t5.5 7.5q4 8 6.5 23.5t2.5 38.5v180q0 27 -1.5 44.5t-7.5 32.5q-9 19 -52 44v14l132 74z" />
    <glyph glyph-name="iacute" unicode="&#xed;" horiz-adv-x="293" 
d="M288 724q-34 -37 -78.5 -83t-88.5 -89l-20 12q12 22 25.5 47.5t26.5 50t24.5 47.5t19.5 41zM196 499q-1 -22 -1.5 -48.5l-1 -53t-0.5 -51v-42.5v-186q0 -31 2.5 -45t7.5 -22q3 -4 6.5 -7t11 -5t19 -4t30.5 -3v-33q-22 1 -53.5 1.5t-61.5 0.5q-32 0 -62 -0.5t-53 -1.5v33
q18 1 30 3t19 5t10.5 6.5t5.5 7.5q4 8 6.5 23.5t2.5 38.5v180q0 27 -1.5 44.5t-7.5 32.5q-9 19 -52 44v14l132 74z" />
    <glyph glyph-name="icircumflex" unicode="&#xee;" horiz-adv-x="293" 
d="M196 499q-1 -22 -1.5 -48.5l-1 -53t-0.5 -51v-42.5v-186q0 -31 2.5 -45t7.5 -22q3 -4 6.5 -7t11 -5t19 -4t30.5 -3v-33q-22 1 -53.5 1.5t-61.5 0.5q-32 0 -62 -0.5t-53 -1.5v33q18 1 30 3t19 5t10.5 6.5t5.5 7.5q4 8 6.5 23.5t2.5 38.5v180q0 27 -1.5 44.5t-7.5 32.5
q-9 19 -52 44v14l132 74zM267 538q-32 29 -62 57t-56 51q-12 -11 -26.5 -24.5t-30 -28t-31.5 -29t-29 -26.5l-21 15q30 40 63 85t61 87h35q27 -41 57.5 -85t59.5 -85z" />
    <glyph glyph-name="idieresis" unicode="&#xef;" horiz-adv-x="293" 
d="M67 580q-19 0 -33 14t-14 35q0 20 14 34.5t34 14.5t33 -14.5t13 -34.5t-13.5 -34.5t-33.5 -14.5zM229 580q-19 0 -33 14t-14 35q0 20 14 34.5t34 14.5t33 -14.5t13 -34.5t-13.5 -34.5t-33.5 -14.5zM196 499q-1 -22 -1.5 -48.5l-1 -53t-0.5 -51v-42.5v-186q0 -31 2.5 -45
t7.5 -22q3 -4 6.5 -7t11 -5t19 -4t30.5 -3v-33q-22 1 -53.5 1.5t-61.5 0.5q-32 0 -62 -0.5t-53 -1.5v33q18 1 30 3t19 5t10.5 6.5t5.5 7.5q4 8 6.5 23.5t2.5 38.5v180q0 27 -1.5 44.5t-7.5 32.5q-9 19 -52 44v14l132 74z" />
    <glyph glyph-name="eth" unicode="&#xf0;" horiz-adv-x="576" 
d="M401 613q66 -70 98.5 -162.5t32.5 -187.5q0 -64 -19 -115.5t-52 -88t-78.5 -56t-99.5 -19.5q-53 0 -97.5 19.5t-76 52.5t-49 78t-17.5 96q0 65 21.5 113.5t57 81t81.5 48.5t95 16q13 0 29.5 -2.5t33 -8t32.5 -15t29 -23.5q-29 83 -77 142l-121 -68l-20 36l113 62
q-64 61 -138 82l13 39q54 -12 98.5 -35.5t80.5 -55.5l88 49l20 -34zM292 24q72 0 111.5 54t39.5 145q0 107 -42 166.5t-112 59.5q-72 0 -114 -51t-42 -141q0 -46 9 -88t28.5 -74.5t49.5 -51.5t72 -19z" />
    <glyph glyph-name="ntilde" unicode="&#xf1;" horiz-adv-x="605" 
d="M576 -1q-24 1 -51 2t-61 1q-23 0 -57 -1t-62 -2v33q32 3 45 8t19 13q8 11 10.5 44.5t2.5 96.5q0 22 -0.5 48.5t-2 52t-4.5 48t-8 37.5q-19 49 -84 49q-15 0 -31 -3t-31.5 -8.5t-28.5 -13t-21 -16.5q-13 -13 -15.5 -31.5t-2.5 -53.5v-185q0 -32 2.5 -45.5t7.5 -21.5
q4 -8 16.5 -12t50.5 -7v-33q-22 1 -53 2t-61 1q-32 0 -62.5 -1t-53.5 -2v33q19 1 30.5 3t18.5 5t10.5 6.5t5.5 7.5q4 8 6.5 23t2.5 39v182q0 27 -1.5 43.5t-7.5 31.5q-4 10 -16.5 20t-35.5 24v14l130 74l10 -6v-85q63 45 107.5 63.5t75.5 18.5q29 0 54.5 -12t41.5 -36
q9 -14 14.5 -28.5t8.5 -33t4 -42t1 -54.5v-163q0 -35 1.5 -50.5t7.5 -23.5q5 -8 17 -12.5t50 -8.5v-33zM333 645q15 -7 26.5 -9.5t18.5 -2.5q14 0 26.5 15t23.5 36l23 -11q-23 -57 -43.5 -81.5t-40.5 -24.5q-10 0 -23 3.5t-36 12.5l-29 12q-30 12 -43 12q-17 0 -29 -10.5
t-26 -37.5l-23 9q7 19 16.5 38t20.5 34t24 24t27 9q16 0 28.5 -4.5t26.5 -9.5z" />
    <glyph glyph-name="ograve" unicode="&#xf2;" horiz-adv-x="576" 
d="M293 24q73 0 111.5 54t38.5 145q0 53 -11.5 96.5t-32.5 74t-50 47t-63 16.5q-36 0 -64.5 -14.5t-48 -41t-30 -63t-10.5 -81.5q0 -46 9.5 -88t29 -74.5t50 -51.5t71.5 -19zM43 230q0 65 21.5 115t57.5 84t82 51.5t96 17.5q51 0 93.5 -18.5t73.5 -51.5t48.5 -78.5
t17.5 -99.5q0 -59 -19 -108t-52.5 -84t-79 -54.5t-99.5 -19.5q-53 0 -97.5 19.5t-76 52.5t-49 78t-17.5 96zM237 750l20.5 -41l24 -48t26 -50t25.5 -47l-20 -12q-44 42 -88 88.5t-79 83.5z" />
    <glyph glyph-name="oacute" unicode="&#xf3;" horiz-adv-x="576" 
d="M293 24q73 0 111.5 54t38.5 145q0 53 -11.5 96.5t-32.5 74t-50 47t-63 16.5q-36 0 -64.5 -14.5t-48 -41t-30 -63t-10.5 -81.5q0 -46 9.5 -88t29 -74.5t50 -51.5t71.5 -19zM43 230q0 65 21.5 115t57.5 84t82 51.5t96 17.5q51 0 93.5 -18.5t73.5 -51.5t48.5 -78.5
t17.5 -99.5q0 -59 -19 -108t-52.5 -84t-79 -54.5t-99.5 -19.5q-53 0 -97.5 19.5t-76 52.5t-49 78t-17.5 96zM424 724q-34 -37 -78.5 -83t-88.5 -89l-20 12q12 22 25.5 47.5t26.5 50t24.5 47.5t19.5 41z" />
    <glyph glyph-name="ocircumflex" unicode="&#xf4;" horiz-adv-x="576" 
d="M293 24q73 0 111.5 54t38.5 145q0 53 -11.5 96.5t-32.5 74t-50 47t-63 16.5q-36 0 -64.5 -14.5t-48 -41t-30 -63t-10.5 -81.5q0 -46 9.5 -88t29 -74.5t50 -51.5t71.5 -19zM43 230q0 65 21.5 115t57.5 84t82 51.5t96 17.5q51 0 93.5 -18.5t73.5 -51.5t48.5 -78.5
t17.5 -99.5q0 -59 -19 -108t-52.5 -84t-79 -54.5t-99.5 -19.5q-53 0 -97.5 19.5t-76 52.5t-49 78t-17.5 96zM406 538q-32 29 -62 57t-56 51q-12 -11 -26.5 -24.5t-30 -28t-31.5 -29t-29 -26.5l-21 15q30 40 63 85t61 87h35q27 -41 57.5 -85t59.5 -85z" />
    <glyph glyph-name="otilde" unicode="&#xf5;" horiz-adv-x="576" 
d="M293 24q73 0 111.5 54t38.5 145q0 53 -11.5 96.5t-32.5 74t-50 47t-63 16.5q-36 0 -64.5 -14.5t-48 -41t-30 -63t-10.5 -81.5q0 -46 9.5 -88t29 -74.5t50 -51.5t71.5 -19zM43 230q0 65 21.5 115t57.5 84t82 51.5t96 17.5q51 0 93.5 -18.5t73.5 -51.5t48.5 -78.5
t17.5 -99.5q0 -59 -19 -108t-52.5 -84t-79 -54.5t-99.5 -19.5q-53 0 -97.5 19.5t-76 52.5t-49 78t-17.5 96zM316 645q15 -7 26.5 -9.5t18.5 -2.5q14 0 26.5 15t23.5 36l23 -11q-23 -57 -43.5 -81.5t-40.5 -24.5q-10 0 -23 3.5t-36 12.5l-29 12q-30 12 -43 12
q-17 0 -29 -10.5t-26 -37.5l-23 9q7 19 16.5 38t20.5 34t24 24t27 9q16 0 28.5 -4.5t26.5 -9.5z" />
    <glyph glyph-name="odieresis" unicode="&#xf6;" horiz-adv-x="576" 
d="M293 24q73 0 111.5 54t38.5 145q0 53 -11.5 96.5t-32.5 74t-50 47t-63 16.5q-36 0 -64.5 -14.5t-48 -41t-30 -63t-10.5 -81.5q0 -46 9.5 -88t29 -74.5t50 -51.5t71.5 -19zM43 230q0 65 21.5 115t57.5 84t82 51.5t96 17.5q51 0 93.5 -18.5t73.5 -51.5t48.5 -78.5
t17.5 -99.5q0 -59 -19 -108t-52.5 -84t-79 -54.5t-99.5 -19.5q-53 0 -97.5 19.5t-76 52.5t-49 78t-17.5 96zM205 580q-19 0 -33 14t-14 35q0 20 14 34.5t34 14.5t33 -14.5t13 -34.5t-13.5 -34.5t-33.5 -14.5zM367 580q-19 0 -33 14t-14 35q0 20 14 34.5t34 14.5t33 -14.5
t13 -34.5t-13.5 -34.5t-33.5 -14.5z" />
    <glyph glyph-name="divide" unicode="&#xf7;" horiz-adv-x="729" 
d="M94 272v65h541v-65h-541zM314 476q0 21 15 35.5t35 14.5t35 -13.5t15 -36.5t-15 -37t-35 -14t-35 14t-15 37zM314 133q0 22 15 36.5t35 14.5t35 -14t15 -37t-15 -37t-35 -14t-35 14.5t-15 36.5z" />
    <glyph glyph-name="oslash" unicode="&#xf8;" horiz-adv-x="576" 
d="M450 444q38 -34 60.5 -83.5t22.5 -110.5q0 -59 -19 -108t-52.5 -84t-79 -54.5t-99.5 -19.5q-36 0 -67.5 9t-58.5 25l-51 -75l-34 20l53 78q-39 34 -60.5 83t-21.5 106q0 65 21.5 115t57.5 84t82 51.5t96 17.5q32 0 61.5 -8t54.5 -22l53 77l35 -22zM292 24q72 0 111.5 54
t39.5 145q0 49 -9.5 89t-26.5 70l-216 -315q19 -20 44 -31.5t57 -11.5zM133 257q0 -44 8 -84t25 -72l216 316q-38 40 -93 40q-36 0 -65 -14.5t-49.5 -41t-31 -63t-10.5 -81.5z" />
    <glyph glyph-name="ugrave" unicode="&#xf9;" horiz-adv-x="585" 
d="M559 24l-146 -43l-9 7v75q-28 -23 -52 -38t-45 -23.5t-39 -12t-33 -3.5q-30 0 -55.5 8.5t-44.5 29t-30 55t-11 85.5v200q0 21 -2.5 34.5t-10.5 21.5t-22.5 11.5t-38.5 4.5v33q53 5 96.5 10.5t64.5 9.5q-5 -79 -6.5 -148.5t-1.5 -107.5q0 -57 7 -92.5t20.5 -55.5t33 -27
t45.5 -7q30 0 62.5 13t49.5 36q8 8 11 23.5t3 51.5v188q0 24 -3 38t-11.5 21.5t-24 10.5t-41.5 3v33q48 5 93 10.5t70 10.5q-2 -36 -3 -73.5t-1 -57.5v-228q0 -27 2 -43.5t8 -23.5q6 -8 18.5 -9.5t46.5 -1.5v-29zM237 750l20.5 -41l24 -48t26 -50t25.5 -47l-20 -12
q-44 42 -88 88.5t-79 83.5z" />
    <glyph glyph-name="uacute" unicode="&#xfa;" horiz-adv-x="585" 
d="M559 24l-146 -43l-9 7v75q-28 -23 -52 -38t-45 -23.5t-39 -12t-33 -3.5q-30 0 -55.5 8.5t-44.5 29t-30 55t-11 85.5v200q0 21 -2.5 34.5t-10.5 21.5t-22.5 11.5t-38.5 4.5v33q53 5 96.5 10.5t64.5 9.5q-5 -79 -6.5 -148.5t-1.5 -107.5q0 -57 7 -92.5t20.5 -55.5t33 -27
t45.5 -7q30 0 62.5 13t49.5 36q8 8 11 23.5t3 51.5v188q0 24 -3 38t-11.5 21.5t-24 10.5t-41.5 3v33q48 5 93 10.5t70 10.5q-2 -36 -3 -73.5t-1 -57.5v-228q0 -27 2 -43.5t8 -23.5q6 -8 18.5 -9.5t46.5 -1.5v-29zM423 724q-34 -37 -78.5 -83t-88.5 -89l-20 12
q12 22 25.5 47.5t26.5 50t24.5 47.5t19.5 41z" />
    <glyph glyph-name="ucircumflex" unicode="&#xfb;" horiz-adv-x="585" 
d="M559 24l-146 -43l-9 7v75q-28 -23 -52 -38t-45 -23.5t-39 -12t-33 -3.5q-30 0 -55.5 8.5t-44.5 29t-30 55t-11 85.5v200q0 21 -2.5 34.5t-10.5 21.5t-22.5 11.5t-38.5 4.5v33q53 5 96.5 10.5t64.5 9.5q-5 -79 -6.5 -148.5t-1.5 -107.5q0 -57 7 -92.5t20.5 -55.5t33 -27
t45.5 -7q30 0 62.5 13t49.5 36q8 8 11 23.5t3 51.5v188q0 24 -3 38t-11.5 21.5t-24 10.5t-41.5 3v33q48 5 93 10.5t70 10.5q-2 -36 -3 -73.5t-1 -57.5v-228q0 -27 2 -43.5t8 -23.5q6 -8 18.5 -9.5t46.5 -1.5v-29zM408 538q-32 29 -62 57t-56 51q-12 -11 -26.5 -24.5t-30 -28
t-31.5 -29t-29 -26.5l-21 15q30 40 63 85t61 87h35q27 -41 57.5 -85t59.5 -85z" />
    <glyph glyph-name="udieresis" unicode="&#xfc;" horiz-adv-x="585" 
d="M559 24l-146 -43l-9 7v75q-28 -23 -52 -38t-45 -23.5t-39 -12t-33 -3.5q-30 0 -55.5 8.5t-44.5 29t-30 55t-11 85.5v200q0 21 -2.5 34.5t-10.5 21.5t-22.5 11.5t-38.5 4.5v33q53 5 96.5 10.5t64.5 9.5q-5 -79 -6.5 -148.5t-1.5 -107.5q0 -57 7 -92.5t20.5 -55.5t33 -27
t45.5 -7q30 0 62.5 13t49.5 36q8 8 11 23.5t3 51.5v188q0 24 -3 38t-11.5 21.5t-24 10.5t-41.5 3v33q48 5 93 10.5t70 10.5q-2 -36 -3 -73.5t-1 -57.5v-228q0 -27 2 -43.5t8 -23.5q6 -8 18.5 -9.5t46.5 -1.5v-29zM210 580q-19 0 -33 14t-14 35q0 20 14 34.5t34 14.5
t33 -14.5t13 -34.5t-13.5 -34.5t-33.5 -14.5zM372 580q-19 0 -33 14t-14 35q0 20 14 34.5t34 14.5t33 -14.5t13 -34.5t-13.5 -34.5t-33.5 -14.5z" />
    <glyph glyph-name="yacute" unicode="&#xfd;" 
d="M294 99q21 57 46.5 124t48.5 140q6 19 8.5 33.5t2.5 22.5q0 13 -12.5 21t-57.5 10v32q24 -1 50.5 -2t52.5 -1q25 0 47.5 0.5t48.5 2.5v-32q-30 -2 -47.5 -13.5t-30.5 -45.5q-11 -29 -28 -74.5t-36.5 -96t-39 -101.5t-35.5 -90q-20 -49 -40 -91t-42.5 -78t-48.5 -66.5
t-59 -54.5l-49 62q58 28 103.5 79.5t73.5 120.5l-152 357q-12 27 -20 44.5t-17 28t-21 14.5t-31 5v32q10 -1 25.5 -1.5t32.5 -1t33.5 -0.5h28.5q31 0 60 1t48 2v-32q-43 -2 -55.5 -9t-12.5 -22q0 -8 5.5 -25t11.5 -33q28 -69 56.5 -137.5t51.5 -124.5zM433 724
q-34 -37 -78.5 -83t-88.5 -89l-20 12q12 22 25.5 47.5t26.5 50t24.5 47.5t19.5 41z" />
    <glyph glyph-name="thorn" unicode="&#xfe;" horiz-adv-x="586" 
d="M182 -124q0 -30 3 -44t8 -23q4 -8 19 -13.5t57 -7.5v-33q-26 2 -59 2h-62q-30 0 -62 -0.5t-55 -1.5v33q41 3 51 9q6 3 10 7.5t6.5 13t3.5 22t1 33.5v730q0 29 -2.5 44.5t-10.5 24.5q-5 6 -15.5 13.5t-31.5 21.5v16l135 77l11 -7q-2 -27 -3 -59.5t-2 -64.5t-1.5 -59.5
t-0.5 -44.5v-149q48 38 87.5 59t81.5 21q40 0 75.5 -17.5t61.5 -48t41.5 -73t15.5 -93.5q0 -59 -20.5 -109t-55.5 -86t-83.5 -56t-103.5 -20q-22 0 -47 4t-53 13v-134zM182 169q0 -35 2.5 -56t16.5 -37q15 -17 41.5 -27.5t56.5 -10.5q72 0 115.5 49.5t43.5 145.5
q0 45 -11.5 81.5t-32 62t-48.5 39t-61 13.5q-37 0 -65.5 -13.5t-42.5 -31.5q-9 -12 -12 -26.5t-3 -28.5v-160z" />
    <glyph glyph-name="ydieresis" unicode="&#xff;" 
d="M294 99q21 57 46.5 124t48.5 140q6 19 8.5 33.5t2.5 22.5q0 13 -12.5 21t-57.5 10v32q24 -1 50.5 -2t52.5 -1q25 0 47.5 0.5t48.5 2.5v-32q-30 -2 -47.5 -13.5t-30.5 -45.5q-11 -29 -28 -74.5t-36.5 -96t-39 -101.5t-35.5 -90q-20 -49 -40 -91t-42.5 -78t-48.5 -66.5
t-59 -54.5l-49 62q58 28 103.5 79.5t73.5 120.5l-152 357q-12 27 -20 44.5t-17 28t-21 14.5t-31 5v32q10 -1 25.5 -1.5t32.5 -1t33.5 -0.5h28.5q31 0 60 1t48 2v-32q-43 -2 -55.5 -9t-12.5 -22q0 -8 5.5 -25t11.5 -33q28 -69 56.5 -137.5t51.5 -124.5zM199 580q-19 0 -33 14
t-14 35q0 20 14 34.5t34 14.5t33 -14.5t13 -34.5t-13.5 -34.5t-33.5 -14.5zM361 580q-19 0 -33 14t-14 35q0 20 14 34.5t34 14.5t33 -14.5t13 -34.5t-13.5 -34.5t-33.5 -14.5z" />
    <glyph glyph-name="dotlessi" unicode="&#x131;" horiz-adv-x="293" 
d="M196 499q-1 -22 -1.5 -48.5l-1 -53t-0.5 -51v-42.5v-186q0 -31 2.5 -45t7.5 -22q3 -4 6.5 -7t11 -5t19 -4t30.5 -3v-33q-22 1 -53.5 1.5t-61.5 0.5q-32 0 -62 -0.5t-53 -1.5v33q18 1 30 3t19 5t10.5 6.5t5.5 7.5q4 8 6.5 23.5t2.5 38.5v180q0 27 -1.5 44.5t-7.5 32.5
q-9 19 -52 44v14l132 74z" />
    <glyph glyph-name="OE" unicode="&#x152;" horiz-adv-x="1009" 
d="M596 1q-35 0 -89.5 -3.5t-114.5 -3.5q-86 0 -149.5 25t-105.5 71t-62.5 109t-20.5 140q0 75 24 142.5t70.5 118.5t114 81t153.5 30q19 0 44 -1t51 -2.5t51 -2.5t43 -1h83.5t85 0.5t80 1t70.5 1.5q2 -48 5 -86.5t6 -60.5l-35 -4q-8 36 -19 57t-25 33q-15 12 -38 17t-74 5
h-62.5t-55.5 -2v-277q48 0 84.5 2t50.5 7q13 4 24 20.5t19 63.5h35q0 -8 -1 -22t-2 -31t-1.5 -35.5t-0.5 -34.5q0 -34 0.5 -61.5t1.5 -42.5h-35q-6 45 -16 61t-23 22q-14 7 -50 9.5t-86 2.5v-223q0 -14 1.5 -29.5t6.5 -24.5q11 -19 48.5 -26t90.5 -7q54 0 83.5 11t47.5 36
q11 16 22.5 37.5t20.5 44.5l34 -8q-11 -45 -22 -84.5t-23 -77.5q-31 0 -74 0.5t-90 1t-93 0.5h-83zM535 560q0 34 -3.5 51.5t-10.5 26.5q-11 14 -37.5 22.5t-71.5 8.5q-65 0 -113 -25.5t-79.5 -69t-47 -102t-15.5 -123.5q0 -64 13.5 -121t43 -99.5t76 -67.5t112.5 -25
q108 0 123 37q8 18 10 63v424z" />
    <glyph glyph-name="oe" unicode="&#x153;" horiz-adv-x="888" 
d="M526 296q-2 -8 -2 -16v-13q0 -56 14 -95t38 -64.5t56 -37t67 -11.5q33 0 68 11.5t73 38.5l21 -26q-48 -51 -97 -75t-97 -24q-64 0 -111.5 26.5t-75.5 79.5q-31 -50 -81.5 -78t-115.5 -28q-53 0 -97.5 19.5t-76 52.5t-49 78t-17.5 96q0 64 21.5 114t57.5 84.5t82 52
t96 17.5q65 0 113 -29.5t76 -80.5q31 51 79 80.5t106 29.5q38 0 70.5 -12t56.5 -36.5t37.5 -62.5t13.5 -90zM293 24q35 0 63 14t47.5 40.5t29.5 63t10 81.5q0 53 -11 96.5t-31 74t-49.5 47t-65.5 16.5q-35 0 -63 -15t-48 -41.5t-31 -63.5t-11 -80q0 -45 9.5 -87t29 -74.5
t49.5 -52t72 -19.5zM531 333q78 0 126.5 1.5t72.5 4.5q14 2 22 6t8 20q0 37 -27 65.5t-75 28.5q-25 0 -46 -10t-37.5 -27t-27.5 -40t-16 -49z" />
    <glyph glyph-name="Scaron" unicode="&#x160;" horiz-adv-x="512" 
d="M325 380q76 -50 107 -94.5t31 -98.5q0 -44 -16 -81t-45.5 -64t-71.5 -42t-94 -15q-26 0 -51.5 3.5t-49 9t-42 12.5t-29.5 15q-8 33 -14 72.5t-11 74.5l39 4q9 -35 21.5 -62t31.5 -46t46 -29t65 -10q63 0 99.5 30t36.5 84q0 24 -5.5 43t-17 35t-28.5 30t-39 28l-91 59
q-57 37 -91 82t-34 110q0 40 16 74.5t45.5 60t71.5 39.5t94 14q42 0 76.5 -6.5t57.5 -15.5q1 -12 3 -30t4 -37t4.5 -38t4.5 -34l-38 -3q-14 63 -43.5 92.5t-87.5 29.5q-62 0 -95 -33t-33 -81q0 -70 87 -125zM143 921q35 -24 67 -47t61 -43q12 8 28 19.5t33 24l34 25t31 21.5
l21 -19q-32 -35 -65 -70t-62 -71h-46q-32 39 -59 70.5t-62 69.5z" />
    <glyph glyph-name="scaron" unicode="&#x161;" horiz-adv-x="393" 
d="M310 363q-6 23 -12 38.5t-15 27.5q-14 17 -33 22.5t-46 5.5q-34 0 -57 -19t-23 -47q0 -15 4.5 -27.5t16 -24.5t31.5 -25t50 -28q42 -21 67.5 -40t39.5 -37.5t18.5 -38t4.5 -40.5q0 -30 -12.5 -56.5t-35 -46.5t-54 -31.5t-70.5 -11.5q-34 0 -68.5 6.5t-68.5 23.5
q-6 58 -9 120l33 2q7 -28 14.5 -45t21.5 -31q19 -19 41.5 -25.5t56.5 -6.5q16 0 31.5 4.5t27.5 13t19.5 21t7.5 27.5t-4 27t-16.5 25t-35.5 28t-61 35q-64 34 -91 68.5t-27 82.5q0 30 13 55.5t37 44t56.5 28.5t71.5 10q24 0 52 -4.5t51 -12.5q0 -8 0.5 -21.5t1.5 -30
t2 -33.5t2 -31zM88 729q32 -29 62 -56.5t56 -50.5q12 10 27 24t30.5 28.5l31 29t28.5 26.5l21 -16q-29 -40 -62 -85t-62 -87h-35q-27 41 -57.5 85.5t-59.5 85.5z" />
    <glyph glyph-name="Ydieresis" unicode="&#x178;" horiz-adv-x="656" 
d="M373 121q0 -32 2.5 -45t7.5 -21t23 -14t59 -8v-34q-10 0 -26 0.5t-34.5 1l-37 1t-33.5 0.5q-16 0 -35.5 -0.5l-39 -1t-37.5 -1t-31 -0.5v34q39 2 58 9t24 15q4 8 6.5 23t2.5 39v178l-170 296q-15 26 -26.5 41t-23 23.5t-25 11t-31.5 4.5v34q12 -1 29.5 -1.5t36 -1
t35.5 -0.5h29q15 0 35 0.5t39.5 1t36 1t23.5 0.5v-34q-44 -1 -58.5 -6.5t-14.5 -19.5q0 -9 4.5 -21t17.5 -36q32 -63 65.5 -120.5t66.5 -118.5q16 28 31 52.5t29.5 49.5t29.5 51t33 57q16 28 23.5 49.5t7.5 35.5q0 11 -13.5 18.5t-56.5 8.5v34q9 -1 22.5 -1.5t28.5 -1
t29.5 -0.5h24.5q12 0 28 0.5l32 1t30 1t22 0.5v-34q-15 -2 -27.5 -6t-25 -15t-27.5 -30.5t-34 -51.5q-18 -29 -40 -63.5t-44.5 -70.5t-43.5 -70.5t-37 -62.5v-182zM262 778q-19 0 -33 14.5t-14 35.5q0 20 14 34.5t34 14.5q21 0 33.5 -14.5t12.5 -34.5t-13 -35t-34 -15z
M444 778q-19 0 -33 14.5t-14 35.5q0 20 14 34.5t34 14.5t33 -14.5t13 -34.5t-13.5 -35t-33.5 -15z" />
    <glyph glyph-name="Zcaron" unicode="&#x17d;" horiz-adv-x="667" 
d="M595 -3q-5 0 -30 1t-62 1.5t-79.5 1.5t-81.5 1q-40 0 -85 -0.5t-87.5 -1.5t-78 -1.5t-55.5 -1.5l-8 20q120 164 237 327.5t224 317.5q-21 1 -66.5 1.5t-103.5 0.5q-45 0 -75.5 -2.5t-51.5 -7.5t-34 -12t-22 -17q-11 -11 -20.5 -28.5t-26.5 -52.5l-38 9q14 38 26.5 86.5
t22.5 92.5h35q5 -13 11.5 -18t29.5 -7q15 -1 30.5 -1.5t39 -0.5h59h89.5q63 0 117 0.5t93 2.5l9 -18q-120 -174 -233 -334t-213 -303q28 -2 62 -2.5t82 -0.5q54 0 90.5 0.5t61.5 2.5t41 5.5t29 10.5q24 14 41.5 42t35.5 67l38 -8q-5 -15 -12.5 -39.5t-15.5 -50t-15 -48.5
t-10 -35zM219 921q35 -24 67 -47t61 -43q12 8 28 19.5t33 24l34 25t31 21.5l21 -19q-32 -35 -65 -70t-62 -71h-46q-32 39 -59 70.5t-62 69.5z" />
    <glyph glyph-name="zcaron" unicode="&#x17e;" horiz-adv-x="472" 
d="M438 462q-78 -107 -151.5 -209t-151.5 -211q35 -1 61 -1h54q19 0 45 0.5t47 4.5q16 3 28 8.5t22 16t20 27.5t21 44l34 -7q-3 -9 -7.5 -25.5t-10 -35.5t-11.5 -39t-10 -36q-59 1 -106.5 1.5t-96.5 0.5q-23 0 -56.5 -0.5t-65 -0.5t-54.5 -0.5t-26 -0.5l-7 17
q39 52 81.5 109t83 113t77.5 108t66 94q-64 0 -103 -0.5t-61.5 -2.5t-33 -6t-17.5 -11q-8 -8 -15.5 -24.5t-19.5 -46.5l-34 7q6 22 13.5 58.5t13.5 70.5q36 -3 65 -4t54.5 -2t49 -1h49.5q36 0 74.5 0.5t70.5 2.5zM120 729q32 -29 62 -56.5t56 -50.5q12 10 27 24t30.5 28.5
l31 29t28.5 26.5l21 -16q-29 -40 -62 -85t-62 -87h-35q-27 41 -57.5 85.5t-59.5 85.5z" />
    <glyph glyph-name="florin" unicode="&#x192;" horiz-adv-x="451" 
d="M80 414h92l6 51q8 63 28.5 99t46.5 60q30 29 65.5 43.5t68.5 14.5q25 0 49 -7t35 -15l-40 -69q-48 37 -88 37q-8 0 -20 -4t-21 -15t-16 -36.5t-11 -59.5l-12 -99h110v-47h-115l-26 -215q-9 -77 -29.5 -133t-49 -92.5t-63 -54t-72.5 -17.5q-17 0 -36 5t-30 10l32 67
q15 -9 35.5 -16.5t37.5 -7.5q21 0 32.5 9t19.5 24q10 19 17.5 67t17.5 138l23 216h-87v47z" />
    <glyph glyph-name="circumflex" unicode="&#x2c6;" horiz-adv-x="292" 
d="M264 538q-32 29 -62 57t-56 51q-12 -11 -26.5 -24.5t-30 -28t-31.5 -29t-29 -26.5l-21 15q30 40 63 85t61 87h35q27 -41 57.5 -85t59.5 -85z" />
    <glyph glyph-name="tilde" unicode="&#x2dc;" horiz-adv-x="292" 
d="M175 645q15 -7 26.5 -9.5t18.5 -2.5q14 0 26.5 15t23.5 36l23 -11q-23 -57 -43.5 -81.5t-40.5 -24.5q-10 0 -23 3.5t-36 12.5l-29 12q-30 12 -43 12q-17 0 -29 -10.5t-26 -37.5l-23 9q7 19 16.5 38t20.5 34t24 24t27 9q16 0 28.5 -4.5t26.5 -9.5z" />
    <glyph glyph-name="endash" unicode="&#x2013;" horiz-adv-x="538" 
d="M503 299v-68h-467v68h467z" />
    <glyph glyph-name="emdash" unicode="&#x2014;" horiz-adv-x="780" 
d="M745 299v-68h-709v68h709z" />
    <glyph glyph-name="quoteleft" unicode="&#x2018;" horiz-adv-x="200" 
d="M178 737q-40 -39 -54 -72t-14 -58q0 -36 51 -85l-70 -56q-19 19 -30 34.5t-17 28.5t-7.5 25t-1.5 23q0 36 27.5 83t90.5 100z" />
    <glyph glyph-name="quoteright" unicode="&#x2019;" horiz-adv-x="200" 
d="M22 485q40 39 54 72t14 58q0 19 -13 40t-37 45l70 56q18 -19 29 -34.5t17 -28.5t7.5 -25t1.5 -23q0 -36 -27.5 -83t-90.5 -100z" />
    <glyph glyph-name="quotesinglbase" unicode="&#x201a;" horiz-adv-x="200" 
d="M22 -169q40 39 54 72t14 58q0 35 -50 85l70 56q18 -19 29 -34t17 -28.5t7.5 -25t1.5 -23.5q0 -36 -27.5 -83t-90.5 -100z" />
    <glyph glyph-name="quotedblleft" unicode="&#x201c;" horiz-adv-x="365" 
d="M342 737q-40 -39 -54 -72t-14 -58q0 -36 51 -85l-70 -56q-18 19 -29 34.5t-17 28.5t-8 25t-2 23q0 36 27.5 83t90.5 100zM178 737q-40 -39 -54 -72t-14 -58q0 -36 51 -85l-70 -56q-19 19 -30 34.5t-17 28.5t-7.5 25t-1.5 23q0 36 27.5 83t90.5 100z" />
    <glyph glyph-name="quotedblright" unicode="&#x201d;" horiz-adv-x="365" 
d="M22 485q40 39 54 72t14 58q0 19 -13 40t-37 45l70 56q18 -19 29 -34.5t17 -28.5t7.5 -25t1.5 -23q0 -36 -27.5 -83t-90.5 -100zM187 485q40 39 54 72t14 58q0 19 -13.5 40t-37.5 45l70 56q18 -19 29 -34.5t17 -28.5t8 -25t2 -23q0 -36 -27.5 -83t-90.5 -100z" />
    <glyph glyph-name="quotedblbase" unicode="&#x201e;" horiz-adv-x="365" 
d="M22 -169q40 39 54 72t14 58q0 35 -50 85l70 56q18 -19 29 -34t17 -28.5t7.5 -25t1.5 -23.5q0 -36 -27.5 -83t-90.5 -100zM187 -169q40 39 54 72t14 58q0 19 -13.5 40t-37.5 45l70 56q18 -19 29 -34t17 -28.5t8 -25t2 -23.5q0 -36 -27.5 -83t-90.5 -100z" />
    <glyph glyph-name="dagger" unicode="&#x2020;" horiz-adv-x="510" 
d="M228 413q-54 0 -105 -5t-91 -10v87q40 -6 91 -12t105 -6q0 50 -2.5 94.5t-5.5 79t-6 57t-4 28.5h96q-1 -6 -4 -28.5t-6 -57t-6 -79t-3 -94.5q53 0 105 6.5t87 11.5v-87q-12 2 -34 4.5t-48.5 5t-55.5 4t-54 1.5q0 -148 2.5 -248t5.5 -162t6 -91t4 -35h-95q1 6 3.5 35.5
t5.5 91.5t6 161.5t3 247.5z" />
    <glyph glyph-name="daggerdbl" unicode="&#x2021;" horiz-adv-x="507" 
d="M225 443q-26 -1 -52.5 -2.5t-52 -3.5t-48.5 -4.5t-40 -4.5v87q35 -5 88 -10.5t104 -7.5q-2 59 -4 100t-4.5 67.5t-4.5 41t-3 20.5h95q-1 -6 -3.5 -20t-5 -41t-5 -68t-3.5 -100q25 1 52 3t52.5 4.5t47.5 5.5t37 5v-87q-11 2 -32 4t-47.5 4t-55.5 3.5t-55 2.5v-248
q25 1 52 3t52.5 4.5t47.5 5.5t38 5v-87q-11 2 -32 4t-47.5 4t-55.5 3.5t-54 2.5q3 -129 8.5 -190t7.5 -72h-93q1 10 7 72t8 191q-26 -1 -52.5 -2.5t-52 -3.5t-48 -4.5t-39.5 -4.5v87q17 -3 40 -5.5t48.5 -5t52 -4.5t52.5 -3v249z" />
    <glyph glyph-name="bullet" unicode="&#x2022;" horiz-adv-x="353" 
d="M177 407q28 0 51 -10t39.5 -27t25.5 -41t9 -51q0 -28 -9.5 -51.5t-26 -41t-39.5 -27t-50 -9.5t-50 9.5t-40 27t-26.5 41t-9.5 51.5q0 27 9.5 51t26 41t40 27t50.5 10z" />
    <glyph glyph-name="ellipsis" unicode="&#x2026;" horiz-adv-x="980" 
d="M163 -10q-24 0 -43 18t-19 47q0 28 18.5 46.5t44.5 18.5q27 0 44.5 -19.5t17.5 -46.5q0 -26 -17.5 -45t-45.5 -19zM491 -10q-24 0 -43 18t-19 47q0 28 18.5 46.5t44.5 18.5q27 0 44.5 -19.5t17.5 -46.5q0 -26 -18 -45t-45 -19zM816 -10q-24 0 -43 18t-19 47
q0 28 18.5 46.5t44.5 18.5q27 0 44.5 -19.5t17.5 -46.5q0 -26 -18 -45t-45 -19z" />
    <glyph glyph-name="perthousand" unicode="&#x2030;" horiz-adv-x="1160" 
d="M340 476q0 -48 -10.5 -88t-30.5 -69.5t-49.5 -46t-67.5 -16.5q-34 0 -62 15t-48.5 42t-32 66t-11.5 87q0 46 11.5 84.5t32.5 67t50 44.5t64 16q37 0 66 -15.5t48.5 -43t29.5 -64.5t10 -79zM268 458q0 97 -22.5 141t-60.5 44t-61 -39t-23 -127q0 -101 22 -143.5t63 -42.5
q18 0 33.5 8.5t26 28t16.5 51.5t6 79zM289 -2h-52l267 671h53zM768 210q0 -48 -10.5 -88t-30.5 -69.5t-49.5 -46t-67.5 -16.5q-33 0 -61.5 15t-49 42t-32 66t-11.5 87q0 46 11.5 84.5t32.5 67t50 44.5t64 16q38 0 66.5 -15.5t48 -43t29.5 -64.5t10 -79zM696 192
q0 97 -22.5 141t-60.5 44t-61 -39t-23 -127q0 -101 22 -143.5t63 -42.5q18 0 33.5 8.5t26 28t16.5 51.5t6 79zM1133 210q0 -48 -10.5 -88t-30.5 -69.5t-49.5 -46t-67.5 -16.5q-34 0 -62 15t-48.5 42t-32 66t-11.5 87q0 46 11.5 84.5t32.5 67t50 44.5t64 16q37 0 66 -15.5
t48.5 -43t29.5 -64.5t10 -79zM1061 192q0 97 -22.5 141t-60.5 44t-61 -39t-23 -127q0 -101 22 -143.5t63 -42.5q18 0 33.5 8.5t26 28t16.5 51.5t6 79z" />
    <glyph glyph-name="guilsinglleft" unicode="&#x2039;" horiz-adv-x="256" 
d="M233 81l-21 -18q-23 21 -48 44t-48.5 45.5t-45.5 43t-39 36.5v28q48 42 96 85t86 79l20 -17l-123 -159z" />
    <glyph glyph-name="guilsinglright" unicode="&#x203a;" horiz-adv-x="256" 
d="M23 406l21 18q23 -22 48 -45.5t48.5 -45.5t45.5 -42.5t39 -36.5v-27q-48 -42 -96 -85.5t-86 -78.5l-20 17l123 159z" />
    <glyph glyph-name="Euro" unicode="&#x20ac;" horiz-adv-x="649" 
d="M238 383q-1 -10 -1 -19.5v-20.5v-19.5t1 -18.5h250v-42h-247q11 -112 57 -173.5t126 -61.5q58 0 93 29t55 103l35 -6q-7 -39 -13 -70t-15 -61q-26 -17 -72.5 -26.5t-92.5 -9.5q-65 0 -112.5 20t-80 56.5t-51.5 87t-25 112.5h-81v42h78q0 35 0.5 51t1.5 27h-80v42h85
q9 57 31 104t55.5 80.5t79 52t102.5 18.5q35 0 63 -4.5t57 -12.5q13 -4 26 -7.5t26 -8.5q2 -35 4.5 -65t5.5 -63l-35 -4q-8 37 -21 61t-31 38t-42 19t-54 5q-72 0 -117 -54t-58 -159h247v-42h-250z" />
    <glyph glyph-name="trademark" unicode="&#x2122;" horiz-adv-x="765" 
d="M191 465q0 -14 1.5 -21t3.5 -10q5 -8 42 -11v-20q-6 0 -15 0.5t-19.5 0.5h-20.5h-17h-17.5h-22t-21.5 -0.5t-16 -0.5v20q21 1 30 4t11 8q4 7 4 31v211q-8 1 -13.5 1h-13.5q-21 0 -31.5 -1.5t-18.5 -7.5q-12 -10 -22 -43l-18 3q3 17 6 42.5t4 45.5h18q3 -6 5 -8
q2 -1 5.5 -2t15 -1.5t33 -1t59.5 -0.5h60t33.5 0.5t15.5 1t6 1.5q8 2 11 10l19 -1q-1 -5 -2 -16t-1.5 -24t-1.5 -26t-1 -22h-19q-2 18 -6.5 29.5t-17.5 16.5q-9 3 -17.5 3.5t-26.5 0.5h-11t-13 -1v-212zM534 485q19 46 37.5 89t38.5 88q9 21 15 45q8 -1 23 -1h31h21t27 1
v-21q-24 0 -32 -8t-8 -32v-13t1 -29t2.5 -54t3.5 -88q0 -12 1.5 -19t5 -11t11.5 -6t22 -3v-20q-10 1 -34 1h-40q-17 0 -35 -0.5t-27 -0.5v20q11 1 19 2.5t12.5 5.5t6.5 11t2 20q0 17 -1.5 61.5t-3.5 116.5q-20 -47 -38 -87t-38 -89q-6 -14 -12.5 -30.5t-10.5 -30.5h-30
q-3 13 -8.5 29.5t-9.5 26.5q-12 31 -21 54.5t-17 43.5t-16 39.5t-17 44.5q-2 -52 -5 -99t-3 -83q0 -23 8.5 -28.5t34.5 -7.5v-20q-16 1 -31.5 1h-29.5q-16 0 -30 -0.5t-25 -0.5v20q22 1 31.5 8t11.5 30q1 21 4 53t5 63t4 54.5t2 27.5q0 16 -10 20.5t-32 6.5v21q11 -1 30 -1
h29h20.5t22.5 1q5 -19 9.5 -34t10.5 -31q23 -59 36.5 -93.5t25.5 -63.5z" />
    </font>
</defs>
</svg>
